{"glyphs":{"0":{"ha":1423,"x_min":75,"x_max":1347,"o":"m 714 -30 q 394 58 540 -30 q 162 306 248 145 q 75 677 75 466 q 161 1072 75 905 q 392 1328 246 1240 q 714 1417 538 1417 q 1034 1328 889 1417 q 1263 1072 1179 1240 q 1347 677 1347 905 q 1262 308 1347 468 q 1032 59 1177 147 q 714 -30 887 -30 m 706 135 q 912 203 819 135 q 1057 396 1004 272 q 1109 679 1109 520 q 1060 971 1109 841 q 919 1176 1010 1101 q 706 1250 827 1250 q 497 1176 585 1250 q 361 971 409 1101 q 313 679 313 841 q 364 396 313 520 q 504 203 415 272 q 706 135 593 135 z "},"1":{"ha":694,"x_min":151,"x_max":556,"o":"m 151 123 l 194 123 q 232 139 216 123 q 248 177 248 155 l 248 982 q 230 1054 248 1028 q 177 1079 212 1079 l 155 1079 l 155 1208 q 290 1255 240 1208 q 341 1389 339 1302 l 458 1389 l 458 177 q 474 139 458 155 q 512 123 490 123 l 556 123 l 556 0 l 151 0 l 151 123 z "},"2":{"ha":1010,"x_min":119,"x_max":899,"o":"m 119 99 q 274 241 194 161 q 464 488 353 321 q 571 721 530 587 q 613 974 613 855 q 565 1159 613 1089 q 433 1228 518 1228 q 292 1158 329 1228 q 254 1002 254 1087 l 147 1002 l 147 1357 l 212 1357 q 234 1337 214 1337 q 250 1341 244 1337 q 466 1405 347 1405 q 646 1353 556 1405 q 795 1206 736 1302 q 853 984 853 1111 q 782 668 853 806 q 627 423 710 530 q 456 220 562 341 l 760 220 q 780 230 772 220 q 788 252 788 240 l 788 333 l 899 333 l 899 0 l 119 0 l 119 99 z "},"3":{"ha":1095,"x_min":87,"x_max":976,"o":"m 510 -28 q 260 22 357 -28 q 87 151 163 71 l 169 278 q 335 161 256 190 q 476 133 409 133 q 639 179 565 133 q 725 279 694 214 q 756 433 756 343 q 729 579 756 520 q 665 669 702 639 q 591 698 627 698 q 535 680 550 698 q 510 633 520 661 l 413 633 l 413 929 l 508 929 q 523 887 510 907 q 565 867 536 867 q 659 920 617 867 q 700 1050 700 972 q 653 1180 700 1123 q 510 1236 605 1236 q 401 1191 444 1236 q 357 1062 357 1147 l 242 1062 l 242 1385 l 294 1385 q 305 1357 298 1367 q 329 1347 312 1347 q 357 1355 343 1347 q 375 1365 371 1363 q 451 1401 411 1387 q 562 1415 492 1415 q 730 1369 649 1415 q 862 1244 812 1323 q 913 1071 913 1165 q 758 792 913 883 q 848 723 798 772 q 938 595 899 675 q 976 413 976 516 q 907 163 976 262 q 731 18 837 63 q 510 -28 625 -28 z "},"4":{"ha":1341,"x_min":71,"x_max":1234,"o":"m 665 117 l 708 117 q 738 129 726 117 q 750 159 750 141 l 750 365 l 71 365 l 71 460 l 845 1389 l 1056 1389 l 1056 1290 l 1026 1290 q 989 1275 1004 1290 q 974 1238 974 1260 l 974 524 l 1077 524 q 1110 537 1097 524 q 1123 569 1123 550 l 1123 619 l 1234 619 l 1234 264 l 1123 264 l 1123 323 q 1111 352 1123 339 q 1081 365 1099 365 l 974 365 l 974 159 q 986 129 974 141 q 1016 117 998 117 l 1062 117 l 1062 0 l 665 0 l 665 117 m 750 524 l 750 1002 l 353 524 l 750 524 z "},"5":{"ha":1115,"x_min":91,"x_max":1006,"o":"m 452 -46 q 91 141 230 -30 l 188 256 q 305 166 242 200 q 444 131 367 131 q 687 230 601 131 q 772 496 772 329 q 737 664 772 589 q 642 780 702 738 q 508 821 581 821 q 359 758 417 821 l 240 851 l 240 1389 l 956 1389 l 956 1060 l 837 1060 l 837 1113 q 802 1153 837 1153 l 413 1153 l 413 966 q 550 992 462 988 q 728 952 621 996 q 921 789 835 909 q 1000 454 1006 669 q 914 177 996 294 q 705 2 831 60 q 452 -46 579 -56 z "},"6":{"ha":1087,"x_min":71,"x_max":998,"o":"m 562 978 q 787 911 687 978 q 942 727 887 843 q 998 472 998 611 q 934 210 998 325 q 765 33 869 95 q 546 -30 661 -30 q 379 8 460 -30 q 232 111 302 38 q 117 306 163 185 q 71 589 71 427 q 155 986 71 798 q 421 1305 246 1194 q 796 1415 595 1415 q 938 1399 863 1415 l 931 1236 q 841 1242 885 1242 q 538 1157 665 1242 q 421 1054 466 1109 q 347 921 375 998 q 562 978 446 978 m 770 484 q 703 727 770 641 q 536 813 637 813 q 380 730 442 813 q 317 484 317 647 q 381 240 317 335 q 540 145 444 145 q 708 235 647 145 q 770 484 770 325 z "},"7":{"ha":1091,"x_min":95,"x_max":1004,"o":"m 331 0 q 310 224 310 125 q 356 538 310 389 q 494 847 403 687 q 694 1151 599 1034 l 238 1151 q 214 1143 220 1151 q 208 1115 208 1135 l 208 1054 l 95 1054 l 95 1389 l 1004 1389 l 1004 1274 q 701 824 825 1067 q 560 379 577 581 q 556 319 556 335 q 589 179 556 222 q 679 135 623 135 l 679 0 l 331 0 z "},"8":{"ha":1175,"x_min":111,"x_max":1063,"o":"m 823 794 q 999 633 935 736 q 1063 395 1063 530 q 999 164 1063 262 q 828 13 935 65 q 597 -40 722 -40 q 327 19 437 -40 q 165 177 218 77 q 111 397 111 276 q 167 608 111 512 q 323 766 222 704 q 207 902 246 827 q 169 1071 169 976 q 223 1251 169 1171 q 373 1377 278 1331 q 583 1423 468 1423 q 781 1381 692 1423 q 922 1261 869 1339 q 974 1077 974 1183 q 934 914 974 986 q 823 794 893 841 m 393 1101 q 464 963 393 1024 q 621 869 536 903 q 747 942 690 883 q 804 1077 804 1002 q 743 1209 804 1155 q 593 1264 683 1264 q 445 1214 498 1264 q 393 1101 393 1165 m 865 357 q 764 547 865 474 q 514 669 663 619 q 351 562 411 621 q 292 403 292 502 q 373 200 292 282 q 589 119 454 119 q 785 183 704 119 q 865 357 865 246 z "},"9":{"ha":1105,"x_min":111,"x_max":1034,"o":"m 776 1349 q 960 1141 887 1278 q 1034 798 1034 1004 q 952 399 1034 583 q 787 165 891 262 q 559 19 683 67 q 315 -30 435 -30 q 188 -14 252 -30 l 188 149 q 274 143 234 143 q 490 184 393 143 q 652 291 587 224 q 744 435 716 357 q 753 462 748 446 q 764 496 758 478 q 530 427 655 427 q 320 492 417 427 q 168 671 224 558 q 111 923 111 784 q 171 1178 111 1065 q 332 1353 230 1290 q 556 1417 435 1417 q 776 1349 675 1417 m 571 581 q 736 674 671 581 q 802 921 802 766 q 769 1097 802 1020 q 682 1218 736 1175 q 563 1262 627 1262 q 445 1219 498 1262 q 363 1100 393 1177 q 333 931 333 1024 q 399 678 333 774 q 571 581 464 581 z "}," ":{"ha":794,"x_min":0,"x_max":0,"o":""},"A":{"ha":1397,"x_min":95,"x_max":1302,"o":"m 1302 127 l 1302 0 l 871 0 l 871 127 l 885 127 q 919 139 905 127 q 933 171 933 151 q 929 188 933 177 l 865 373 l 482 373 l 427 187 q 435 145 419 163 q 476 127 450 127 l 476 0 l 95 0 l 95 127 l 109 127 q 185 153 151 127 q 232 218 218 179 l 605 1389 l 758 1389 l 1169 212 q 1215 150 1183 173 q 1290 127 1248 127 l 1302 127 m 808 540 l 663 966 l 534 540 l 808 540 z "},"Á":{"ha":1397,"x_min":95,"x_max":1302,"o":"m 1302 127 l 1302 0 l 871 0 l 871 127 l 885 127 q 919 139 905 127 q 933 171 933 151 q 929 188 933 177 l 865 373 l 482 373 l 427 187 q 435 145 419 163 q 476 127 450 127 l 476 0 l 95 0 l 95 127 l 109 127 q 185 153 151 127 q 232 218 218 179 l 605 1389 l 758 1389 l 1169 212 q 1215 150 1183 173 q 1290 127 1248 127 l 1302 127 m 808 540 l 663 966 l 534 540 l 808 540 m 530 1548 l 760 1736 l 835 1633 l 575 1480 l 530 1548 z "},"Ă":{"ha":1397,"x_min":95,"x_max":1302,"o":"m 1302 127 l 1302 0 l 871 0 l 871 127 l 885 127 q 919 139 905 127 q 933 171 933 151 q 929 188 933 177 l 865 373 l 482 373 l 427 187 q 435 145 419 163 q 476 127 450 127 l 476 0 l 95 0 l 95 127 l 109 127 q 185 153 151 127 q 232 218 218 179 l 605 1389 l 758 1389 l 1169 212 q 1215 150 1183 173 q 1290 127 1248 127 l 1302 127 m 808 540 l 663 966 l 534 540 l 808 540 m 683 1484 q 547 1525 613 1484 q 462 1619 480 1565 l 502 1675 q 585 1618 538 1637 q 683 1599 633 1599 q 863 1675 796 1599 l 903 1619 q 815 1525 881 1565 q 683 1484 750 1484 z "},"Ắ":{"ha":1397,"x_min":95,"x_max":1302,"o":"m 1302 127 l 1302 0 l 871 0 l 871 127 l 885 127 q 919 139 905 127 q 933 171 933 151 q 929 188 933 177 l 865 373 l 482 373 l 427 187 q 435 145 419 163 q 476 127 450 127 l 476 0 l 95 0 l 95 127 l 109 127 q 185 153 151 127 q 232 218 218 179 l 605 1389 l 758 1389 l 1169 212 q 1215 150 1183 173 q 1290 127 1248 127 l 1302 127 m 808 540 l 663 966 l 534 540 l 808 540 z "},"Ặ":{"ha":1397,"x_min":95,"x_max":1302,"o":"m 1302 127 l 1302 0 l 871 0 l 871 127 l 885 127 q 919 139 905 127 q 933 171 933 151 q 929 188 933 177 l 865 373 l 482 373 l 427 187 q 435 145 419 163 q 476 127 450 127 l 476 0 l 95 0 l 95 127 l 109 127 q 185 153 151 127 q 232 218 218 179 l 605 1389 l 758 1389 l 1169 212 q 1215 150 1183 173 q 1290 127 1248 127 l 1302 127 m 808 540 l 663 966 l 534 540 l 808 540 m 671 -294 q 612 -268 637 -294 q 587 -208 587 -242 q 612 -150 587 -175 q 671 -125 637 -125 q 729 -150 704 -125 q 754 -208 754 -175 q 729 -268 754 -242 q 671 -294 704 -294 m 683 1484 q 547 1525 613 1484 q 462 1619 480 1565 l 502 1675 q 585 1618 538 1637 q 683 1599 633 1599 q 863 1675 796 1599 l 903 1619 q 815 1525 881 1565 q 683 1484 750 1484 z "},"Ằ":{"ha":1397,"x_min":95,"x_max":1302,"o":"m 1302 127 l 1302 0 l 871 0 l 871 127 l 885 127 q 919 139 905 127 q 933 171 933 151 q 929 188 933 177 l 865 373 l 482 373 l 427 187 q 435 145 419 163 q 476 127 450 127 l 476 0 l 95 0 l 95 127 l 109 127 q 185 153 151 127 q 232 218 218 179 l 605 1389 l 758 1389 l 1169 212 q 1215 150 1183 173 q 1290 127 1248 127 l 1302 127 m 808 540 l 663 966 l 534 540 l 808 540 z "},"Ẳ":{"ha":1397,"x_min":95,"x_max":1302,"o":"m 1302 127 l 1302 0 l 871 0 l 871 127 l 885 127 q 919 139 905 127 q 933 171 933 151 q 929 188 933 177 l 865 373 l 482 373 l 427 187 q 435 145 419 163 q 476 127 450 127 l 476 0 l 95 0 l 95 127 l 109 127 q 185 153 151 127 q 232 218 218 179 l 605 1389 l 758 1389 l 1169 212 q 1215 150 1183 173 q 1290 127 1248 127 l 1302 127 m 808 540 l 663 966 l 534 540 l 808 540 m 643 1702 q 661 1758 647 1736 q 696 1800 675 1780 q 722 1829 714 1817 q 730 1859 730 1841 q 715 1897 730 1885 q 679 1909 700 1909 q 613 1883 643 1909 l 573 1944 q 696 2002 625 2002 q 794 1962 750 2002 q 831 1873 831 1925 q 813 1809 831 1839 q 762 1756 796 1778 q 718 1702 722 1726 l 643 1702 m 683 1484 q 547 1525 613 1484 q 462 1619 480 1565 l 502 1675 q 585 1618 538 1637 q 683 1599 633 1599 q 863 1675 796 1599 l 903 1619 q 815 1525 881 1565 q 683 1484 750 1484 z "},"Ẵ":{"ha":1397,"x_min":95,"x_max":1302,"o":"m 1302 127 l 1302 0 l 871 0 l 871 127 l 885 127 q 919 139 905 127 q 933 171 933 151 q 929 188 933 177 l 865 373 l 482 373 l 427 187 q 435 145 419 163 q 476 127 450 127 l 476 0 l 95 0 l 95 127 l 109 127 q 185 153 151 127 q 232 218 218 179 l 605 1389 l 758 1389 l 1169 212 q 1215 150 1183 173 q 1290 127 1248 127 l 1302 127 m 808 540 l 663 966 l 534 540 l 808 540 z "},"Ǎ":{"ha":1397,"x_min":95,"x_max":1302,"o":"m 1302 127 l 1302 0 l 871 0 l 871 127 l 885 127 q 919 139 905 127 q 933 171 933 151 q 929 188 933 177 l 865 373 l 482 373 l 427 187 q 435 145 419 163 q 476 127 450 127 l 476 0 l 95 0 l 95 127 l 109 127 q 185 153 151 127 q 232 218 218 179 l 605 1389 l 758 1389 l 1169 212 q 1215 150 1183 173 q 1290 127 1248 127 l 1302 127 m 808 540 l 663 966 l 534 540 l 808 540 m 683 1621 l 893 1688 l 893 1599 l 683 1484 l 470 1599 l 470 1688 l 683 1621 z "},"Â":{"ha":1397,"x_min":95,"x_max":1302,"o":"m 1302 127 l 1302 0 l 871 0 l 871 127 l 885 127 q 919 139 905 127 q 933 171 933 151 q 929 188 933 177 l 865 373 l 482 373 l 427 187 q 435 145 419 163 q 476 127 450 127 l 476 0 l 95 0 l 95 127 l 109 127 q 185 153 151 127 q 232 218 218 179 l 605 1389 l 758 1389 l 1169 212 q 1215 150 1183 173 q 1290 127 1248 127 l 1302 127 m 808 540 l 663 966 l 534 540 l 808 540 m 470 1546 l 683 1661 l 893 1546 l 893 1456 l 683 1524 l 470 1456 l 470 1546 z "},"Ấ":{"ha":1397,"x_min":95,"x_max":1302,"o":"m 1302 127 l 1302 0 l 871 0 l 871 127 l 885 127 q 919 139 905 127 q 933 171 933 151 q 929 188 933 177 l 865 373 l 482 373 l 427 187 q 435 145 419 163 q 476 127 450 127 l 476 0 l 95 0 l 95 127 l 109 127 q 185 153 151 127 q 232 218 218 179 l 605 1389 l 758 1389 l 1169 212 q 1215 150 1183 173 q 1290 127 1248 127 l 1302 127 m 808 540 l 663 966 l 534 540 l 808 540 z "},"Ậ":{"ha":1397,"x_min":95,"x_max":1302,"o":"m 1302 127 l 1302 0 l 871 0 l 871 127 l 885 127 q 919 139 905 127 q 933 171 933 151 q 929 188 933 177 l 865 373 l 482 373 l 427 187 q 435 145 419 163 q 476 127 450 127 l 476 0 l 95 0 l 95 127 l 109 127 q 185 153 151 127 q 232 218 218 179 l 605 1389 l 758 1389 l 1169 212 q 1215 150 1183 173 q 1290 127 1248 127 l 1302 127 m 808 540 l 663 966 l 534 540 l 808 540 m 671 -294 q 612 -268 637 -294 q 587 -208 587 -242 q 612 -150 587 -175 q 671 -125 637 -125 q 729 -150 704 -125 q 754 -208 754 -175 q 729 -268 754 -242 q 671 -294 704 -294 m 470 1546 l 683 1661 l 893 1546 l 893 1456 l 683 1524 l 470 1456 l 470 1546 z "},"Ầ":{"ha":1397,"x_min":95,"x_max":1302,"o":"m 1302 127 l 1302 0 l 871 0 l 871 127 l 885 127 q 919 139 905 127 q 933 171 933 151 q 929 188 933 177 l 865 373 l 482 373 l 427 187 q 435 145 419 163 q 476 127 450 127 l 476 0 l 95 0 l 95 127 l 109 127 q 185 153 151 127 q 232 218 218 179 l 605 1389 l 758 1389 l 1169 212 q 1215 150 1183 173 q 1290 127 1248 127 l 1302 127 m 808 540 l 663 966 l 534 540 l 808 540 m 716 1790 l 800 1887 l 1016 1683 l 966 1619 l 716 1790 m 470 1544 l 683 1659 l 893 1544 l 893 1454 l 683 1522 l 470 1454 l 470 1544 z "},"Ẩ":{"ha":1397,"x_min":95,"x_max":1302,"o":"m 1302 127 l 1302 0 l 871 0 l 871 127 l 885 127 q 919 139 905 127 q 933 171 933 151 q 929 188 933 177 l 865 373 l 482 373 l 427 187 q 435 145 419 163 q 476 127 450 127 l 476 0 l 95 0 l 95 127 l 109 127 q 185 153 151 127 q 232 218 218 179 l 605 1389 l 758 1389 l 1169 212 q 1215 150 1183 173 q 1290 127 1248 127 l 1302 127 m 808 540 l 663 966 l 534 540 l 808 540 m 812 1673 q 829 1728 815 1706 q 865 1770 843 1750 q 891 1800 883 1788 q 899 1829 899 1812 q 884 1867 899 1855 q 847 1879 869 1879 q 782 1853 812 1879 l 742 1915 q 865 1972 794 1972 q 962 1933 919 1972 q 1000 1843 1000 1895 q 982 1779 1000 1810 q 931 1726 964 1748 q 887 1673 891 1696 l 812 1673 m 470 1546 l 683 1661 l 893 1546 l 893 1456 l 683 1524 l 470 1456 l 470 1546 z "},"Ẫ":{"ha":1397,"x_min":95,"x_max":1302,"o":"m 1302 127 l 1302 0 l 871 0 l 871 127 l 885 127 q 919 139 905 127 q 933 171 933 151 q 929 188 933 177 l 865 373 l 482 373 l 427 187 q 435 145 419 163 q 476 127 450 127 l 476 0 l 95 0 l 95 127 l 109 127 q 185 153 151 127 q 232 218 218 179 l 605 1389 l 758 1389 l 1169 212 q 1215 150 1183 173 q 1290 127 1248 127 l 1302 127 m 808 540 l 663 966 l 534 540 l 808 540 z "},"Ä":{"ha":1397,"x_min":95,"x_max":1302,"o":"m 1302 127 l 1302 0 l 871 0 l 871 127 l 885 127 q 919 139 905 127 q 933 171 933 151 q 929 188 933 177 l 865 373 l 482 373 l 427 187 q 435 145 419 163 q 476 127 450 127 l 476 0 l 95 0 l 95 127 l 109 127 q 185 153 151 127 q 232 218 218 179 l 605 1389 l 758 1389 l 1169 212 q 1215 150 1183 173 q 1290 127 1248 127 l 1302 127 m 808 540 l 663 966 l 534 540 l 808 540 m 514 1512 q 455 1538 480 1512 q 431 1597 431 1563 q 455 1656 431 1631 q 514 1681 480 1681 q 572 1656 548 1681 q 597 1597 597 1631 q 572 1538 597 1563 q 514 1512 548 1512 m 849 1512 q 791 1538 815 1512 q 766 1597 766 1563 q 791 1656 766 1631 q 849 1681 815 1681 q 908 1656 883 1681 q 933 1597 933 1631 q 908 1538 933 1563 q 849 1512 883 1512 z "},"Ạ":{"ha":1397,"x_min":95,"x_max":1302,"o":"m 1302 127 l 1302 0 l 871 0 l 871 127 l 885 127 q 919 139 905 127 q 933 171 933 151 q 929 188 933 177 l 865 373 l 482 373 l 427 187 q 435 145 419 163 q 476 127 450 127 l 476 0 l 95 0 l 95 127 l 109 127 q 185 153 151 127 q 232 218 218 179 l 605 1389 l 758 1389 l 1169 212 q 1215 150 1183 173 q 1290 127 1248 127 l 1302 127 m 808 540 l 663 966 l 534 540 l 808 540 m 671 -294 q 612 -268 637 -294 q 587 -208 587 -242 q 612 -150 587 -175 q 671 -125 637 -125 q 729 -150 704 -125 q 754 -208 754 -175 q 729 -268 754 -242 q 671 -294 704 -294 z "},"À":{"ha":1397,"x_min":95,"x_max":1302,"o":"m 1302 127 l 1302 0 l 871 0 l 871 127 l 885 127 q 919 139 905 127 q 933 171 933 151 q 929 188 933 177 l 865 373 l 482 373 l 427 187 q 435 145 419 163 q 476 127 450 127 l 476 0 l 95 0 l 95 127 l 109 127 q 185 153 151 127 q 232 218 218 179 l 605 1389 l 758 1389 l 1169 212 q 1215 150 1183 173 q 1290 127 1248 127 l 1302 127 m 808 540 l 663 966 l 534 540 l 808 540 m 534 1633 l 609 1736 l 839 1548 l 794 1480 l 534 1633 z "},"Ả":{"ha":1397,"x_min":95,"x_max":1302,"o":"m 1302 127 l 1302 0 l 871 0 l 871 127 l 885 127 q 919 139 905 127 q 933 171 933 151 q 929 188 933 177 l 865 373 l 482 373 l 427 187 q 435 145 419 163 q 476 127 450 127 l 476 0 l 95 0 l 95 127 l 109 127 q 185 153 151 127 q 232 218 218 179 l 605 1389 l 758 1389 l 1169 212 q 1215 150 1183 173 q 1290 127 1248 127 l 1302 127 m 808 540 l 663 966 l 534 540 l 808 540 m 641 1502 q 659 1559 645 1538 q 696 1603 673 1579 q 724 1635 716 1623 q 732 1665 732 1647 q 730 1683 732 1677 q 679 1718 722 1718 q 642 1711 661 1718 q 611 1690 623 1704 l 569 1754 q 627 1799 593 1784 q 696 1813 661 1813 q 798 1774 758 1813 q 837 1681 837 1734 q 818 1614 837 1647 q 766 1558 800 1581 q 720 1502 726 1530 l 641 1502 z "},"Ā":{"ha":1397,"x_min":95,"x_max":1302,"o":"m 1302 127 l 1302 0 l 871 0 l 871 127 l 885 127 q 919 139 905 127 q 933 171 933 151 q 929 188 933 177 l 865 373 l 482 373 l 427 187 q 435 145 419 163 q 476 127 450 127 l 476 0 l 95 0 l 95 127 l 109 127 q 185 153 151 127 q 232 218 218 179 l 605 1389 l 758 1389 l 1169 212 q 1215 150 1183 173 q 1290 127 1248 127 l 1302 127 m 808 540 l 663 966 l 534 540 l 808 540 m 466 1609 l 897 1609 l 897 1500 l 466 1500 l 466 1609 z "},"Ą":{"ha":1397,"x_min":95,"x_max":1302,"o":"m 1125 0 q 1043 -36 1077 -2 q 1008 -111 1008 -69 q 1026 -161 1008 -143 q 1071 -179 1044 -179 q 1133 -157 1099 -179 l 1167 -202 q 1046 -266 1121 -266 q 951 -229 992 -266 q 911 -133 911 -192 q 988 0 911 -44 l 871 0 l 871 127 l 885 127 q 919 139 905 127 q 933 171 933 151 q 929 188 933 177 l 865 373 l 482 373 l 427 187 q 435 145 419 163 q 476 127 450 127 l 476 0 l 95 0 l 95 127 l 109 127 q 185 153 151 127 q 232 218 218 179 l 605 1389 l 758 1389 l 1169 212 q 1215 150 1183 173 q 1290 127 1248 127 l 1302 127 l 1302 0 l 1125 0 m 808 540 l 663 966 l 534 540 l 808 540 z "},"Å":{"ha":1397,"x_min":95,"x_max":1302,"o":"m 1302 127 l 1302 0 l 871 0 l 871 127 l 885 127 q 919 139 905 127 q 933 171 933 151 q 929 188 933 177 l 865 373 l 482 373 l 427 187 q 435 145 419 163 q 476 127 450 127 l 476 0 l 95 0 l 95 127 l 109 127 q 185 153 151 127 q 232 218 218 179 l 587 1335 q 526 1400 550 1359 q 502 1486 502 1440 q 556 1613 502 1562 q 683 1665 609 1665 q 807 1610 752 1665 q 861 1486 861 1556 q 838 1398 861 1438 q 778 1333 815 1357 l 1169 212 q 1215 150 1183 173 q 1290 127 1248 127 l 1302 127 m 683 1577 q 616 1552 643 1577 q 589 1486 589 1526 q 616 1420 589 1446 q 683 1393 643 1393 q 748 1420 722 1393 q 774 1486 774 1446 q 748 1552 774 1526 q 683 1577 722 1577 m 808 540 l 663 966 l 534 540 l 808 540 z "},"Ã":{"ha":1397,"x_min":95,"x_max":1302,"o":"m 1302 127 l 1302 0 l 871 0 l 871 127 l 885 127 q 919 139 905 127 q 933 171 933 151 q 929 188 933 177 l 865 373 l 482 373 l 427 187 q 435 145 419 163 q 476 127 450 127 l 476 0 l 95 0 l 95 127 l 109 127 q 185 153 151 127 q 232 218 218 179 l 605 1389 l 758 1389 l 1169 212 q 1215 150 1183 173 q 1290 127 1248 127 l 1302 127 m 808 540 l 663 966 l 534 540 l 808 540 m 663 1504 q 554 1532 603 1532 q 476 1506 508 1532 l 464 1587 q 573 1637 496 1637 q 696 1609 635 1637 q 804 1583 760 1583 q 881 1611 849 1583 l 895 1532 q 847 1491 879 1506 q 776 1476 815 1476 q 663 1504 724 1476 z "},"Æ":{"ha":1738,"x_min":89,"x_max":1635,"o":"m 1635 329 l 1635 0 l 772 0 l 772 97 l 806 97 q 839 111 825 97 q 853 145 853 125 l 853 371 l 530 371 l 419 187 q 413 167 413 175 q 428 138 413 149 q 462 127 442 127 l 462 0 l 89 0 l 89 127 l 103 127 q 171 150 143 127 q 226 218 198 173 l 827 1210 q 833 1232 833 1222 q 812 1254 833 1254 l 770 1254 l 770 1389 l 1563 1389 l 1563 1121 l 1446 1121 l 1446 1159 q 1434 1189 1446 1177 q 1403 1202 1421 1202 l 1087 1202 l 1087 881 l 1306 881 q 1341 896 1327 881 q 1355 931 1355 911 l 1355 964 l 1482 964 l 1482 615 l 1355 615 l 1355 653 q 1341 688 1355 675 q 1306 702 1327 702 l 1087 702 l 1087 165 l 1429 165 q 1499 193 1470 165 q 1528 264 1528 222 l 1528 329 l 1635 329 m 853 538 l 853 911 l 629 538 l 853 538 z "},"B":{"ha":1133,"x_min":123,"x_max":1044,"o":"m 790 863 q 974 715 905 825 q 1044 470 1044 605 q 985 239 1044 347 q 817 65 927 131 q 563 0 708 0 l 127 0 l 127 125 l 177 125 q 205 137 192 125 q 218 167 218 149 l 218 1210 q 204 1244 218 1230 q 171 1258 190 1258 l 123 1258 l 123 1389 l 589 1389 q 820 1308 730 1391 q 911 1077 911 1224 q 790 863 911 946 m 450 927 q 540 919 478 917 q 643 958 593 921 q 692 1081 692 996 q 656 1180 692 1137 q 562 1228 619 1222 q 532 1230 552 1230 q 450 1208 486 1230 l 450 927 m 558 151 q 750 235 688 151 q 812 452 812 319 q 745 668 812 591 q 581 762 679 744 q 512 768 544 768 q 452 762 482 768 l 452 179 q 492 159 470 167 q 558 151 514 151 z "},"C":{"ha":1292,"x_min":71,"x_max":1181,"o":"m 738 -50 q 392 46 544 -50 q 156 310 240 141 q 71 690 71 478 q 164 1093 71 925 q 411 1349 256 1262 q 750 1437 565 1437 q 1016 1383 901 1437 q 1069 1367 1056 1367 q 1115 1403 1099 1367 l 1181 1403 l 1181 1032 l 1067 1032 q 1017 1161 1067 1107 q 890 1241 966 1214 q 738 1268 813 1268 q 555 1210 659 1268 q 374 1027 450 1153 q 298 706 298 901 q 361 387 298 520 q 528 187 425 254 q 746 119 631 119 q 969 176 883 119 q 1056 355 1056 232 l 1181 355 l 1181 69 q 962 -23 1069 4 q 738 -50 855 -50 z "},"Ć":{"ha":1292,"x_min":71,"x_max":1181,"o":"m 738 -50 q 392 46 544 -50 q 156 310 240 141 q 71 690 71 478 q 164 1093 71 925 q 411 1349 256 1262 q 750 1437 565 1437 q 1016 1383 901 1437 q 1069 1367 1056 1367 q 1115 1403 1099 1367 l 1181 1403 l 1181 1032 l 1067 1032 q 1017 1161 1067 1107 q 890 1241 966 1214 q 738 1268 813 1268 q 555 1210 659 1268 q 374 1027 450 1153 q 298 706 298 901 q 361 387 298 520 q 528 187 425 254 q 746 119 631 119 q 969 176 883 119 q 1056 355 1056 232 l 1181 355 l 1181 69 q 962 -23 1069 4 q 738 -50 855 -50 m 587 1581 l 817 1770 l 893 1667 l 633 1514 l 587 1581 z "},"Č":{"ha":1292,"x_min":71,"x_max":1181,"o":"m 738 -50 q 392 46 544 -50 q 156 310 240 141 q 71 690 71 478 q 164 1093 71 925 q 411 1349 256 1262 q 750 1437 565 1437 q 1016 1383 901 1437 q 1069 1367 1056 1367 q 1115 1403 1099 1367 l 1181 1403 l 1181 1032 l 1067 1032 q 1017 1161 1067 1107 q 890 1241 966 1214 q 738 1268 813 1268 q 555 1210 659 1268 q 374 1027 450 1153 q 298 706 298 901 q 361 387 298 520 q 528 187 425 254 q 746 119 631 119 q 969 176 883 119 q 1056 355 1056 232 l 1181 355 l 1181 69 q 962 -23 1069 4 q 738 -50 855 -50 m 740 1655 l 950 1722 l 950 1633 l 740 1518 l 528 1633 l 528 1722 l 740 1655 z "},"Ç":{"ha":1292,"x_min":71,"x_max":1181,"o":"m 738 1268 q 555 1210 659 1268 q 374 1027 450 1153 q 298 706 298 901 q 361 387 298 520 q 528 187 425 254 q 746 119 631 119 q 969 176 883 119 q 1056 355 1056 232 l 1181 355 l 1181 69 q 981 -18 1079 10 q 778 -50 883 -46 l 762 -81 q 821 -126 796 -95 q 847 -206 847 -157 q 806 -302 847 -266 q 706 -337 764 -337 q 641 -321 673 -337 q 589 -274 609 -306 l 629 -228 q 688 -252 653 -252 q 727 -241 710 -252 q 746 -212 744 -230 q 721 -154 748 -175 q 643 -133 694 -133 l 685 -48 q 364 64 504 -34 q 148 325 224 163 q 71 690 71 488 q 164 1093 71 925 q 411 1349 256 1262 q 750 1437 565 1437 q 1016 1383 901 1437 q 1069 1367 1056 1367 q 1115 1403 1099 1367 l 1181 1403 l 1181 1032 l 1067 1032 q 1017 1161 1067 1107 q 890 1241 966 1214 q 738 1268 813 1268 z "},"Ċ":{"ha":1292,"x_min":71,"x_max":1181,"o":"m 738 -50 q 392 46 544 -50 q 156 310 240 141 q 71 690 71 478 q 164 1093 71 925 q 411 1349 256 1262 q 750 1437 565 1437 q 1016 1383 901 1437 q 1069 1367 1056 1367 q 1115 1403 1099 1367 l 1181 1403 l 1181 1032 l 1067 1032 q 1017 1161 1067 1107 q 890 1241 966 1214 q 738 1268 813 1268 q 555 1210 659 1268 q 374 1027 450 1153 q 298 706 298 901 q 361 387 298 520 q 528 187 425 254 q 746 119 631 119 q 969 176 883 119 q 1056 355 1056 232 l 1181 355 l 1181 69 q 962 -23 1069 4 q 738 -50 855 -50 m 740 1546 q 682 1571 706 1546 q 657 1631 657 1597 q 682 1689 657 1665 q 740 1714 706 1714 q 799 1689 774 1714 q 823 1631 823 1665 q 799 1571 823 1597 q 740 1546 774 1546 z "},"D":{"ha":1355,"x_min":119,"x_max":1284,"o":"m 978 1276 q 1189 1070 1095 1200 q 1284 704 1284 940 q 1186 323 1284 482 q 939 84 1087 165 q 645 2 792 4 l 437 0 l 119 0 l 119 121 l 163 121 q 199 137 185 121 q 214 175 214 153 l 214 1218 q 200 1254 214 1240 q 165 1268 187 1268 l 131 1268 l 131 1389 l 530 1389 q 797 1361 702 1389 q 978 1276 891 1333 m 554 169 q 779 218 665 169 q 973 388 893 268 q 1054 704 1054 508 q 971 1002 1054 883 q 772 1177 889 1121 q 554 1232 655 1232 l 437 1232 l 437 169 l 554 169 z "},"Ð":{"ha":1355,"x_min":115,"x_max":1284,"o":"m 978 1276 q 1189 1070 1095 1200 q 1284 704 1284 940 q 1186 323 1284 482 q 939 84 1087 165 q 645 2 792 4 l 437 0 l 119 0 l 119 121 l 163 121 q 199 137 185 121 q 214 175 214 153 l 214 681 l 115 681 l 115 863 l 214 863 l 214 1218 q 200 1254 214 1240 q 165 1268 187 1268 l 131 1268 l 131 1389 l 530 1389 q 797 1361 702 1389 q 978 1276 891 1333 m 554 169 q 779 218 665 169 q 973 388 893 268 q 1054 704 1054 508 q 971 1002 1054 883 q 772 1177 889 1121 q 554 1232 655 1232 l 437 1232 l 437 863 l 690 863 l 690 681 l 437 681 l 437 169 l 554 169 z "},"Ď":{"ha":1355,"x_min":119,"x_max":1284,"o":"m 978 1276 q 1189 1070 1095 1200 q 1284 704 1284 940 q 1186 323 1284 482 q 939 84 1087 165 q 645 2 792 4 l 437 0 l 119 0 l 119 121 l 163 121 q 199 137 185 121 q 214 175 214 153 l 214 1218 q 200 1254 214 1240 q 165 1268 187 1268 l 131 1268 l 131 1389 l 530 1389 q 797 1361 702 1389 q 978 1276 891 1333 m 554 169 q 779 218 665 169 q 973 388 893 268 q 1054 704 1054 508 q 971 1002 1054 883 q 772 1177 889 1121 q 554 1232 655 1232 l 437 1232 l 437 169 l 554 169 m 657 1621 l 867 1688 l 867 1599 l 657 1484 l 444 1599 l 444 1688 l 657 1621 z "},"Đ":{"ha":1355,"x_min":115,"x_max":1284,"o":"m 978 1276 q 1189 1070 1095 1200 q 1284 704 1284 940 q 1186 323 1284 482 q 939 84 1087 165 q 645 2 792 4 l 437 0 l 119 0 l 119 121 l 163 121 q 199 137 185 121 q 214 175 214 153 l 214 681 l 115 681 l 115 863 l 214 863 l 214 1218 q 200 1254 214 1240 q 165 1268 187 1268 l 131 1268 l 131 1389 l 530 1389 q 797 1361 702 1389 q 978 1276 891 1333 m 554 169 q 779 218 665 169 q 973 388 893 268 q 1054 704 1054 508 q 971 1002 1054 883 q 772 1177 889 1121 q 554 1232 655 1232 l 437 1232 l 437 863 l 690 863 l 690 681 l 437 681 l 437 169 l 554 169 z "},"E":{"ha":1087,"x_min":119,"x_max":984,"o":"m 984 329 l 984 0 l 121 0 l 121 97 l 155 97 q 188 111 175 97 q 202 145 202 125 l 202 1210 q 190 1241 202 1228 q 161 1254 179 1254 l 119 1254 l 119 1389 l 913 1389 l 913 1121 l 796 1121 l 796 1159 q 783 1189 796 1177 q 752 1202 770 1202 l 437 1202 l 437 881 l 655 881 q 690 896 677 881 q 704 931 704 911 l 704 964 l 831 964 l 831 615 l 704 615 l 704 653 q 690 688 704 675 q 655 702 677 702 l 437 702 l 437 165 l 778 165 q 848 193 819 165 q 877 264 877 222 l 877 329 l 984 329 z "},"É":{"ha":1087,"x_min":119,"x_max":984,"o":"m 984 329 l 984 0 l 121 0 l 121 97 l 155 97 q 188 111 175 97 q 202 145 202 125 l 202 1210 q 190 1241 202 1228 q 161 1254 179 1254 l 119 1254 l 119 1389 l 913 1389 l 913 1121 l 796 1121 l 796 1159 q 783 1189 796 1177 q 752 1202 770 1202 l 437 1202 l 437 881 l 655 881 q 690 896 677 881 q 704 931 704 911 l 704 964 l 831 964 l 831 615 l 704 615 l 704 653 q 690 688 704 675 q 655 702 677 702 l 437 702 l 437 165 l 778 165 q 848 193 819 165 q 877 264 877 222 l 877 329 l 984 329 m 383 1548 l 613 1736 l 688 1633 l 429 1480 l 383 1548 z "},"Ě":{"ha":1087,"x_min":119,"x_max":984,"o":"m 984 329 l 984 0 l 121 0 l 121 97 l 155 97 q 188 111 175 97 q 202 145 202 125 l 202 1210 q 190 1241 202 1228 q 161 1254 179 1254 l 119 1254 l 119 1389 l 913 1389 l 913 1121 l 796 1121 l 796 1159 q 783 1189 796 1177 q 752 1202 770 1202 l 437 1202 l 437 881 l 655 881 q 690 896 677 881 q 704 931 704 911 l 704 964 l 831 964 l 831 615 l 704 615 l 704 653 q 690 688 704 675 q 655 702 677 702 l 437 702 l 437 165 l 778 165 q 848 193 819 165 q 877 264 877 222 l 877 329 l 984 329 m 536 1621 l 746 1688 l 746 1599 l 536 1484 l 323 1599 l 323 1688 l 536 1621 z "},"Ê":{"ha":1087,"x_min":119,"x_max":984,"o":"m 984 329 l 984 0 l 121 0 l 121 97 l 155 97 q 188 111 175 97 q 202 145 202 125 l 202 1210 q 190 1241 202 1228 q 161 1254 179 1254 l 119 1254 l 119 1389 l 913 1389 l 913 1121 l 796 1121 l 796 1159 q 783 1189 796 1177 q 752 1202 770 1202 l 437 1202 l 437 881 l 655 881 q 690 896 677 881 q 704 931 704 911 l 704 964 l 831 964 l 831 615 l 704 615 l 704 653 q 690 688 704 675 q 655 702 677 702 l 437 702 l 437 165 l 778 165 q 848 193 819 165 q 877 264 877 222 l 877 329 l 984 329 m 323 1573 l 536 1688 l 746 1573 l 746 1484 l 536 1552 l 323 1484 l 323 1573 z "},"Ế":{"ha":1087,"x_min":119,"x_max":986,"o":"m 984 329 l 984 0 l 121 0 l 121 97 l 155 97 q 188 111 175 97 q 202 145 202 125 l 202 1210 q 190 1241 202 1228 q 161 1254 179 1254 l 119 1254 l 119 1389 l 913 1389 l 913 1121 l 796 1121 l 796 1159 q 783 1189 796 1177 q 752 1202 770 1202 l 437 1202 l 437 881 l 655 881 q 690 896 677 881 q 704 931 704 911 l 704 964 l 831 964 l 831 615 l 704 615 l 704 653 q 690 688 704 675 q 655 702 677 702 l 437 702 l 437 165 l 778 165 q 848 193 819 165 q 877 264 877 222 l 877 329 l 984 329 z "},"Ệ":{"ha":1087,"x_min":119,"x_max":984,"o":"m 984 329 l 984 0 l 121 0 l 121 97 l 155 97 q 188 111 175 97 q 202 145 202 125 l 202 1210 q 190 1241 202 1228 q 161 1254 179 1254 l 119 1254 l 119 1389 l 913 1389 l 913 1121 l 796 1121 l 796 1159 q 783 1189 796 1177 q 752 1202 770 1202 l 437 1202 l 437 881 l 655 881 q 690 896 677 881 q 704 931 704 911 l 704 964 l 831 964 l 831 615 l 704 615 l 704 653 q 690 688 704 675 q 655 702 677 702 l 437 702 l 437 165 l 778 165 q 848 193 819 165 q 877 264 877 222 l 877 329 l 984 329 m 569 -294 q 511 -268 536 -294 q 486 -208 486 -242 q 511 -150 486 -175 q 569 -125 536 -125 q 628 -150 603 -125 q 653 -208 653 -175 q 628 -268 653 -242 q 569 -294 603 -294 m 323 1573 l 536 1688 l 746 1573 l 746 1484 l 536 1552 l 323 1484 l 323 1573 z "},"Ề":{"ha":1087,"x_min":119,"x_max":984,"o":"m 984 329 l 984 0 l 121 0 l 121 97 l 155 97 q 188 111 175 97 q 202 145 202 125 l 202 1210 q 190 1241 202 1228 q 161 1254 179 1254 l 119 1254 l 119 1389 l 913 1389 l 913 1121 l 796 1121 l 796 1159 q 783 1189 796 1177 q 752 1202 770 1202 l 437 1202 l 437 881 l 655 881 q 690 896 677 881 q 704 931 704 911 l 704 964 l 831 964 l 831 615 l 704 615 l 704 653 q 690 688 704 675 q 655 702 677 702 l 437 702 l 437 165 l 778 165 q 848 193 819 165 q 877 264 877 222 l 877 329 l 984 329 m 569 1817 l 653 1915 l 869 1710 l 819 1647 l 569 1817 m 323 1571 l 536 1687 l 746 1571 l 746 1482 l 536 1550 l 323 1482 l 323 1571 z "},"Ể":{"ha":1087,"x_min":119,"x_max":984,"o":"m 984 329 l 984 0 l 121 0 l 121 97 l 155 97 q 188 111 175 97 q 202 145 202 125 l 202 1210 q 190 1241 202 1228 q 161 1254 179 1254 l 119 1254 l 119 1389 l 913 1389 l 913 1121 l 796 1121 l 796 1159 q 783 1189 796 1177 q 752 1202 770 1202 l 437 1202 l 437 881 l 655 881 q 690 896 677 881 q 704 931 704 911 l 704 964 l 831 964 l 831 615 l 704 615 l 704 653 q 690 688 704 675 q 655 702 677 702 l 437 702 l 437 165 l 778 165 q 848 193 819 165 q 877 264 877 222 l 877 329 l 984 329 m 665 1700 q 683 1756 669 1734 q 718 1798 696 1778 q 744 1827 736 1815 q 752 1857 752 1839 q 737 1895 752 1883 q 700 1907 722 1907 q 635 1881 665 1907 l 595 1942 q 718 2000 647 2000 q 815 1960 772 2000 q 853 1871 853 1923 q 835 1807 853 1837 q 784 1754 817 1776 q 740 1700 744 1724 l 665 1700 m 323 1573 l 536 1688 l 746 1573 l 746 1484 l 536 1552 l 323 1484 l 323 1573 z "},"Ễ":{"ha":1087,"x_min":119,"x_max":984,"o":"m 984 329 l 984 0 l 121 0 l 121 97 l 155 97 q 188 111 175 97 q 202 145 202 125 l 202 1210 q 190 1241 202 1228 q 161 1254 179 1254 l 119 1254 l 119 1389 l 913 1389 l 913 1121 l 796 1121 l 796 1159 q 783 1189 796 1177 q 752 1202 770 1202 l 437 1202 l 437 881 l 655 881 q 690 896 677 881 q 704 931 704 911 l 704 964 l 831 964 l 831 615 l 704 615 l 704 653 q 690 688 704 675 q 655 702 677 702 l 437 702 l 437 165 l 778 165 q 848 193 819 165 q 877 264 877 222 l 877 329 l 984 329 z "},"Ë":{"ha":1087,"x_min":119,"x_max":984,"o":"m 984 329 l 984 0 l 121 0 l 121 97 l 155 97 q 188 111 175 97 q 202 145 202 125 l 202 1210 q 190 1241 202 1228 q 161 1254 179 1254 l 119 1254 l 119 1389 l 913 1389 l 913 1121 l 796 1121 l 796 1159 q 783 1189 796 1177 q 752 1202 770 1202 l 437 1202 l 437 881 l 655 881 q 690 896 677 881 q 704 931 704 911 l 704 964 l 831 964 l 831 615 l 704 615 l 704 653 q 690 688 704 675 q 655 702 677 702 l 437 702 l 437 165 l 778 165 q 848 193 819 165 q 877 264 877 222 l 877 329 l 984 329 m 367 1512 q 309 1538 333 1512 q 284 1597 284 1563 q 309 1656 284 1631 q 367 1681 333 1681 q 426 1656 401 1681 q 450 1597 450 1631 q 426 1538 450 1563 q 367 1512 401 1512 m 702 1512 q 644 1538 669 1512 q 619 1597 619 1563 q 644 1656 619 1631 q 702 1681 669 1681 q 761 1656 736 1681 q 786 1597 786 1631 q 761 1538 786 1563 q 702 1512 736 1512 z "},"Ė":{"ha":1087,"x_min":119,"x_max":984,"o":"m 984 329 l 984 0 l 121 0 l 121 97 l 155 97 q 188 111 175 97 q 202 145 202 125 l 202 1210 q 190 1241 202 1228 q 161 1254 179 1254 l 119 1254 l 119 1389 l 913 1389 l 913 1121 l 796 1121 l 796 1159 q 783 1189 796 1177 q 752 1202 770 1202 l 437 1202 l 437 881 l 655 881 q 690 896 677 881 q 704 931 704 911 l 704 964 l 831 964 l 831 615 l 704 615 l 704 653 q 690 688 704 675 q 655 702 677 702 l 437 702 l 437 165 l 778 165 q 848 193 819 165 q 877 264 877 222 l 877 329 l 984 329 m 536 1512 q 477 1538 502 1512 q 452 1597 452 1563 q 477 1656 452 1631 q 536 1681 502 1681 q 594 1656 569 1681 q 619 1597 619 1631 q 594 1538 619 1563 q 536 1512 569 1512 z "},"Ẹ":{"ha":1087,"x_min":119,"x_max":984,"o":"m 984 329 l 984 0 l 121 0 l 121 97 l 155 97 q 188 111 175 97 q 202 145 202 125 l 202 1210 q 190 1241 202 1228 q 161 1254 179 1254 l 119 1254 l 119 1389 l 913 1389 l 913 1121 l 796 1121 l 796 1159 q 783 1189 796 1177 q 752 1202 770 1202 l 437 1202 l 437 881 l 655 881 q 690 896 677 881 q 704 931 704 911 l 704 964 l 831 964 l 831 615 l 704 615 l 704 653 q 690 688 704 675 q 655 702 677 702 l 437 702 l 437 165 l 778 165 q 848 193 819 165 q 877 264 877 222 l 877 329 l 984 329 m 569 -294 q 511 -268 536 -294 q 486 -208 486 -242 q 511 -150 486 -175 q 569 -125 536 -125 q 628 -150 603 -125 q 653 -208 653 -175 q 628 -268 653 -242 q 569 -294 603 -294 z "},"È":{"ha":1087,"x_min":119,"x_max":984,"o":"m 984 329 l 984 0 l 121 0 l 121 97 l 155 97 q 188 111 175 97 q 202 145 202 125 l 202 1210 q 190 1241 202 1228 q 161 1254 179 1254 l 119 1254 l 119 1389 l 913 1389 l 913 1121 l 796 1121 l 796 1159 q 783 1189 796 1177 q 752 1202 770 1202 l 437 1202 l 437 881 l 655 881 q 690 896 677 881 q 704 931 704 911 l 704 964 l 831 964 l 831 615 l 704 615 l 704 653 q 690 688 704 675 q 655 702 677 702 l 437 702 l 437 165 l 778 165 q 848 193 819 165 q 877 264 877 222 l 877 329 l 984 329 m 387 1633 l 462 1736 l 692 1548 l 647 1480 l 387 1633 z "},"Ẻ":{"ha":1087,"x_min":119,"x_max":984,"o":"m 984 329 l 984 0 l 121 0 l 121 97 l 155 97 q 188 111 175 97 q 202 145 202 125 l 202 1210 q 190 1241 202 1228 q 161 1254 179 1254 l 119 1254 l 119 1389 l 913 1389 l 913 1121 l 796 1121 l 796 1159 q 783 1189 796 1177 q 752 1202 770 1202 l 437 1202 l 437 881 l 655 881 q 690 896 677 881 q 704 931 704 911 l 704 964 l 831 964 l 831 615 l 704 615 l 704 653 q 690 688 704 675 q 655 702 677 702 l 437 702 l 437 165 l 778 165 q 848 193 819 165 q 877 264 877 222 l 877 329 l 984 329 m 494 1502 q 512 1559 498 1538 q 550 1603 526 1579 q 577 1635 569 1623 q 585 1665 585 1647 q 583 1683 585 1677 q 532 1718 575 1718 q 495 1711 514 1718 q 464 1690 476 1704 l 423 1754 q 480 1799 446 1784 q 550 1813 514 1813 q 651 1774 611 1813 q 690 1681 690 1734 q 672 1614 690 1647 q 619 1558 653 1581 q 573 1502 579 1530 l 494 1502 z "},"Ē":{"ha":1087,"x_min":119,"x_max":984,"o":"m 984 329 l 984 0 l 121 0 l 121 97 l 155 97 q 188 111 175 97 q 202 145 202 125 l 202 1210 q 190 1241 202 1228 q 161 1254 179 1254 l 119 1254 l 119 1389 l 913 1389 l 913 1121 l 796 1121 l 796 1159 q 783 1189 796 1177 q 752 1202 770 1202 l 437 1202 l 437 881 l 655 881 q 690 896 677 881 q 704 931 704 911 l 704 964 l 831 964 l 831 615 l 704 615 l 704 653 q 690 688 704 675 q 655 702 677 702 l 437 702 l 437 165 l 778 165 q 848 193 819 165 q 877 264 877 222 l 877 329 l 984 329 m 319 1609 l 750 1609 l 750 1500 l 319 1500 l 319 1609 z "},"Ę":{"ha":1087,"x_min":119,"x_max":984,"o":"m 653 0 q 570 -36 605 -2 q 536 -111 536 -69 q 554 -161 536 -143 q 599 -179 571 -179 q 661 -157 627 -179 l 694 -202 q 573 -266 649 -266 q 479 -229 520 -266 q 438 -133 438 -192 q 516 0 438 -44 l 121 0 l 121 97 l 155 97 q 188 111 175 97 q 202 145 202 125 l 202 1210 q 190 1241 202 1228 q 161 1254 179 1254 l 119 1254 l 119 1389 l 913 1389 l 913 1121 l 796 1121 l 796 1159 q 783 1189 796 1177 q 752 1202 770 1202 l 437 1202 l 437 881 l 655 881 q 690 896 677 881 q 704 931 704 911 l 704 964 l 831 964 l 831 615 l 704 615 l 704 653 q 690 688 704 675 q 655 702 677 702 l 437 702 l 437 165 l 778 165 q 848 193 819 165 q 877 264 877 222 l 877 329 l 984 329 l 984 0 l 653 0 z "},"Ẽ":{"ha":1087,"x_min":119,"x_max":984,"o":"m 984 329 l 984 0 l 121 0 l 121 97 l 155 97 q 188 111 175 97 q 202 145 202 125 l 202 1210 q 190 1241 202 1228 q 161 1254 179 1254 l 119 1254 l 119 1389 l 913 1389 l 913 1121 l 796 1121 l 796 1159 q 783 1189 796 1177 q 752 1202 770 1202 l 437 1202 l 437 881 l 655 881 q 690 896 677 881 q 704 931 704 911 l 704 964 l 831 964 l 831 615 l 704 615 l 704 653 q 690 688 704 675 q 655 702 677 702 l 437 702 l 437 165 l 778 165 q 848 193 819 165 q 877 264 877 222 l 877 329 l 984 329 m 516 1504 q 407 1532 456 1532 q 329 1506 361 1532 l 317 1587 q 427 1637 349 1637 q 550 1609 488 1637 q 657 1583 613 1583 q 734 1611 702 1583 l 748 1532 q 700 1491 732 1506 q 629 1476 669 1476 q 516 1504 577 1476 z "},"F":{"ha":1012,"x_min":119,"x_max":913,"o":"m 796 1105 l 796 1161 q 784 1191 796 1179 q 754 1204 772 1204 l 437 1204 l 437 873 l 657 873 q 690 887 677 873 q 704 921 704 901 l 704 962 l 831 962 l 831 607 l 704 607 l 704 643 q 690 678 704 663 q 657 692 677 692 l 437 692 l 437 177 q 455 132 437 151 q 500 113 474 113 l 520 113 l 520 0 l 121 0 l 121 113 l 147 113 q 187 129 171 113 q 202 169 202 145 l 202 1216 q 189 1249 202 1236 q 159 1262 177 1262 l 119 1262 l 119 1389 l 913 1389 l 913 1105 l 796 1105 z "},"G":{"ha":1419,"x_min":71,"x_max":1343,"o":"m 746 -42 q 409 57 563 -42 q 163 326 254 155 q 71 708 71 498 q 167 1098 71 935 q 414 1346 262 1262 q 730 1431 565 1431 q 898 1415 833 1431 q 1028 1375 962 1399 q 1063 1369 1044 1369 q 1127 1440 1127 1369 l 1204 1440 l 1204 1048 l 1060 1048 q 1008 1154 1054 1101 q 891 1240 962 1206 q 740 1274 819 1274 q 538 1217 635 1274 q 377 1035 440 1161 q 313 710 313 909 q 377 386 313 516 q 541 192 440 256 q 754 125 641 129 q 1030 216 940 119 l 1026 472 q 1010 510 1026 494 q 972 526 994 526 l 921 526 l 921 647 l 1343 647 l 1343 526 l 1306 526 q 1268 510 1284 526 q 1252 472 1252 494 l 1252 222 q 1262 188 1252 200 q 1283 172 1272 177 q 1298 165 1294 167 q 1053 7 1196 56 q 746 -42 909 -42 z "},"Ğ":{"ha":1419,"x_min":71,"x_max":1343,"o":"m 746 -42 q 409 57 563 -42 q 163 326 254 155 q 71 708 71 498 q 167 1098 71 935 q 414 1346 262 1262 q 730 1431 565 1431 q 898 1415 833 1431 q 1028 1375 962 1399 q 1063 1369 1044 1369 q 1127 1440 1127 1369 l 1204 1440 l 1204 1048 l 1060 1048 q 1008 1154 1054 1101 q 891 1240 962 1206 q 740 1274 819 1274 q 538 1217 635 1274 q 377 1035 440 1161 q 313 710 313 909 q 377 386 313 516 q 541 192 440 256 q 754 125 641 129 q 1030 216 940 119 l 1026 472 q 1010 510 1026 494 q 972 526 994 526 l 921 526 l 921 647 l 1343 647 l 1343 526 l 1306 526 q 1268 510 1284 526 q 1252 472 1252 494 l 1252 222 q 1262 188 1252 200 q 1283 172 1272 177 q 1298 165 1294 167 q 1053 7 1196 56 q 746 -42 909 -42 m 746 1518 q 610 1559 677 1518 q 526 1653 544 1599 l 565 1708 q 649 1652 601 1671 q 746 1633 696 1633 q 927 1708 859 1633 l 966 1653 q 879 1559 944 1599 q 746 1518 813 1518 z "},"Ģ":{"ha":1419,"x_min":71,"x_max":1343,"o":"m 746 -42 q 409 57 563 -42 q 163 326 254 155 q 71 708 71 498 q 167 1098 71 935 q 414 1346 262 1262 q 730 1431 565 1431 q 898 1415 833 1431 q 1028 1375 962 1399 q 1063 1369 1044 1369 q 1127 1440 1127 1369 l 1204 1440 l 1204 1048 l 1060 1048 q 1008 1154 1054 1101 q 891 1240 962 1206 q 740 1274 819 1274 q 538 1217 635 1274 q 377 1035 440 1161 q 313 710 313 909 q 377 386 313 516 q 541 192 440 256 q 754 125 641 129 q 1030 216 940 119 l 1026 472 q 1010 510 1026 494 q 972 526 994 526 l 921 526 l 921 647 l 1343 647 l 1343 526 l 1306 526 q 1268 510 1284 526 q 1252 472 1252 494 l 1252 222 q 1262 188 1252 200 q 1283 172 1272 177 q 1298 165 1294 167 q 1053 7 1196 56 q 746 -42 909 -42 m 609 -427 q 605 -421 607 -425 q 601 -415 603 -417 q 659 -336 631 -381 q 692 -264 687 -292 q 677 -224 677 -248 q 693 -180 677 -198 q 736 -161 710 -161 q 779 -177 762 -159 q 800 -220 796 -194 q 742 -343 804 -284 q 609 -427 681 -403 z "},"Ġ":{"ha":1419,"x_min":71,"x_max":1343,"o":"m 746 -42 q 409 57 563 -42 q 163 326 254 155 q 71 708 71 498 q 167 1098 71 935 q 414 1346 262 1262 q 730 1431 565 1431 q 898 1415 833 1431 q 1028 1375 962 1399 q 1063 1369 1044 1369 q 1127 1440 1127 1369 l 1204 1440 l 1204 1048 l 1060 1048 q 1008 1154 1054 1101 q 891 1240 962 1206 q 740 1274 819 1274 q 538 1217 635 1274 q 377 1035 440 1161 q 313 710 313 909 q 377 386 313 516 q 541 192 440 256 q 754 125 641 129 q 1030 216 940 119 l 1026 472 q 1010 510 1026 494 q 972 526 994 526 l 921 526 l 921 647 l 1343 647 l 1343 526 l 1306 526 q 1268 510 1284 526 q 1252 472 1252 494 l 1252 222 q 1262 188 1252 200 q 1283 172 1272 177 q 1298 165 1294 167 q 1053 7 1196 56 q 746 -42 909 -42 m 746 1546 q 688 1571 712 1546 q 663 1631 663 1597 q 688 1689 663 1665 q 746 1714 712 1714 q 805 1689 780 1714 q 829 1631 829 1665 q 805 1571 829 1597 q 746 1546 780 1546 z "},"H":{"ha":1405,"x_min":119,"x_max":1286,"o":"m 1238 1266 q 1200 1250 1216 1266 q 1185 1212 1185 1234 l 1185 181 q 1200 143 1185 159 q 1238 127 1216 127 l 1282 127 l 1282 -2 l 861 -2 l 861 127 l 905 127 q 942 143 927 127 q 958 181 958 159 l 958 740 l 446 740 l 446 181 q 462 143 446 159 q 500 127 478 127 l 544 127 l 544 -2 l 123 -2 l 123 127 l 167 127 q 205 143 188 127 q 222 181 222 159 l 222 1212 q 205 1250 222 1234 q 167 1266 188 1266 l 119 1266 l 119 1389 l 548 1389 l 548 1266 l 500 1266 q 462 1250 478 1266 q 446 1212 446 1234 l 446 923 l 958 923 l 958 1212 q 942 1250 958 1234 q 905 1266 927 1266 l 857 1266 l 857 1389 l 1286 1389 l 1286 1266 l 1238 1266 z "},"Ħ":{"ha":1405,"x_min":119,"x_max":1286,"o":"m 1238 1266 q 1200 1250 1216 1266 q 1185 1212 1185 1234 l 1185 1171 l 1262 1171 l 1262 1016 l 1185 1016 l 1185 181 q 1200 143 1185 159 q 1238 127 1216 127 l 1282 127 l 1282 -2 l 861 -2 l 861 127 l 905 127 q 942 143 927 127 q 958 181 958 159 l 958 740 l 446 740 l 446 181 q 462 143 446 159 q 500 127 478 127 l 544 127 l 544 -2 l 123 -2 l 123 127 l 167 127 q 205 143 188 127 q 222 181 222 159 l 222 1016 l 143 1016 l 143 1171 l 222 1171 l 222 1212 q 205 1250 222 1234 q 167 1266 188 1266 l 119 1266 l 119 1389 l 548 1389 l 548 1266 l 500 1266 q 462 1250 478 1266 q 446 1212 446 1234 l 446 1171 l 958 1171 l 958 1212 q 942 1250 958 1234 q 905 1266 927 1266 l 857 1266 l 857 1389 l 1286 1389 l 1286 1266 l 1238 1266 m 958 1016 l 446 1016 l 446 923 l 958 923 l 958 1016 z "},"I":{"ha":706,"x_min":139,"x_max":567,"o":"m 143 131 l 187 131 q 224 147 208 131 q 240 185 240 163 l 240 1212 q 224 1250 240 1234 q 187 1266 208 1266 l 139 1266 l 139 1389 l 567 1389 l 567 1266 l 520 1266 q 482 1250 498 1266 q 466 1212 466 1234 l 466 185 q 482 147 466 163 q 520 131 498 131 l 563 131 l 563 0 l 143 0 l 143 131 z "},"Í":{"ha":706,"x_min":139,"x_max":567,"o":"m 143 131 l 187 131 q 224 147 208 131 q 240 185 240 163 l 240 1212 q 224 1250 240 1234 q 187 1266 208 1266 l 139 1266 l 139 1389 l 567 1389 l 567 1266 l 520 1266 q 482 1250 498 1266 q 466 1212 466 1234 l 466 185 q 482 147 466 163 q 520 131 498 131 l 563 131 l 563 0 l 143 0 l 143 131 m 200 1548 l 431 1736 l 506 1633 l 246 1480 l 200 1548 z "},"Ǐ":{"ha":706,"x_min":139,"x_max":567,"o":"m 143 131 l 187 131 q 224 147 208 131 q 240 185 240 163 l 240 1212 q 224 1250 240 1234 q 187 1266 208 1266 l 139 1266 l 139 1389 l 567 1389 l 567 1266 l 520 1266 q 482 1250 498 1266 q 466 1212 466 1234 l 466 185 q 482 147 466 163 q 520 131 498 131 l 563 131 l 563 0 l 143 0 l 143 131 m 353 1621 l 563 1688 l 563 1599 l 353 1484 l 141 1599 l 141 1688 l 353 1621 z "},"Î":{"ha":706,"x_min":139,"x_max":567,"o":"m 143 131 l 187 131 q 224 147 208 131 q 240 185 240 163 l 240 1212 q 224 1250 240 1234 q 187 1266 208 1266 l 139 1266 l 139 1389 l 567 1389 l 567 1266 l 520 1266 q 482 1250 498 1266 q 466 1212 466 1234 l 466 185 q 482 147 466 163 q 520 131 498 131 l 563 131 l 563 0 l 143 0 l 143 131 m 141 1573 l 353 1688 l 563 1573 l 563 1484 l 353 1552 l 141 1484 l 141 1573 z "},"Ï":{"ha":706,"x_min":101,"x_max":603,"o":"m 143 131 l 187 131 q 224 147 208 131 q 240 185 240 163 l 240 1212 q 224 1250 240 1234 q 187 1266 208 1266 l 139 1266 l 139 1389 l 567 1389 l 567 1266 l 520 1266 q 482 1250 498 1266 q 466 1212 466 1234 l 466 185 q 482 147 466 163 q 520 131 498 131 l 563 131 l 563 0 l 143 0 l 143 131 m 185 1512 q 126 1538 151 1512 q 101 1597 101 1563 q 126 1656 101 1631 q 185 1681 151 1681 q 243 1656 218 1681 q 268 1597 268 1631 q 243 1538 268 1563 q 185 1512 218 1512 m 520 1512 q 461 1538 486 1512 q 437 1597 437 1563 q 461 1656 437 1631 q 520 1681 486 1681 q 578 1656 554 1681 q 603 1597 603 1631 q 578 1538 603 1563 q 520 1512 554 1512 z "},"İ":{"ha":706,"x_min":139,"x_max":567,"o":"m 143 131 l 187 131 q 224 147 208 131 q 240 185 240 163 l 240 1212 q 224 1250 240 1234 q 187 1266 208 1266 l 139 1266 l 139 1389 l 567 1389 l 567 1266 l 520 1266 q 482 1250 498 1266 q 466 1212 466 1234 l 466 185 q 482 147 466 163 q 520 131 498 131 l 563 131 l 563 0 l 143 0 l 143 131 m 353 1512 q 295 1538 319 1512 q 270 1597 270 1563 q 295 1656 270 1631 q 353 1681 319 1681 q 412 1656 387 1681 q 437 1597 437 1631 q 412 1538 437 1563 q 353 1512 387 1512 z "},"Ị":{"ha":706,"x_min":139,"x_max":567,"o":"m 143 131 l 187 131 q 224 147 208 131 q 240 185 240 163 l 240 1212 q 224 1250 240 1234 q 187 1266 208 1266 l 139 1266 l 139 1389 l 567 1389 l 567 1266 l 520 1266 q 482 1250 498 1266 q 466 1212 466 1234 l 466 185 q 482 147 466 163 q 520 131 498 131 l 563 131 l 563 0 l 143 0 l 143 131 m 353 -294 q 295 -268 319 -294 q 270 -208 270 -242 q 295 -150 270 -175 q 353 -125 319 -125 q 412 -150 387 -125 q 437 -208 437 -175 q 412 -268 437 -242 q 353 -294 387 -294 z "},"Ì":{"ha":706,"x_min":139,"x_max":567,"o":"m 143 131 l 187 131 q 224 147 208 131 q 240 185 240 163 l 240 1212 q 224 1250 240 1234 q 187 1266 208 1266 l 139 1266 l 139 1389 l 567 1389 l 567 1266 l 520 1266 q 482 1250 498 1266 q 466 1212 466 1234 l 466 185 q 482 147 466 163 q 520 131 498 131 l 563 131 l 563 0 l 143 0 l 143 131 m 204 1633 l 280 1736 l 510 1548 l 464 1480 l 204 1633 z "},"Ỉ":{"ha":706,"x_min":139,"x_max":567,"o":"m 143 131 l 187 131 q 224 147 208 131 q 240 185 240 163 l 240 1212 q 224 1250 240 1234 q 187 1266 208 1266 l 139 1266 l 139 1389 l 567 1389 l 567 1266 l 520 1266 q 482 1250 498 1266 q 466 1212 466 1234 l 466 185 q 482 147 466 163 q 520 131 498 131 l 563 131 l 563 0 l 143 0 l 143 131 m 312 1502 q 329 1559 315 1538 q 367 1603 343 1579 q 395 1635 387 1623 q 403 1665 403 1647 q 401 1683 403 1677 q 349 1718 393 1718 q 313 1711 331 1718 q 282 1690 294 1704 l 240 1754 q 298 1799 264 1784 q 367 1813 331 1813 q 468 1774 429 1813 q 508 1681 508 1734 q 489 1614 508 1647 q 437 1558 470 1581 q 391 1502 397 1530 l 312 1502 z "},"Ī":{"ha":706,"x_min":137,"x_max":567,"o":"m 143 131 l 187 131 q 224 147 208 131 q 240 185 240 163 l 240 1212 q 224 1250 240 1234 q 187 1266 208 1266 l 139 1266 l 139 1389 l 567 1389 l 567 1266 l 520 1266 q 482 1250 498 1266 q 466 1212 466 1234 l 466 185 q 482 147 466 163 q 520 131 498 131 l 563 131 l 563 0 l 143 0 l 143 131 m 137 1609 l 567 1609 l 567 1500 l 137 1500 l 137 1609 z "},"Į":{"ha":706,"x_min":139,"x_max":567,"o":"m 520 1266 q 482 1250 498 1266 q 466 1212 466 1234 l 466 185 q 482 147 466 163 q 520 131 498 131 l 563 131 l 563 0 l 437 0 q 354 -36 389 -2 q 319 -111 319 -69 q 337 -161 319 -143 q 383 -179 355 -179 q 444 -157 411 -179 l 478 -202 q 357 -266 433 -266 q 263 -229 304 -266 q 222 -133 222 -192 q 300 0 222 -44 l 143 0 l 143 131 l 187 131 q 224 147 208 131 q 240 185 240 163 l 240 1212 q 224 1250 240 1234 q 187 1266 208 1266 l 139 1266 l 139 1389 l 567 1389 l 567 1266 l 520 1266 z "},"Ĩ":{"ha":706,"x_min":139,"x_max":567,"o":"m 335 1504 q 232 1532 280 1532 q 157 1506 185 1532 l 147 1587 q 252 1637 175 1637 q 367 1609 310 1637 q 468 1583 427 1583 q 542 1611 510 1583 l 556 1532 q 512 1491 542 1506 q 442 1476 482 1476 q 335 1504 395 1476 m 143 131 l 187 131 q 224 147 208 131 q 240 185 240 163 l 240 1212 q 224 1250 240 1234 q 187 1266 208 1266 l 139 1266 l 139 1389 l 567 1389 l 567 1266 l 520 1266 q 482 1250 498 1266 q 466 1212 466 1234 l 466 185 q 482 147 466 163 q 520 131 498 131 l 563 131 l 563 0 l 143 0 l 143 131 z "},"J":{"ha":1024,"x_min":71,"x_max":909,"o":"m 407 -65 q 214 -26 294 -65 q 145 -6 175 -6 q 93 -34 109 -6 l 71 -34 l 71 296 l 188 296 q 241 166 194 222 q 387 109 288 109 q 593 403 593 109 l 595 1220 q 582 1253 595 1240 q 552 1266 569 1266 l 500 1266 l 500 1389 l 909 1389 l 909 1266 l 861 1266 q 829 1253 843 1266 q 815 1222 815 1240 l 815 379 q 771 165 815 266 q 634 -1 726 63 q 407 -65 542 -65 z "},"K":{"ha":1323,"x_min":119,"x_max":1224,"o":"m 1224 129 l 1224 0 l 764 0 l 764 129 l 792 129 q 807 139 802 129 q 804 157 812 149 l 444 528 l 444 183 q 460 145 444 161 q 498 129 476 129 l 544 129 l 544 0 l 121 0 l 121 129 l 167 129 q 204 145 188 129 q 220 183 220 161 l 220 1212 q 204 1250 220 1234 q 167 1266 188 1266 l 119 1266 l 119 1389 l 546 1389 l 546 1266 l 498 1266 q 460 1250 476 1266 q 444 1212 444 1234 l 444 869 l 766 1242 q 770 1254 770 1246 q 766 1265 770 1260 q 754 1270 762 1270 l 736 1270 l 736 1389 l 1103 1389 l 1103 1270 l 1089 1270 q 980 1218 1022 1270 l 567 732 l 1083 187 q 1218 129 1137 129 l 1224 129 z "},"Ķ":{"ha":1323,"x_min":119,"x_max":1224,"o":"m 1224 129 l 1224 0 l 764 0 l 764 129 l 792 129 q 807 139 802 129 q 804 157 812 149 l 444 528 l 444 183 q 460 145 444 161 q 498 129 476 129 l 544 129 l 544 0 l 121 0 l 121 129 l 167 129 q 204 145 188 129 q 220 183 220 161 l 220 1212 q 204 1250 220 1234 q 167 1266 188 1266 l 119 1266 l 119 1389 l 546 1389 l 546 1266 l 498 1266 q 460 1250 476 1266 q 444 1212 444 1234 l 444 869 l 766 1242 q 770 1254 770 1246 q 766 1265 770 1260 q 754 1270 762 1270 l 736 1270 l 736 1389 l 1103 1389 l 1103 1270 l 1089 1270 q 980 1218 1022 1270 l 567 732 l 1083 187 q 1218 129 1137 129 l 1224 129 m 524 -395 q 520 -389 522 -393 q 516 -383 518 -385 q 573 -305 546 -349 q 607 -232 601 -260 q 591 -192 591 -216 q 608 -148 591 -167 q 651 -129 625 -129 q 693 -145 677 -127 q 714 -188 710 -163 q 657 -312 718 -252 q 524 -395 595 -371 z "},"L":{"ha":1075,"x_min":119,"x_max":1008,"o":"m 1008 321 l 1008 0 l 119 0 l 119 123 l 161 123 q 204 140 187 123 q 222 183 222 157 l 222 1220 q 208 1256 222 1242 q 173 1270 194 1270 l 123 1270 l 123 1389 l 560 1389 l 560 1270 l 504 1270 q 469 1256 484 1270 q 454 1220 454 1242 l 454 173 l 827 173 q 876 192 855 173 q 897 240 897 212 l 897 321 l 1008 321 z "},"Ĺ":{"ha":1075,"x_min":119,"x_max":1008,"o":"m 1008 321 l 1008 0 l 119 0 l 119 123 l 161 123 q 204 140 187 123 q 222 183 222 157 l 222 1220 q 208 1256 222 1242 q 173 1270 194 1270 l 123 1270 l 123 1389 l 560 1389 l 560 1270 l 504 1270 q 469 1256 484 1270 q 454 1220 454 1242 l 454 173 l 827 173 q 876 192 855 173 q 897 240 897 212 l 897 321 l 1008 321 m 403 1548 l 633 1736 l 708 1633 l 448 1480 l 403 1548 z "},"Ľ":{"ha":1075,"x_min":119,"x_max":1008,"o":"m 1008 321 l 1008 0 l 119 0 l 119 123 l 161 123 q 204 140 187 123 q 222 183 222 157 l 222 1220 q 208 1256 222 1242 q 173 1270 194 1270 l 123 1270 l 123 1389 l 560 1389 l 560 1270 l 504 1270 q 469 1256 484 1270 q 454 1220 454 1242 l 454 173 l 827 173 q 876 192 855 173 q 897 240 897 212 l 897 321 l 1008 321 m 786 1177 q 831 1261 810 1212 q 855 1337 853 1310 q 841 1352 847 1341 q 833 1375 835 1363 q 846 1425 829 1403 q 893 1446 863 1446 q 938 1425 921 1446 q 954 1373 954 1403 q 904 1254 954 1313 q 794 1165 853 1194 l 786 1177 z "},"Ļ":{"ha":1075,"x_min":119,"x_max":1008,"o":"m 1008 321 l 1008 0 l 119 0 l 119 123 l 161 123 q 204 140 187 123 q 222 183 222 157 l 222 1220 q 208 1256 222 1242 q 173 1270 194 1270 l 123 1270 l 123 1389 l 560 1389 l 560 1270 l 504 1270 q 469 1256 484 1270 q 454 1220 454 1242 l 454 173 l 827 173 q 876 192 855 173 q 897 240 897 212 l 897 321 l 1008 321 m 437 -395 q 433 -389 435 -393 q 429 -383 431 -385 q 486 -305 458 -349 q 520 -232 514 -260 q 504 -192 504 -216 q 521 -148 504 -167 q 563 -129 538 -129 q 606 -145 589 -127 q 627 -188 623 -163 q 569 -312 631 -252 q 437 -395 508 -371 z "},"Ł":{"ha":1075,"x_min":119,"x_max":1008,"o":"m 1008 321 l 1008 0 l 119 0 l 119 123 l 161 123 q 204 140 187 123 q 222 183 222 157 l 222 637 l 121 589 l 121 728 l 222 776 l 222 1220 q 208 1256 222 1242 q 173 1270 194 1270 l 123 1270 l 123 1389 l 560 1389 l 560 1270 l 504 1270 q 469 1256 484 1270 q 454 1220 454 1242 l 454 885 l 554 933 l 554 794 l 454 746 l 454 173 l 827 173 q 876 192 855 173 q 897 240 897 212 l 897 321 l 1008 321 z "},"M":{"ha":1611,"x_min":107,"x_max":1504,"o":"m 1411 208 q 1440 149 1413 173 q 1504 125 1468 125 l 1504 0 l 1093 0 l 1093 125 l 1117 125 q 1168 148 1147 125 q 1187 200 1188 171 l 1125 815 l 837 -4 l 726 -4 l 433 823 l 383 200 q 401 147 381 169 q 450 125 421 125 l 464 125 l 464 0 l 107 0 l 107 125 l 125 125 q 188 150 161 125 q 216 210 214 175 l 296 1173 q 272 1239 298 1210 q 206 1268 246 1268 l 185 1268 l 185 1389 l 480 1389 l 813 438 l 1141 1389 l 1421 1389 l 1421 1268 l 1407 1268 q 1341 1239 1367 1268 q 1319 1173 1315 1210 l 1411 208 z "},"N":{"ha":1427,"x_min":115,"x_max":1315,"o":"m 1315 1389 l 1315 1268 l 1266 1268 q 1232 1254 1246 1268 q 1218 1220 1218 1240 l 1218 -48 l 1075 -48 l 403 944 l 403 173 q 417 139 403 153 q 450 125 431 125 l 486 125 l 486 0 l 137 0 l 137 125 l 181 125 q 214 139 200 125 q 228 173 228 153 l 228 1218 q 214 1252 228 1238 q 181 1266 200 1266 l 115 1266 l 115 1389 l 373 1389 l 1030 444 l 1030 1220 q 1016 1254 1030 1240 q 982 1268 1002 1268 l 944 1268 l 944 1389 l 1315 1389 z "},"Ń":{"ha":1427,"x_min":115,"x_max":1315,"o":"m 1315 1389 l 1315 1268 l 1266 1268 q 1232 1254 1246 1268 q 1218 1220 1218 1240 l 1218 -48 l 1075 -48 l 403 944 l 403 173 q 417 139 403 153 q 450 125 431 125 l 486 125 l 486 0 l 137 0 l 137 125 l 181 125 q 214 139 200 125 q 228 173 228 153 l 228 1218 q 214 1252 228 1238 q 181 1266 200 1266 l 115 1266 l 115 1389 l 373 1389 l 1030 444 l 1030 1220 q 1016 1254 1030 1240 q 982 1268 1002 1268 l 944 1268 l 944 1389 l 1315 1389 m 524 1548 l 754 1736 l 829 1633 l 569 1480 l 524 1548 z "},"Ň":{"ha":1427,"x_min":115,"x_max":1315,"o":"m 1315 1389 l 1315 1268 l 1266 1268 q 1232 1254 1246 1268 q 1218 1220 1218 1240 l 1218 -48 l 1075 -48 l 403 944 l 403 173 q 417 139 403 153 q 450 125 431 125 l 486 125 l 486 0 l 137 0 l 137 125 l 181 125 q 214 139 200 125 q 228 173 228 153 l 228 1218 q 214 1252 228 1238 q 181 1266 200 1266 l 115 1266 l 115 1389 l 373 1389 l 1030 444 l 1030 1220 q 1016 1254 1030 1240 q 982 1268 1002 1268 l 944 1268 l 944 1389 l 1315 1389 m 677 1621 l 887 1688 l 887 1599 l 677 1484 l 464 1599 l 464 1688 l 677 1621 z "},"Ņ":{"ha":1427,"x_min":115,"x_max":1315,"o":"m 1315 1389 l 1315 1268 l 1266 1268 q 1232 1254 1246 1268 q 1218 1220 1218 1240 l 1218 -48 l 1075 -48 l 403 944 l 403 173 q 417 139 403 153 q 450 125 431 125 l 486 125 l 486 0 l 137 0 l 137 125 l 181 125 q 214 139 200 125 q 228 173 228 153 l 228 1218 q 214 1252 228 1238 q 181 1266 200 1266 l 115 1266 l 115 1389 l 373 1389 l 1030 444 l 1030 1220 q 1016 1254 1030 1240 q 982 1268 1002 1268 l 944 1268 l 944 1389 l 1315 1389 m 611 -395 q 607 -389 609 -393 q 603 -383 605 -385 q 661 -305 633 -349 q 694 -232 688 -260 q 679 -192 679 -216 q 695 -148 679 -167 q 738 -129 712 -129 q 781 -145 764 -127 q 802 -188 798 -163 q 744 -312 806 -252 q 611 -395 683 -371 z "},"Ñ":{"ha":1427,"x_min":115,"x_max":1315,"o":"m 1315 1389 l 1315 1268 l 1266 1268 q 1232 1254 1246 1268 q 1218 1220 1218 1240 l 1218 -48 l 1075 -48 l 403 944 l 403 173 q 417 139 403 153 q 450 125 431 125 l 486 125 l 486 0 l 137 0 l 137 125 l 181 125 q 214 139 200 125 q 228 173 228 153 l 228 1218 q 214 1252 228 1238 q 181 1266 200 1266 l 115 1266 l 115 1389 l 373 1389 l 1030 444 l 1030 1220 q 1016 1254 1030 1240 q 982 1268 1002 1268 l 944 1268 l 944 1389 l 1315 1389 m 657 1504 q 548 1532 597 1532 q 470 1506 502 1532 l 458 1587 q 567 1637 490 1637 q 690 1609 629 1637 q 798 1583 754 1583 q 875 1611 843 1583 l 889 1532 q 841 1491 873 1506 q 770 1476 810 1476 q 657 1504 718 1476 z "},"O":{"ha":1387,"x_min":71,"x_max":1315,"o":"m 692 -36 q 389 57 532 -36 q 159 314 246 149 q 71 690 71 480 q 159 1067 71 901 q 389 1326 246 1234 q 692 1419 532 1419 q 997 1326 853 1419 q 1228 1067 1141 1234 q 1315 690 1315 901 q 1228 314 1315 480 q 997 57 1141 149 q 692 -36 853 -36 m 692 121 q 886 185 798 121 q 1029 377 974 248 q 1083 692 1083 506 q 1029 1008 1083 879 q 886 1200 974 1137 q 692 1264 798 1264 q 501 1200 589 1264 q 358 1008 413 1137 q 304 692 304 879 q 358 377 304 506 q 501 185 413 248 q 692 121 589 121 z "},"Ó":{"ha":1387,"x_min":71,"x_max":1315,"o":"m 692 -36 q 389 57 532 -36 q 159 314 246 149 q 71 690 71 480 q 159 1067 71 901 q 389 1326 246 1234 q 692 1419 532 1419 q 997 1326 853 1419 q 1228 1067 1141 1234 q 1315 690 1315 901 q 1228 314 1315 480 q 997 57 1141 149 q 692 -36 853 -36 m 692 121 q 886 185 798 121 q 1029 377 974 248 q 1083 692 1083 506 q 1029 1008 1083 879 q 886 1200 974 1137 q 692 1264 798 1264 q 501 1200 589 1264 q 358 1008 413 1137 q 304 692 304 879 q 358 377 304 506 q 501 185 413 248 q 692 121 589 121 m 540 1569 l 770 1758 l 845 1655 l 585 1502 l 540 1569 z "},"Ǒ":{"ha":1387,"x_min":71,"x_max":1315,"o":"m 692 -36 q 389 57 532 -36 q 159 314 246 149 q 71 690 71 480 q 159 1067 71 901 q 389 1326 246 1234 q 692 1419 532 1419 q 997 1326 853 1419 q 1228 1067 1141 1234 q 1315 690 1315 901 q 1228 314 1315 480 q 997 57 1141 149 q 692 -36 853 -36 m 692 121 q 886 185 798 121 q 1029 377 974 248 q 1083 692 1083 506 q 1029 1008 1083 879 q 886 1200 974 1137 q 692 1264 798 1264 q 501 1200 589 1264 q 358 1008 413 1137 q 304 692 304 879 q 358 377 304 506 q 501 185 413 248 q 692 121 589 121 m 692 1643 l 903 1710 l 903 1621 l 692 1506 l 480 1621 l 480 1710 l 692 1643 z "},"Ô":{"ha":1387,"x_min":71,"x_max":1315,"o":"m 692 -36 q 389 57 532 -36 q 159 314 246 149 q 71 690 71 480 q 159 1067 71 901 q 389 1326 246 1234 q 692 1419 532 1419 q 997 1326 853 1419 q 1228 1067 1141 1234 q 1315 690 1315 901 q 1228 314 1315 480 q 997 57 1141 149 q 692 -36 853 -36 m 692 121 q 886 185 798 121 q 1029 377 974 248 q 1083 692 1083 506 q 1029 1008 1083 879 q 886 1200 974 1137 q 692 1264 798 1264 q 501 1200 589 1264 q 358 1008 413 1137 q 304 692 304 879 q 358 377 304 506 q 501 185 413 248 q 692 121 589 121 m 480 1595 l 692 1710 l 903 1595 l 903 1506 l 692 1573 l 480 1506 l 480 1595 z "},"Ố":{"ha":1387,"x_min":71,"x_max":1315,"o":"m 692 -36 q 389 57 532 -36 q 159 314 246 149 q 71 690 71 480 q 159 1067 71 901 q 389 1326 246 1234 q 692 1419 532 1419 q 997 1326 853 1419 q 1228 1067 1141 1234 q 1315 690 1315 901 q 1228 314 1315 480 q 997 57 1141 149 q 692 -36 853 -36 m 692 121 q 886 185 798 121 q 1029 377 974 248 q 1083 692 1083 506 q 1029 1008 1083 879 q 886 1200 974 1137 q 692 1264 798 1264 q 501 1200 589 1264 q 358 1008 413 1137 q 304 692 304 879 q 358 377 304 506 q 501 185 413 248 q 692 121 589 121 z "},"Ộ":{"ha":1387,"x_min":71,"x_max":1315,"o":"m 692 -36 q 389 57 532 -36 q 159 314 246 149 q 71 690 71 480 q 159 1067 71 901 q 389 1326 246 1234 q 692 1419 532 1419 q 997 1326 853 1419 q 1228 1067 1141 1234 q 1315 690 1315 901 q 1228 314 1315 480 q 997 57 1141 149 q 692 -36 853 -36 m 692 121 q 886 185 798 121 q 1029 377 974 248 q 1083 692 1083 506 q 1029 1008 1083 879 q 886 1200 974 1137 q 692 1264 798 1264 q 501 1200 589 1264 q 358 1008 413 1137 q 304 692 304 879 q 358 377 304 506 q 501 185 413 248 q 692 121 589 121 m 694 -317 q 636 -292 661 -317 q 611 -232 611 -266 q 636 -174 611 -198 q 694 -149 661 -149 q 753 -174 728 -149 q 778 -232 778 -198 q 753 -292 778 -266 q 694 -317 728 -317 m 480 1595 l 692 1710 l 903 1595 l 903 1506 l 692 1573 l 480 1506 l 480 1595 z "},"Ồ":{"ha":1387,"x_min":71,"x_max":1315,"o":"m 692 -36 q 389 57 532 -36 q 159 314 246 149 q 71 690 71 480 q 159 1067 71 901 q 389 1326 246 1234 q 692 1419 532 1419 q 997 1326 853 1419 q 1228 1067 1141 1234 q 1315 690 1315 901 q 1228 314 1315 480 q 997 57 1141 149 q 692 -36 853 -36 m 692 121 q 886 185 798 121 q 1029 377 974 248 q 1083 692 1083 506 q 1029 1008 1083 879 q 886 1200 974 1137 q 692 1264 798 1264 q 501 1200 589 1264 q 358 1008 413 1137 q 304 692 304 879 q 358 377 304 506 q 501 185 413 248 q 692 121 589 121 m 726 1839 l 810 1937 l 1026 1732 l 976 1669 l 726 1839 m 480 1593 l 692 1708 l 903 1593 l 903 1504 l 692 1571 l 480 1504 l 480 1593 z "},"Ổ":{"ha":1387,"x_min":71,"x_max":1315,"o":"m 692 -36 q 389 57 532 -36 q 159 314 246 149 q 71 690 71 480 q 159 1067 71 901 q 389 1326 246 1234 q 692 1419 532 1419 q 997 1326 853 1419 q 1228 1067 1141 1234 q 1315 690 1315 901 q 1228 314 1315 480 q 997 57 1141 149 q 692 -36 853 -36 m 692 121 q 886 185 798 121 q 1029 377 974 248 q 1083 692 1083 506 q 1029 1008 1083 879 q 886 1200 974 1137 q 692 1264 798 1264 q 501 1200 589 1264 q 358 1008 413 1137 q 304 692 304 879 q 358 377 304 506 q 501 185 413 248 q 692 121 589 121 m 821 1722 q 839 1778 825 1756 q 875 1819 853 1800 q 901 1849 893 1837 q 909 1879 909 1861 q 894 1917 909 1905 q 857 1929 879 1929 q 792 1903 821 1929 l 752 1964 q 875 2022 804 2022 q 972 1982 929 2022 q 1010 1893 1010 1944 q 992 1828 1010 1859 q 940 1776 974 1798 q 897 1722 901 1746 l 821 1722 m 480 1595 l 692 1710 l 903 1595 l 903 1506 l 692 1573 l 480 1506 l 480 1595 z "},"Ỗ":{"ha":1387,"x_min":71,"x_max":1315,"o":"m 692 -36 q 389 57 532 -36 q 159 314 246 149 q 71 690 71 480 q 159 1067 71 901 q 389 1326 246 1234 q 692 1419 532 1419 q 997 1326 853 1419 q 1228 1067 1141 1234 q 1315 690 1315 901 q 1228 314 1315 480 q 997 57 1141 149 q 692 -36 853 -36 m 692 121 q 886 185 798 121 q 1029 377 974 248 q 1083 692 1083 506 q 1029 1008 1083 879 q 886 1200 974 1137 q 692 1264 798 1264 q 501 1200 589 1264 q 358 1008 413 1137 q 304 692 304 879 q 358 377 304 506 q 501 185 413 248 q 692 121 589 121 z "},"Ö":{"ha":1387,"x_min":71,"x_max":1315,"o":"m 692 -36 q 389 57 532 -36 q 159 314 246 149 q 71 690 71 480 q 159 1067 71 901 q 389 1326 246 1234 q 692 1419 532 1419 q 997 1326 853 1419 q 1228 1067 1141 1234 q 1315 690 1315 901 q 1228 314 1315 480 q 997 57 1141 149 q 692 -36 853 -36 m 692 121 q 886 185 798 121 q 1029 377 974 248 q 1083 692 1083 506 q 1029 1008 1083 879 q 886 1200 974 1137 q 692 1264 798 1264 q 501 1200 589 1264 q 358 1008 413 1137 q 304 692 304 879 q 358 377 304 506 q 501 185 413 248 q 692 121 589 121 m 524 1534 q 465 1560 490 1534 q 440 1619 440 1585 q 465 1678 440 1653 q 524 1702 490 1702 q 582 1678 558 1702 q 607 1619 607 1653 q 582 1560 607 1585 q 524 1534 558 1534 m 859 1534 q 801 1560 825 1534 q 776 1619 776 1585 q 801 1678 776 1653 q 859 1702 825 1702 q 918 1678 893 1702 q 942 1619 942 1653 q 918 1560 942 1585 q 859 1534 893 1534 z "},"Ọ":{"ha":1387,"x_min":71,"x_max":1315,"o":"m 692 -36 q 389 57 532 -36 q 159 314 246 149 q 71 690 71 480 q 159 1067 71 901 q 389 1326 246 1234 q 692 1419 532 1419 q 997 1326 853 1419 q 1228 1067 1141 1234 q 1315 690 1315 901 q 1228 314 1315 480 q 997 57 1141 149 q 692 -36 853 -36 m 692 121 q 886 185 798 121 q 1029 377 974 248 q 1083 692 1083 506 q 1029 1008 1083 879 q 886 1200 974 1137 q 692 1264 798 1264 q 501 1200 589 1264 q 358 1008 413 1137 q 304 692 304 879 q 358 377 304 506 q 501 185 413 248 q 692 121 589 121 m 694 -317 q 636 -292 661 -317 q 611 -232 611 -266 q 636 -174 611 -198 q 694 -149 661 -149 q 753 -174 728 -149 q 778 -232 778 -198 q 753 -292 778 -266 q 694 -317 728 -317 z "},"Ò":{"ha":1387,"x_min":71,"x_max":1315,"o":"m 692 -36 q 389 57 532 -36 q 159 314 246 149 q 71 690 71 480 q 159 1067 71 901 q 389 1326 246 1234 q 692 1419 532 1419 q 997 1326 853 1419 q 1228 1067 1141 1234 q 1315 690 1315 901 q 1228 314 1315 480 q 997 57 1141 149 q 692 -36 853 -36 m 692 121 q 886 185 798 121 q 1029 377 974 248 q 1083 692 1083 506 q 1029 1008 1083 879 q 886 1200 974 1137 q 692 1264 798 1264 q 501 1200 589 1264 q 358 1008 413 1137 q 304 692 304 879 q 358 377 304 506 q 501 185 413 248 q 692 121 589 121 m 544 1655 l 619 1758 l 849 1569 l 804 1502 l 544 1655 z "},"Ỏ":{"ha":1387,"x_min":71,"x_max":1315,"o":"m 692 -36 q 389 57 532 -36 q 159 314 246 149 q 71 690 71 480 q 159 1067 71 901 q 389 1326 246 1234 q 692 1419 532 1419 q 997 1326 853 1419 q 1228 1067 1141 1234 q 1315 690 1315 901 q 1228 314 1315 480 q 997 57 1141 149 q 692 -36 853 -36 m 692 121 q 886 185 798 121 q 1029 377 974 248 q 1083 692 1083 506 q 1029 1008 1083 879 q 886 1200 974 1137 q 692 1264 798 1264 q 501 1200 589 1264 q 358 1008 413 1137 q 304 692 304 879 q 358 377 304 506 q 501 185 413 248 q 692 121 589 121 m 651 1524 q 669 1580 655 1560 q 706 1625 683 1601 q 734 1657 726 1645 q 742 1687 742 1669 q 740 1704 742 1698 q 688 1740 732 1740 q 652 1733 671 1740 q 621 1712 633 1726 l 579 1776 q 637 1820 603 1806 q 706 1835 671 1835 q 808 1796 768 1835 q 847 1702 847 1756 q 828 1636 847 1669 q 776 1579 810 1603 q 730 1524 736 1552 l 651 1524 z "},"Ơ":{"ha":1387,"x_min":71,"x_max":1315,"o":"m 1115 1228 q 1262 991 1208 1129 q 1315 690 1315 853 q 1228 314 1315 480 q 997 57 1141 149 q 692 -36 853 -36 q 389 57 532 -36 q 159 314 246 149 q 71 690 71 480 q 159 1067 71 901 q 389 1326 246 1234 q 692 1419 532 1419 q 996 1327 855 1419 q 1089 1355 1060 1337 q 1097 1383 1089 1367 q 1117 1409 1105 1399 q 1181 1433 1143 1433 q 1244 1405 1216 1433 q 1266 1349 1266 1383 q 1238 1282 1266 1310 q 1115 1228 1194 1238 m 692 121 q 886 185 798 121 q 1029 377 974 248 q 1083 692 1083 506 q 1029 1008 1083 879 q 886 1200 974 1137 q 692 1264 798 1264 q 501 1200 589 1264 q 358 1008 413 1137 q 304 692 304 879 q 358 377 304 506 q 501 185 413 248 q 692 121 589 121 z "},"Ớ":{"ha":1387,"x_min":71,"x_max":1315,"o":"m 1115 1228 q 1262 991 1208 1129 q 1315 690 1315 853 q 1228 314 1315 480 q 997 57 1141 149 q 692 -36 853 -36 q 389 57 532 -36 q 159 314 246 149 q 71 690 71 480 q 159 1067 71 901 q 389 1326 246 1234 q 692 1419 532 1419 q 996 1327 855 1419 q 1089 1355 1060 1337 q 1097 1383 1089 1367 q 1117 1409 1105 1399 q 1181 1433 1143 1433 q 1244 1405 1216 1433 q 1266 1349 1266 1383 q 1238 1282 1266 1310 q 1115 1228 1194 1238 m 692 121 q 886 185 798 121 q 1029 377 974 248 q 1083 692 1083 506 q 1029 1008 1083 879 q 886 1200 974 1137 q 692 1264 798 1264 q 501 1200 589 1264 q 358 1008 413 1137 q 304 692 304 879 q 358 377 304 506 q 501 185 413 248 q 692 121 589 121 m 540 1569 l 770 1758 l 845 1655 l 585 1502 l 540 1569 z "},"Ợ":{"ha":1387,"x_min":71,"x_max":1315,"o":"m 1115 1228 q 1262 991 1208 1129 q 1315 690 1315 853 q 1228 314 1315 480 q 997 57 1141 149 q 692 -36 853 -36 q 389 57 532 -36 q 159 314 246 149 q 71 690 71 480 q 159 1067 71 901 q 389 1326 246 1234 q 692 1419 532 1419 q 996 1327 855 1419 q 1089 1355 1060 1337 q 1097 1383 1089 1367 q 1117 1409 1105 1399 q 1181 1433 1143 1433 q 1244 1405 1216 1433 q 1266 1349 1266 1383 q 1238 1282 1266 1310 q 1115 1228 1194 1238 m 692 121 q 886 185 798 121 q 1029 377 974 248 q 1083 692 1083 506 q 1029 1008 1083 879 q 886 1200 974 1137 q 692 1264 798 1264 q 501 1200 589 1264 q 358 1008 413 1137 q 304 692 304 879 q 358 377 304 506 q 501 185 413 248 q 692 121 589 121 m 694 -317 q 636 -292 661 -317 q 611 -232 611 -266 q 636 -174 611 -198 q 694 -149 661 -149 q 753 -174 728 -149 q 778 -232 778 -198 q 753 -292 778 -266 q 694 -317 728 -317 z "},"Ờ":{"ha":1387,"x_min":71,"x_max":1315,"o":"m 1115 1228 q 1262 991 1208 1129 q 1315 690 1315 853 q 1228 314 1315 480 q 997 57 1141 149 q 692 -36 853 -36 q 389 57 532 -36 q 159 314 246 149 q 71 690 71 480 q 159 1067 71 901 q 389 1326 246 1234 q 692 1419 532 1419 q 996 1327 855 1419 q 1089 1355 1060 1337 q 1097 1383 1089 1367 q 1117 1409 1105 1399 q 1181 1433 1143 1433 q 1244 1405 1216 1433 q 1266 1349 1266 1383 q 1238 1282 1266 1310 q 1115 1228 1194 1238 m 692 121 q 886 185 798 121 q 1029 377 974 248 q 1083 692 1083 506 q 1029 1008 1083 879 q 886 1200 974 1137 q 692 1264 798 1264 q 501 1200 589 1264 q 358 1008 413 1137 q 304 692 304 879 q 358 377 304 506 q 501 185 413 248 q 692 121 589 121 m 544 1655 l 619 1758 l 849 1569 l 804 1502 l 544 1655 z "},"Ở":{"ha":1387,"x_min":71,"x_max":1315,"o":"m 1115 1228 q 1262 991 1208 1129 q 1315 690 1315 853 q 1228 314 1315 480 q 997 57 1141 149 q 692 -36 853 -36 q 389 57 532 -36 q 159 314 246 149 q 71 690 71 480 q 159 1067 71 901 q 389 1326 246 1234 q 692 1419 532 1419 q 996 1327 855 1419 q 1089 1355 1060 1337 q 1097 1383 1089 1367 q 1117 1409 1105 1399 q 1181 1433 1143 1433 q 1244 1405 1216 1433 q 1266 1349 1266 1383 q 1238 1282 1266 1310 q 1115 1228 1194 1238 m 692 121 q 886 185 798 121 q 1029 377 974 248 q 1083 692 1083 506 q 1029 1008 1083 879 q 886 1200 974 1137 q 692 1264 798 1264 q 501 1200 589 1264 q 358 1008 413 1137 q 304 692 304 879 q 358 377 304 506 q 501 185 413 248 q 692 121 589 121 m 651 1524 q 669 1580 655 1560 q 706 1625 683 1601 q 734 1657 726 1645 q 742 1687 742 1669 q 740 1704 742 1698 q 688 1740 732 1740 q 652 1733 671 1740 q 621 1712 633 1726 l 579 1776 q 637 1820 603 1806 q 706 1835 671 1835 q 808 1796 768 1835 q 847 1702 847 1756 q 828 1636 847 1669 q 776 1579 810 1603 q 730 1524 736 1552 l 651 1524 z "},"Ỡ":{"ha":1387,"x_min":71,"x_max":1315,"o":"m 673 1526 q 569 1554 617 1554 q 494 1528 522 1554 l 482 1609 q 589 1659 514 1659 q 706 1631 649 1659 q 808 1605 766 1605 q 883 1633 851 1605 l 897 1554 q 851 1513 881 1528 q 782 1498 821 1498 q 673 1526 732 1498 m 1115 1228 q 1262 991 1208 1129 q 1315 690 1315 853 q 1228 314 1315 480 q 997 57 1141 149 q 692 -36 853 -36 q 389 57 532 -36 q 159 314 246 149 q 71 690 71 480 q 159 1067 71 901 q 389 1326 246 1234 q 692 1419 532 1419 q 996 1327 855 1419 q 1089 1355 1060 1337 q 1097 1383 1089 1367 q 1117 1409 1105 1399 q 1181 1433 1143 1433 q 1244 1405 1216 1433 q 1266 1349 1266 1383 q 1238 1282 1266 1310 q 1115 1228 1194 1238 m 692 121 q 886 185 798 121 q 1029 377 974 248 q 1083 692 1083 506 q 1029 1008 1083 879 q 886 1200 974 1137 q 692 1264 798 1264 q 501 1200 589 1264 q 358 1008 413 1137 q 304 692 304 879 q 358 377 304 506 q 501 185 413 248 q 692 121 589 121 z "},"Ő":{"ha":1387,"x_min":71,"x_max":1315,"o":"m 692 -36 q 389 57 532 -36 q 159 314 246 149 q 71 690 71 480 q 159 1067 71 901 q 389 1326 246 1234 q 692 1419 532 1419 q 997 1326 853 1419 q 1228 1067 1141 1234 q 1315 690 1315 901 q 1228 314 1315 480 q 997 57 1141 149 q 692 -36 853 -36 m 692 121 q 886 185 798 121 q 1029 377 974 248 q 1083 692 1083 506 q 1029 1008 1083 879 q 886 1200 974 1137 q 692 1264 798 1264 q 501 1200 589 1264 q 358 1008 413 1137 q 304 692 304 879 q 358 377 304 506 q 501 185 413 248 q 692 121 589 121 z "},"Ō":{"ha":1387,"x_min":71,"x_max":1315,"o":"m 692 -36 q 389 57 532 -36 q 159 314 246 149 q 71 690 71 480 q 159 1067 71 901 q 389 1326 246 1234 q 692 1419 532 1419 q 997 1326 853 1419 q 1228 1067 1141 1234 q 1315 690 1315 901 q 1228 314 1315 480 q 997 57 1141 149 q 692 -36 853 -36 m 692 121 q 886 185 798 121 q 1029 377 974 248 q 1083 692 1083 506 q 1029 1008 1083 879 q 886 1200 974 1137 q 692 1264 798 1264 q 501 1200 589 1264 q 358 1008 413 1137 q 304 692 304 879 q 358 377 304 506 q 501 185 413 248 q 692 121 589 121 m 476 1631 l 907 1631 l 907 1522 l 476 1522 l 476 1631 z "},"Ø":{"ha":1387,"x_min":71,"x_max":1315,"o":"m 1060 1280 q 1246 1029 1177 1181 q 1315 690 1315 877 q 1228 314 1315 480 q 997 57 1141 149 q 692 -36 853 -36 q 494 2 595 -36 l 476 -38 l 266 -38 l 327 101 q 141 352 210 200 q 71 690 71 504 q 159 1067 71 901 q 389 1326 246 1234 q 692 1419 532 1419 q 895 1379 794 1419 l 913 1421 l 1123 1421 l 1060 1280 m 304 692 q 409 282 304 437 l 829 1234 q 692 1264 764 1264 q 501 1200 589 1264 q 358 1008 413 1137 q 304 692 304 879 m 692 121 q 886 185 798 121 q 1029 377 974 248 q 1083 692 1083 506 q 980 1099 1083 948 l 560 151 q 692 121 623 121 z "},"Õ":{"ha":1387,"x_min":71,"x_max":1315,"o":"m 692 -36 q 389 57 532 -36 q 159 314 246 149 q 71 690 71 480 q 159 1067 71 901 q 389 1326 246 1234 q 692 1419 532 1419 q 997 1326 853 1419 q 1228 1067 1141 1234 q 1315 690 1315 901 q 1228 314 1315 480 q 997 57 1141 149 q 692 -36 853 -36 m 692 121 q 886 185 798 121 q 1029 377 974 248 q 1083 692 1083 506 q 1029 1008 1083 879 q 886 1200 974 1137 q 692 1264 798 1264 q 501 1200 589 1264 q 358 1008 413 1137 q 304 692 304 879 q 358 377 304 506 q 501 185 413 248 q 692 121 589 121 m 673 1526 q 563 1554 613 1554 q 486 1528 518 1554 l 474 1609 q 583 1659 506 1659 q 706 1631 645 1659 q 813 1605 770 1605 q 891 1633 859 1605 l 905 1554 q 857 1513 889 1528 q 786 1498 825 1498 q 673 1526 734 1498 z "},"Œ":{"ha":1966,"x_min":71,"x_max":1863,"o":"m 1863 329 l 1863 0 l 1089 0 l 1089 129 q 904 7 1006 50 q 692 -36 802 -36 q 389 57 532 -36 q 159 314 246 149 q 71 690 71 480 q 159 1067 71 901 q 389 1326 246 1234 q 692 1419 532 1419 q 904 1376 802 1419 q 1089 1254 1006 1333 l 1089 1389 l 1794 1389 l 1794 1121 l 1677 1121 l 1677 1159 q 1664 1189 1677 1177 q 1633 1202 1651 1202 l 1317 1202 l 1317 881 l 1536 881 q 1571 896 1558 881 q 1585 931 1585 911 l 1585 964 l 1712 964 l 1712 615 l 1585 615 l 1585 653 q 1571 688 1585 675 q 1536 702 1558 702 l 1317 702 l 1317 165 l 1661 165 q 1731 193 1702 165 q 1760 264 1760 222 l 1760 329 l 1863 329 m 692 121 q 886 185 798 121 q 1029 377 974 248 q 1083 692 1083 506 q 1029 1008 1083 879 q 886 1200 974 1137 q 692 1264 798 1264 q 501 1200 589 1264 q 358 1008 413 1137 q 304 692 304 879 q 358 377 304 506 q 501 185 413 248 q 692 121 589 121 z "},"P":{"ha":1069,"x_min":123,"x_max":990,"o":"m 990 954 q 930 727 990 827 q 769 570 869 627 q 556 514 669 514 q 448 524 490 514 l 448 171 q 461 137 448 151 q 494 123 474 123 l 554 123 l 554 0 l 127 0 l 127 123 l 173 123 q 204 137 190 123 q 218 171 218 151 l 218 1220 q 204 1252 218 1238 q 173 1266 190 1266 l 123 1266 l 123 1389 l 562 1389 q 762 1341 663 1389 q 926 1195 861 1294 q 990 954 990 1097 m 448 687 q 526 675 488 675 q 696 753 629 675 q 764 958 764 831 q 727 1088 764 1030 q 630 1181 690 1147 q 502 1214 569 1214 l 448 1214 l 448 687 z "},"Q":{"ha":1536,"x_min":71,"x_max":1516,"o":"m 1516 67 q 1406 -22 1474 8 q 1264 -52 1337 -52 q 1136 -28 1204 -52 q 1008 42 1067 -4 q 696 -54 859 -54 q 401 32 546 -54 q 164 282 256 117 q 71 671 71 446 q 167 1107 71 935 q 406 1360 262 1280 q 696 1440 550 1440 q 969 1359 823 1440 q 1218 1104 1115 1278 q 1321 671 1321 931 q 1171 190 1321 387 q 1302 147 1240 147 q 1419 192 1367 147 l 1516 67 m 700 1274 q 504 1210 593 1274 q 360 1011 415 1147 q 306 667 306 875 q 407 260 306 407 l 429 296 q 535 400 464 347 q 728 452 605 452 q 1026 327 889 452 q 1087 671 1087 460 q 1032 1009 1087 873 q 888 1209 976 1145 q 700 1274 800 1274 m 528 147 q 700 105 609 105 q 891 161 806 105 q 801 248 843 218 q 694 278 758 278 q 597 240 641 278 q 528 147 554 202 z "},"R":{"ha":1236,"x_min":119,"x_max":1181,"o":"m 1181 12 q 1133 -32 1165 -14 q 1056 -50 1101 -50 q 864 26 952 -50 q 716 194 776 101 q 636 334 687 238 q 544 514 585 431 q 435 522 494 514 l 435 187 q 453 143 435 161 q 498 125 472 125 l 536 125 l 536 0 l 127 0 l 127 125 l 149 125 q 193 143 175 125 q 212 187 212 161 l 212 1218 q 197 1255 212 1240 q 161 1270 183 1270 l 119 1270 l 119 1389 l 544 1389 q 750 1340 647 1389 q 922 1192 853 1292 q 990 946 990 1093 q 929 725 990 827 q 762 567 867 623 q 857 347 817 427 q 949 193 905 252 q 1040 129 994 135 q 1062 127 1048 127 q 1123 147 1093 127 l 1181 12 m 435 702 q 528 690 484 690 q 696 761 635 690 q 758 950 758 831 q 672 1171 758 1105 q 462 1236 585 1236 l 435 1236 l 435 702 z "},"Ŕ":{"ha":1236,"x_min":119,"x_max":1181,"o":"m 1181 12 q 1133 -32 1165 -14 q 1056 -50 1101 -50 q 864 26 952 -50 q 716 194 776 101 q 636 334 687 238 q 544 514 585 431 q 435 522 494 514 l 435 187 q 453 143 435 161 q 498 125 472 125 l 536 125 l 536 0 l 127 0 l 127 125 l 149 125 q 193 143 175 125 q 212 187 212 161 l 212 1218 q 197 1255 212 1240 q 161 1270 183 1270 l 119 1270 l 119 1389 l 544 1389 q 750 1340 647 1389 q 922 1192 853 1292 q 990 946 990 1093 q 929 725 990 827 q 762 567 867 623 q 857 347 817 427 q 949 193 905 252 q 1040 129 994 135 q 1062 127 1048 127 q 1123 147 1093 127 l 1181 12 m 435 702 q 528 690 484 690 q 696 761 635 690 q 758 950 758 831 q 672 1171 758 1105 q 462 1236 585 1236 l 435 1236 l 435 702 m 411 1548 l 641 1736 l 716 1633 l 456 1480 l 411 1548 z "},"Ř":{"ha":1236,"x_min":119,"x_max":1181,"o":"m 1181 12 q 1133 -32 1165 -14 q 1056 -50 1101 -50 q 864 26 952 -50 q 716 194 776 101 q 636 334 687 238 q 544 514 585 431 q 435 522 494 514 l 435 187 q 453 143 435 161 q 498 125 472 125 l 536 125 l 536 0 l 127 0 l 127 125 l 149 125 q 193 143 175 125 q 212 187 212 161 l 212 1218 q 197 1255 212 1240 q 161 1270 183 1270 l 119 1270 l 119 1389 l 544 1389 q 750 1340 647 1389 q 922 1192 853 1292 q 990 946 990 1093 q 929 725 990 827 q 762 567 867 623 q 857 347 817 427 q 949 193 905 252 q 1040 129 994 135 q 1062 127 1048 127 q 1123 147 1093 127 l 1181 12 m 435 702 q 528 690 484 690 q 696 761 635 690 q 758 950 758 831 q 672 1171 758 1105 q 462 1236 585 1236 l 435 1236 l 435 702 m 563 1621 l 774 1688 l 774 1599 l 563 1484 l 351 1599 l 351 1688 l 563 1621 z "},"Ŗ":{"ha":1236,"x_min":119,"x_max":1181,"o":"m 1181 12 q 1133 -32 1165 -14 q 1056 -50 1101 -50 q 864 26 952 -50 q 716 194 776 101 q 636 334 687 238 q 544 514 585 431 q 435 522 494 514 l 435 187 q 453 143 435 161 q 498 125 472 125 l 536 125 l 536 0 l 127 0 l 127 125 l 149 125 q 193 143 175 125 q 212 187 212 161 l 212 1218 q 197 1255 212 1240 q 161 1270 183 1270 l 119 1270 l 119 1389 l 544 1389 q 750 1340 647 1389 q 922 1192 853 1292 q 990 946 990 1093 q 929 725 990 827 q 762 567 867 623 q 857 347 817 427 q 949 193 905 252 q 1040 129 994 135 q 1062 127 1048 127 q 1123 147 1093 127 l 1181 12 m 435 702 q 528 690 484 690 q 696 761 635 690 q 758 950 758 831 q 672 1171 758 1105 q 462 1236 585 1236 l 435 1236 l 435 702 m 450 -395 q 446 -389 448 -393 q 442 -383 444 -385 q 500 -305 472 -349 q 534 -232 528 -260 q 518 -192 518 -216 q 535 -148 518 -167 q 577 -129 552 -129 q 620 -145 603 -127 q 641 -188 637 -163 q 583 -312 645 -252 q 450 -395 522 -371 z "},"S":{"ha":974,"x_min":111,"x_max":885,"o":"m 484 -52 q 276 2 383 -52 q 230 14 252 14 q 197 3 210 14 q 183 -30 185 -8 l 111 -30 l 111 411 l 238 411 q 269 261 240 331 q 349 153 298 190 q 484 111 409 111 q 579 131 536 111 q 645 187 623 151 q 677 294 677 238 q 625 433 677 369 q 433 613 569 500 q 213 845 284 734 q 143 1085 143 956 q 195 1286 143 1206 q 323 1402 248 1365 q 466 1438 399 1438 q 569 1427 530 1438 q 638 1402 609 1415 q 679 1383 667 1389 q 698 1377 690 1377 q 734 1415 724 1377 l 806 1415 l 806 1050 l 694 1050 l 694 1073 q 640 1205 694 1149 q 494 1262 585 1262 q 390 1220 433 1262 q 347 1117 347 1179 q 393 984 347 1048 q 575 812 438 921 q 806 580 726 694 q 885 327 885 466 q 840 138 885 224 q 705 0 796 52 q 484 -52 615 -52 z "},"Ś":{"ha":974,"x_min":111,"x_max":885,"o":"m 484 -52 q 276 2 383 -52 q 230 14 252 14 q 197 3 210 14 q 183 -30 185 -8 l 111 -30 l 111 411 l 238 411 q 269 261 240 331 q 349 153 298 190 q 484 111 409 111 q 579 131 536 111 q 645 187 623 151 q 677 294 677 238 q 625 433 677 369 q 433 613 569 500 q 213 845 284 734 q 143 1085 143 956 q 195 1286 143 1206 q 323 1402 248 1365 q 466 1438 399 1438 q 569 1427 530 1438 q 638 1402 609 1415 q 679 1383 667 1389 q 698 1377 690 1377 q 734 1415 724 1377 l 806 1415 l 806 1050 l 694 1050 l 694 1073 q 640 1205 694 1149 q 494 1262 585 1262 q 390 1220 433 1262 q 347 1117 347 1179 q 393 984 347 1048 q 575 812 438 921 q 806 580 726 694 q 885 327 885 466 q 840 138 885 224 q 705 0 796 52 q 484 -52 615 -52 m 333 1587 l 563 1776 l 639 1673 l 379 1520 l 333 1587 z "},"Š":{"ha":974,"x_min":111,"x_max":885,"o":"m 484 -52 q 276 2 383 -52 q 230 14 252 14 q 197 3 210 14 q 183 -30 185 -8 l 111 -30 l 111 411 l 238 411 q 269 261 240 331 q 349 153 298 190 q 484 111 409 111 q 579 131 536 111 q 645 187 623 151 q 677 294 677 238 q 625 433 677 369 q 433 613 569 500 q 213 845 284 734 q 143 1085 143 956 q 195 1286 143 1206 q 323 1402 248 1365 q 466 1438 399 1438 q 569 1427 530 1438 q 638 1402 609 1415 q 679 1383 667 1389 q 698 1377 690 1377 q 734 1415 724 1377 l 806 1415 l 806 1050 l 694 1050 l 694 1073 q 640 1205 694 1149 q 494 1262 585 1262 q 390 1220 433 1262 q 347 1117 347 1179 q 393 984 347 1048 q 575 812 438 921 q 806 580 726 694 q 885 327 885 466 q 840 138 885 224 q 705 0 796 52 q 484 -52 615 -52 m 486 1661 l 696 1728 l 696 1639 l 486 1524 l 274 1639 l 274 1728 l 486 1661 z "},"Ş":{"ha":974,"x_min":111,"x_max":885,"o":"m 575 812 q 806 580 726 694 q 885 327 885 466 q 789 64 885 173 q 512 -52 692 -44 l 496 -83 q 556 -128 530 -97 q 581 -208 581 -159 q 540 -304 581 -268 q 440 -339 498 -339 q 375 -323 407 -339 q 323 -276 343 -308 l 363 -230 q 423 -254 387 -254 q 461 -243 444 -254 q 480 -214 478 -232 q 455 -156 482 -177 q 377 -135 429 -135 l 419 -48 q 276 2 353 -34 q 230 14 252 14 q 197 3 210 14 q 183 -30 185 -8 l 111 -30 l 111 411 l 238 411 q 269 261 240 331 q 349 153 298 190 q 484 111 409 111 q 579 131 536 111 q 645 187 623 151 q 677 294 677 238 q 625 433 677 369 q 433 613 569 500 q 213 845 284 734 q 143 1085 143 956 q 195 1286 143 1206 q 323 1402 248 1365 q 466 1438 399 1438 q 569 1427 530 1438 q 638 1402 609 1415 q 679 1383 667 1389 q 698 1377 690 1377 q 734 1415 724 1377 l 806 1415 l 806 1050 l 694 1050 l 694 1073 q 640 1205 694 1149 q 494 1262 585 1262 q 390 1220 433 1262 q 347 1117 347 1179 q 393 984 347 1048 q 575 812 438 921 z "},"Ș":{"ha":974,"x_min":111,"x_max":885,"o":"m 484 -52 q 276 2 383 -52 q 230 14 252 14 q 197 3 210 14 q 183 -30 185 -8 l 111 -30 l 111 411 l 238 411 q 269 261 240 331 q 349 153 298 190 q 484 111 409 111 q 579 131 536 111 q 645 187 623 151 q 677 294 677 238 q 625 433 677 369 q 433 613 569 500 q 213 845 284 734 q 143 1085 143 956 q 195 1286 143 1206 q 323 1402 248 1365 q 466 1438 399 1438 q 569 1427 530 1438 q 638 1402 609 1415 q 679 1383 667 1389 q 698 1377 690 1377 q 734 1415 724 1377 l 806 1415 l 806 1050 l 694 1050 l 694 1073 q 640 1205 694 1149 q 494 1262 585 1262 q 390 1220 433 1262 q 347 1117 347 1179 q 393 984 347 1048 q 575 812 438 921 q 806 580 726 694 q 885 327 885 466 q 840 138 885 224 q 705 0 796 52 q 484 -52 615 -52 m 341 -437 q 337 -431 339 -435 q 333 -425 335 -427 q 391 -346 363 -391 q 425 -274 419 -302 q 409 -234 409 -258 q 426 -189 409 -208 q 468 -171 442 -171 q 511 -187 494 -169 q 532 -230 528 -204 q 474 -353 536 -294 q 341 -437 413 -413 z "},"T":{"ha":1270,"x_min":91,"x_max":1179,"o":"m 1179 1091 l 1046 1091 l 1046 1163 q 1029 1203 1046 1187 q 988 1220 1012 1220 l 756 1222 l 756 169 q 769 137 756 151 q 802 123 782 123 l 847 123 l 847 0 l 425 0 l 425 123 l 470 123 q 501 137 488 123 q 514 169 514 151 l 514 1222 l 282 1224 q 241 1207 258 1224 q 224 1165 224 1190 l 224 1091 l 91 1091 l 91 1389 l 1179 1389 l 1179 1091 z "},"Ŧ":{"ha":1270,"x_min":91,"x_max":1179,"o":"m 1179 1091 l 1046 1091 l 1046 1163 q 1029 1203 1046 1187 q 988 1220 1012 1220 l 756 1222 l 756 815 l 905 815 l 905 661 l 756 661 l 756 169 q 769 137 756 151 q 802 123 782 123 l 847 123 l 847 0 l 425 0 l 425 123 l 470 123 q 501 137 488 123 q 514 169 514 151 l 514 661 l 367 661 l 367 815 l 514 815 l 514 1222 l 282 1224 q 241 1207 258 1224 q 224 1165 224 1190 l 224 1091 l 91 1091 l 91 1389 l 1179 1389 l 1179 1091 z "},"Ť":{"ha":1270,"x_min":91,"x_max":1179,"o":"m 1179 1091 l 1046 1091 l 1046 1163 q 1029 1203 1046 1187 q 988 1220 1012 1220 l 756 1222 l 756 169 q 769 137 756 151 q 802 123 782 123 l 847 123 l 847 0 l 425 0 l 425 123 l 470 123 q 501 137 488 123 q 514 169 514 151 l 514 1222 l 282 1224 q 241 1207 258 1224 q 224 1165 224 1190 l 224 1091 l 91 1091 l 91 1389 l 1179 1389 l 1179 1091 m 637 1621 l 847 1688 l 847 1599 l 637 1484 l 425 1599 l 425 1688 l 637 1621 z "},"Ţ":{"ha":1270,"x_min":91,"x_max":1179,"o":"m 1179 1091 l 1046 1091 l 1046 1163 q 1029 1203 1046 1187 q 988 1220 1012 1220 l 756 1222 l 756 169 q 769 137 756 151 q 802 123 782 123 l 847 123 l 847 0 l 681 0 l 661 -42 q 720 -86 694 -56 q 746 -167 746 -117 q 704 -262 746 -226 q 605 -298 663 -298 q 540 -282 571 -298 q 488 -234 508 -266 l 528 -188 q 587 -212 552 -212 q 626 -201 609 -212 q 645 -173 643 -190 q 620 -114 647 -135 q 542 -93 593 -93 l 585 0 l 425 0 l 425 123 l 470 123 q 501 137 488 123 q 514 169 514 151 l 514 1222 l 282 1224 q 241 1207 258 1224 q 224 1165 224 1190 l 224 1091 l 91 1091 l 91 1389 l 1179 1389 l 1179 1091 z "},"Ț":{"ha":1270,"x_min":91,"x_max":1179,"o":"m 1179 1091 l 1046 1091 l 1046 1163 q 1029 1203 1046 1187 q 988 1220 1012 1220 l 756 1222 l 756 169 q 769 137 756 151 q 802 123 782 123 l 847 123 l 847 0 l 425 0 l 425 123 l 470 123 q 501 137 488 123 q 514 169 514 151 l 514 1222 l 282 1224 q 241 1207 258 1224 q 224 1165 224 1190 l 224 1091 l 91 1091 l 91 1389 l 1179 1389 l 1179 1091 m 506 -395 q 502 -389 504 -393 q 498 -383 500 -385 q 556 -305 528 -349 q 589 -232 583 -260 q 573 -192 573 -216 q 590 -148 573 -167 q 633 -129 607 -129 q 676 -145 659 -127 q 696 -188 692 -163 q 639 -312 700 -252 q 506 -395 577 -371 z "},"U":{"ha":1371,"x_min":95,"x_max":1276,"o":"m 688 -50 q 425 9 538 -50 q 249 179 312 67 q 187 440 187 290 l 187 1222 q 175 1252 187 1240 q 145 1264 163 1264 l 95 1264 l 95 1389 l 528 1389 l 528 1264 l 468 1264 q 439 1252 452 1264 q 427 1222 427 1240 l 427 440 q 497 211 427 300 q 700 123 567 123 q 909 203 823 123 q 988 452 994 284 l 988 1222 q 975 1252 988 1240 q 946 1264 962 1264 l 891 1264 l 891 1389 l 1276 1389 l 1276 1264 l 1208 1264 q 1178 1252 1190 1264 q 1165 1222 1165 1240 l 1165 427 q 1100 170 1165 278 q 928 6 1036 62 q 688 -50 819 -50 z "},"Ú":{"ha":1371,"x_min":95,"x_max":1276,"o":"m 688 -50 q 425 9 538 -50 q 249 179 312 67 q 187 440 187 290 l 187 1222 q 175 1252 187 1240 q 145 1264 163 1264 l 95 1264 l 95 1389 l 528 1389 l 528 1264 l 468 1264 q 439 1252 452 1264 q 427 1222 427 1240 l 427 440 q 497 211 427 300 q 700 123 567 123 q 909 203 823 123 q 988 452 994 284 l 988 1222 q 975 1252 988 1240 q 946 1264 962 1264 l 891 1264 l 891 1389 l 1276 1389 l 1276 1264 l 1208 1264 q 1178 1252 1190 1264 q 1165 1222 1165 1240 l 1165 427 q 1100 170 1165 278 q 928 6 1036 62 q 688 -50 819 -50 m 558 1548 l 788 1736 l 863 1633 l 603 1480 l 558 1548 z "},"Ǔ":{"ha":1371,"x_min":95,"x_max":1276,"o":"m 688 -50 q 425 9 538 -50 q 249 179 312 67 q 187 440 187 290 l 187 1222 q 175 1252 187 1240 q 145 1264 163 1264 l 95 1264 l 95 1389 l 528 1389 l 528 1264 l 468 1264 q 439 1252 452 1264 q 427 1222 427 1240 l 427 440 q 497 211 427 300 q 700 123 567 123 q 909 203 823 123 q 988 452 994 284 l 988 1222 q 975 1252 988 1240 q 946 1264 962 1264 l 891 1264 l 891 1389 l 1276 1389 l 1276 1264 l 1208 1264 q 1178 1252 1190 1264 q 1165 1222 1165 1240 l 1165 427 q 1100 170 1165 278 q 928 6 1036 62 q 688 -50 819 -50 m 710 1621 l 921 1688 l 921 1599 l 710 1484 l 498 1599 l 498 1688 l 710 1621 z "},"Û":{"ha":1371,"x_min":95,"x_max":1276,"o":"m 688 -50 q 425 9 538 -50 q 249 179 312 67 q 187 440 187 290 l 187 1222 q 175 1252 187 1240 q 145 1264 163 1264 l 95 1264 l 95 1389 l 528 1389 l 528 1264 l 468 1264 q 439 1252 452 1264 q 427 1222 427 1240 l 427 440 q 497 211 427 300 q 700 123 567 123 q 909 203 823 123 q 988 452 994 284 l 988 1222 q 975 1252 988 1240 q 946 1264 962 1264 l 891 1264 l 891 1389 l 1276 1389 l 1276 1264 l 1208 1264 q 1178 1252 1190 1264 q 1165 1222 1165 1240 l 1165 427 q 1100 170 1165 278 q 928 6 1036 62 q 688 -50 819 -50 m 498 1573 l 710 1688 l 921 1573 l 921 1484 l 710 1552 l 498 1484 l 498 1573 z "},"Ü":{"ha":1371,"x_min":95,"x_max":1276,"o":"m 688 -50 q 425 9 538 -50 q 249 179 312 67 q 187 440 187 290 l 187 1222 q 175 1252 187 1240 q 145 1264 163 1264 l 95 1264 l 95 1389 l 528 1389 l 528 1264 l 468 1264 q 439 1252 452 1264 q 427 1222 427 1240 l 427 440 q 497 211 427 300 q 700 123 567 123 q 909 203 823 123 q 988 452 994 284 l 988 1222 q 975 1252 988 1240 q 946 1264 962 1264 l 891 1264 l 891 1389 l 1276 1389 l 1276 1264 l 1208 1264 q 1178 1252 1190 1264 q 1165 1222 1165 1240 l 1165 427 q 1100 170 1165 278 q 928 6 1036 62 q 688 -50 819 -50 m 542 1512 q 483 1538 508 1512 q 458 1597 458 1563 q 483 1656 458 1631 q 542 1681 508 1681 q 600 1656 575 1681 q 625 1597 625 1631 q 600 1538 625 1563 q 542 1512 575 1512 m 877 1512 q 818 1538 843 1512 q 794 1597 794 1563 q 818 1656 794 1631 q 877 1681 843 1681 q 936 1656 911 1681 q 960 1597 960 1631 q 936 1538 960 1563 q 877 1512 911 1512 z "},"Ǘ":{"ha":1371,"x_min":95,"x_max":1276,"o":"m 688 -50 q 425 9 538 -50 q 249 179 312 67 q 187 440 187 290 l 187 1222 q 175 1252 187 1240 q 145 1264 163 1264 l 95 1264 l 95 1389 l 528 1389 l 528 1264 l 468 1264 q 439 1252 452 1264 q 427 1222 427 1240 l 427 440 q 497 211 427 300 q 700 123 567 123 q 909 203 823 123 q 988 452 994 284 l 988 1222 q 975 1252 988 1240 q 946 1264 962 1264 l 891 1264 l 891 1389 l 1276 1389 l 1276 1264 l 1208 1264 q 1178 1252 1190 1264 q 1165 1222 1165 1240 l 1165 427 q 1100 170 1165 278 q 928 6 1036 62 q 688 -50 819 -50 z "},"Ǚ":{"ha":1371,"x_min":95,"x_max":1276,"o":"m 688 -50 q 425 9 538 -50 q 249 179 312 67 q 187 440 187 290 l 187 1222 q 175 1252 187 1240 q 145 1264 163 1264 l 95 1264 l 95 1389 l 528 1389 l 528 1264 l 468 1264 q 439 1252 452 1264 q 427 1222 427 1240 l 427 440 q 497 211 427 300 q 700 123 567 123 q 909 203 823 123 q 988 452 994 284 l 988 1222 q 975 1252 988 1240 q 946 1264 962 1264 l 891 1264 l 891 1389 l 1276 1389 l 1276 1264 l 1208 1264 q 1178 1252 1190 1264 q 1165 1222 1165 1240 l 1165 427 q 1100 170 1165 278 q 928 6 1036 62 q 688 -50 819 -50 z "},"Ǜ":{"ha":1371,"x_min":95,"x_max":1276,"o":"m 688 -50 q 425 9 538 -50 q 249 179 312 67 q 187 440 187 290 l 187 1222 q 175 1252 187 1240 q 145 1264 163 1264 l 95 1264 l 95 1389 l 528 1389 l 528 1264 l 468 1264 q 439 1252 452 1264 q 427 1222 427 1240 l 427 440 q 497 211 427 300 q 700 123 567 123 q 909 203 823 123 q 988 452 994 284 l 988 1222 q 975 1252 988 1240 q 946 1264 962 1264 l 891 1264 l 891 1389 l 1276 1389 l 1276 1264 l 1208 1264 q 1178 1252 1190 1264 q 1165 1222 1165 1240 l 1165 427 q 1100 170 1165 278 q 928 6 1036 62 q 688 -50 819 -50 z "},"Ǖ":{"ha":1371,"x_min":95,"x_max":1276,"o":"m 688 -50 q 425 9 538 -50 q 249 179 312 67 q 187 440 187 290 l 187 1222 q 175 1252 187 1240 q 145 1264 163 1264 l 95 1264 l 95 1389 l 528 1389 l 528 1264 l 468 1264 q 439 1252 452 1264 q 427 1222 427 1240 l 427 440 q 497 211 427 300 q 700 123 567 123 q 909 203 823 123 q 988 452 994 284 l 988 1222 q 975 1252 988 1240 q 946 1264 962 1264 l 891 1264 l 891 1389 l 1276 1389 l 1276 1264 l 1208 1264 q 1178 1252 1190 1264 q 1165 1222 1165 1240 l 1165 427 q 1100 170 1165 278 q 928 6 1036 62 q 688 -50 819 -50 z "},"Ụ":{"ha":1371,"x_min":95,"x_max":1276,"o":"m 688 -50 q 425 9 538 -50 q 249 179 312 67 q 187 440 187 290 l 187 1222 q 175 1252 187 1240 q 145 1264 163 1264 l 95 1264 l 95 1389 l 528 1389 l 528 1264 l 468 1264 q 439 1252 452 1264 q 427 1222 427 1240 l 427 440 q 497 211 427 300 q 700 123 567 123 q 909 203 823 123 q 988 452 994 284 l 988 1222 q 975 1252 988 1240 q 946 1264 962 1264 l 891 1264 l 891 1389 l 1276 1389 l 1276 1264 l 1208 1264 q 1178 1252 1190 1264 q 1165 1222 1165 1240 l 1165 427 q 1100 170 1165 278 q 928 6 1036 62 q 688 -50 819 -50 m 696 -327 q 638 -302 663 -327 q 613 -242 613 -276 q 638 -184 613 -208 q 696 -159 663 -159 q 755 -184 730 -159 q 780 -242 780 -208 q 755 -302 780 -276 q 696 -327 730 -327 z "},"Ù":{"ha":1371,"x_min":95,"x_max":1276,"o":"m 688 -50 q 425 9 538 -50 q 249 179 312 67 q 187 440 187 290 l 187 1222 q 175 1252 187 1240 q 145 1264 163 1264 l 95 1264 l 95 1389 l 528 1389 l 528 1264 l 468 1264 q 439 1252 452 1264 q 427 1222 427 1240 l 427 440 q 497 211 427 300 q 700 123 567 123 q 909 203 823 123 q 988 452 994 284 l 988 1222 q 975 1252 988 1240 q 946 1264 962 1264 l 891 1264 l 891 1389 l 1276 1389 l 1276 1264 l 1208 1264 q 1178 1252 1190 1264 q 1165 1222 1165 1240 l 1165 427 q 1100 170 1165 278 q 928 6 1036 62 q 688 -50 819 -50 m 562 1633 l 637 1736 l 867 1548 l 821 1480 l 562 1633 z "},"Ủ":{"ha":1371,"x_min":95,"x_max":1276,"o":"m 688 -50 q 425 9 538 -50 q 249 179 312 67 q 187 440 187 290 l 187 1222 q 175 1252 187 1240 q 145 1264 163 1264 l 95 1264 l 95 1389 l 528 1389 l 528 1264 l 468 1264 q 439 1252 452 1264 q 427 1222 427 1240 l 427 440 q 497 211 427 300 q 700 123 567 123 q 909 203 823 123 q 988 452 994 284 l 988 1222 q 975 1252 988 1240 q 946 1264 962 1264 l 891 1264 l 891 1389 l 1276 1389 l 1276 1264 l 1208 1264 q 1178 1252 1190 1264 q 1165 1222 1165 1240 l 1165 427 q 1100 170 1165 278 q 928 6 1036 62 q 688 -50 819 -50 m 669 1502 q 687 1559 673 1538 q 724 1603 700 1579 q 752 1635 744 1623 q 760 1665 760 1647 q 758 1683 760 1677 q 706 1718 750 1718 q 670 1711 688 1718 q 639 1690 651 1704 l 597 1754 q 655 1799 621 1784 q 724 1813 688 1813 q 825 1774 786 1813 q 865 1681 865 1734 q 846 1614 865 1647 q 794 1558 827 1581 q 748 1502 754 1530 l 669 1502 z "},"Ư":{"ha":1468,"x_min":95,"x_max":1452,"o":"m 1431 1440 q 1452 1385 1452 1419 q 1425 1317 1452 1345 q 1264 1262 1369 1262 q 1224 1264 1238 1262 l 1208 1264 q 1178 1252 1190 1264 q 1165 1222 1165 1240 l 1165 427 q 1100 170 1165 278 q 928 6 1036 62 q 688 -50 819 -50 q 425 9 538 -50 q 249 179 312 67 q 187 440 187 290 l 187 1222 q 175 1252 187 1240 q 145 1264 163 1264 l 95 1264 l 95 1389 l 528 1389 l 528 1264 l 468 1264 q 439 1252 452 1264 q 427 1222 427 1240 l 427 440 q 497 211 427 300 q 700 123 567 123 q 909 203 823 123 q 988 452 994 284 l 988 1222 q 975 1252 988 1240 q 946 1264 962 1264 l 891 1264 l 891 1389 l 1272 1389 l 1276 1391 q 1284 1419 1276 1403 q 1304 1444 1292 1435 q 1367 1468 1331 1468 q 1431 1440 1403 1468 z "},"Ứ":{"ha":1468,"x_min":95,"x_max":1452,"o":"m 1431 1440 q 1452 1385 1452 1419 q 1425 1317 1452 1345 q 1264 1262 1369 1262 q 1224 1264 1238 1262 l 1208 1264 q 1178 1252 1190 1264 q 1165 1222 1165 1240 l 1165 427 q 1100 170 1165 278 q 928 6 1036 62 q 688 -50 819 -50 q 425 9 538 -50 q 249 179 312 67 q 187 440 187 290 l 187 1222 q 175 1252 187 1240 q 145 1264 163 1264 l 95 1264 l 95 1389 l 528 1389 l 528 1264 l 468 1264 q 439 1252 452 1264 q 427 1222 427 1240 l 427 440 q 497 211 427 300 q 700 123 567 123 q 909 203 823 123 q 988 452 994 284 l 988 1222 q 975 1252 988 1240 q 946 1264 962 1264 l 891 1264 l 891 1389 l 1272 1389 l 1276 1391 q 1284 1419 1276 1403 q 1304 1444 1292 1435 q 1367 1468 1331 1468 q 1431 1440 1403 1468 m 558 1548 l 788 1736 l 863 1633 l 603 1480 l 558 1548 z "},"Ự":{"ha":1468,"x_min":95,"x_max":1452,"o":"m 1431 1440 q 1452 1385 1452 1419 q 1425 1317 1452 1345 q 1264 1262 1369 1262 q 1224 1264 1238 1262 l 1208 1264 q 1178 1252 1190 1264 q 1165 1222 1165 1240 l 1165 427 q 1100 170 1165 278 q 928 6 1036 62 q 688 -50 819 -50 q 425 9 538 -50 q 249 179 312 67 q 187 440 187 290 l 187 1222 q 175 1252 187 1240 q 145 1264 163 1264 l 95 1264 l 95 1389 l 528 1389 l 528 1264 l 468 1264 q 439 1252 452 1264 q 427 1222 427 1240 l 427 440 q 497 211 427 300 q 700 123 567 123 q 909 203 823 123 q 988 452 994 284 l 988 1222 q 975 1252 988 1240 q 946 1264 962 1264 l 891 1264 l 891 1389 l 1272 1389 l 1276 1391 q 1284 1419 1276 1403 q 1304 1444 1292 1435 q 1367 1468 1331 1468 q 1431 1440 1403 1468 m 696 -327 q 638 -302 663 -327 q 613 -242 613 -276 q 638 -184 613 -208 q 696 -159 663 -159 q 755 -184 730 -159 q 780 -242 780 -208 q 755 -302 780 -276 q 696 -327 730 -327 z "},"Ừ":{"ha":1468,"x_min":95,"x_max":1452,"o":"m 1431 1440 q 1452 1385 1452 1419 q 1425 1317 1452 1345 q 1264 1262 1369 1262 q 1224 1264 1238 1262 l 1208 1264 q 1178 1252 1190 1264 q 1165 1222 1165 1240 l 1165 427 q 1100 170 1165 278 q 928 6 1036 62 q 688 -50 819 -50 q 425 9 538 -50 q 249 179 312 67 q 187 440 187 290 l 187 1222 q 175 1252 187 1240 q 145 1264 163 1264 l 95 1264 l 95 1389 l 528 1389 l 528 1264 l 468 1264 q 439 1252 452 1264 q 427 1222 427 1240 l 427 440 q 497 211 427 300 q 700 123 567 123 q 909 203 823 123 q 988 452 994 284 l 988 1222 q 975 1252 988 1240 q 946 1264 962 1264 l 891 1264 l 891 1389 l 1272 1389 l 1276 1391 q 1284 1419 1276 1403 q 1304 1444 1292 1435 q 1367 1468 1331 1468 q 1431 1440 1403 1468 m 562 1633 l 637 1736 l 867 1548 l 821 1480 l 562 1633 z "},"Ử":{"ha":1468,"x_min":95,"x_max":1452,"o":"m 1431 1440 q 1452 1385 1452 1419 q 1425 1317 1452 1345 q 1264 1262 1369 1262 q 1224 1264 1238 1262 l 1208 1264 q 1178 1252 1190 1264 q 1165 1222 1165 1240 l 1165 427 q 1100 170 1165 278 q 928 6 1036 62 q 688 -50 819 -50 q 425 9 538 -50 q 249 179 312 67 q 187 440 187 290 l 187 1222 q 175 1252 187 1240 q 145 1264 163 1264 l 95 1264 l 95 1389 l 528 1389 l 528 1264 l 468 1264 q 439 1252 452 1264 q 427 1222 427 1240 l 427 440 q 497 211 427 300 q 700 123 567 123 q 909 203 823 123 q 988 452 994 284 l 988 1222 q 975 1252 988 1240 q 946 1264 962 1264 l 891 1264 l 891 1389 l 1272 1389 l 1276 1391 q 1284 1419 1276 1403 q 1304 1444 1292 1435 q 1367 1468 1331 1468 q 1431 1440 1403 1468 m 669 1502 q 687 1559 673 1538 q 724 1603 700 1579 q 752 1635 744 1623 q 760 1665 760 1647 q 758 1683 760 1677 q 706 1718 750 1718 q 670 1711 688 1718 q 639 1690 651 1704 l 597 1754 q 655 1799 621 1784 q 724 1813 688 1813 q 825 1774 786 1813 q 865 1681 865 1734 q 846 1614 865 1647 q 794 1558 827 1581 q 748 1502 754 1530 l 669 1502 z "},"Ữ":{"ha":1468,"x_min":95,"x_max":1452,"o":"m 1431 1440 q 1452 1385 1452 1419 q 1425 1317 1452 1345 q 1264 1262 1369 1262 q 1224 1264 1238 1262 l 1208 1264 q 1178 1252 1190 1264 q 1165 1222 1165 1240 l 1165 427 q 1100 170 1165 278 q 928 6 1036 62 q 688 -50 819 -50 q 425 9 538 -50 q 249 179 312 67 q 187 440 187 290 l 187 1222 q 175 1252 187 1240 q 145 1264 163 1264 l 95 1264 l 95 1389 l 528 1389 l 528 1264 l 468 1264 q 439 1252 452 1264 q 427 1222 427 1240 l 427 440 q 497 211 427 300 q 700 123 567 123 q 909 203 823 123 q 988 452 994 284 l 988 1222 q 975 1252 988 1240 q 946 1264 962 1264 l 891 1264 l 891 1389 l 1272 1389 l 1276 1391 q 1284 1419 1276 1403 q 1304 1444 1292 1435 q 1367 1468 1331 1468 q 1431 1440 1403 1468 m 690 1504 q 581 1532 631 1532 q 504 1506 536 1532 l 492 1587 q 601 1637 524 1637 q 724 1609 663 1637 q 831 1583 788 1583 q 909 1611 877 1583 l 923 1532 q 875 1491 907 1506 q 804 1476 843 1476 q 690 1504 752 1476 z "},"Ű":{"ha":1371,"x_min":95,"x_max":1276,"o":"m 688 -50 q 425 9 538 -50 q 249 179 312 67 q 187 440 187 290 l 187 1222 q 175 1252 187 1240 q 145 1264 163 1264 l 95 1264 l 95 1389 l 528 1389 l 528 1264 l 468 1264 q 439 1252 452 1264 q 427 1222 427 1240 l 427 440 q 497 211 427 300 q 700 123 567 123 q 909 203 823 123 q 988 452 994 284 l 988 1222 q 975 1252 988 1240 q 946 1264 962 1264 l 891 1264 l 891 1389 l 1276 1389 l 1276 1264 l 1208 1264 q 1178 1252 1190 1264 q 1165 1222 1165 1240 l 1165 427 q 1100 170 1165 278 q 928 6 1036 62 q 688 -50 819 -50 z "},"Ū":{"ha":1371,"x_min":95,"x_max":1276,"o":"m 688 -50 q 425 9 538 -50 q 249 179 312 67 q 187 440 187 290 l 187 1222 q 175 1252 187 1240 q 145 1264 163 1264 l 95 1264 l 95 1389 l 528 1389 l 528 1264 l 468 1264 q 439 1252 452 1264 q 427 1222 427 1240 l 427 440 q 497 211 427 300 q 700 123 567 123 q 909 203 823 123 q 988 452 994 284 l 988 1222 q 975 1252 988 1240 q 946 1264 962 1264 l 891 1264 l 891 1389 l 1276 1389 l 1276 1264 l 1208 1264 q 1178 1252 1190 1264 q 1165 1222 1165 1240 l 1165 427 q 1100 170 1165 278 q 928 6 1036 62 q 688 -50 819 -50 m 494 1609 l 925 1609 l 925 1500 l 494 1500 l 494 1609 z "},"Ų":{"ha":1371,"x_min":95,"x_max":1276,"o":"m 1276 1389 l 1276 1264 l 1208 1264 q 1178 1252 1190 1264 q 1165 1222 1165 1240 l 1165 427 q 1106 180 1165 284 q 948 18 1048 75 q 726 -48 849 -40 q 681 -91 698 -63 q 663 -147 663 -119 q 680 -194 663 -177 q 724 -212 696 -212 q 788 -190 754 -212 l 821 -236 q 700 -300 776 -300 q 605 -263 645 -300 q 565 -165 565 -226 q 623 -46 565 -87 q 305 101 423 -28 q 187 440 187 230 l 187 1222 q 175 1252 187 1240 q 145 1264 163 1264 l 95 1264 l 95 1389 l 528 1389 l 528 1264 l 468 1264 q 439 1252 452 1264 q 427 1222 427 1240 l 427 440 q 497 211 427 300 q 700 123 567 123 q 909 203 823 123 q 988 452 994 284 l 988 1222 q 975 1252 988 1240 q 946 1264 962 1264 l 891 1264 l 891 1389 l 1276 1389 z "},"Ů":{"ha":1371,"x_min":95,"x_max":1276,"o":"m 688 -50 q 425 9 538 -50 q 249 179 312 67 q 187 440 187 290 l 187 1222 q 175 1252 187 1240 q 145 1264 163 1264 l 95 1264 l 95 1389 l 528 1389 l 528 1264 l 468 1264 q 439 1252 452 1264 q 427 1222 427 1240 l 427 440 q 497 211 427 300 q 700 123 567 123 q 909 203 823 123 q 988 452 994 284 l 988 1222 q 975 1252 988 1240 q 946 1264 962 1264 l 891 1264 l 891 1389 l 1276 1389 l 1276 1264 l 1208 1264 q 1178 1252 1190 1264 q 1165 1222 1165 1240 l 1165 427 q 1100 170 1165 278 q 928 6 1036 62 q 688 -50 819 -50 m 710 1415 q 584 1469 639 1415 q 530 1595 530 1524 q 583 1722 530 1671 q 710 1774 637 1774 q 834 1719 780 1774 q 889 1595 889 1665 q 835 1467 889 1520 q 710 1415 782 1415 m 710 1502 q 776 1529 750 1502 q 802 1595 802 1556 q 775 1661 802 1635 q 710 1687 748 1687 q 644 1661 671 1687 q 617 1595 617 1635 q 644 1529 617 1556 q 710 1502 671 1502 z "},"Ũ":{"ha":1371,"x_min":95,"x_max":1276,"o":"m 688 -50 q 425 9 538 -50 q 249 179 312 67 q 187 440 187 290 l 187 1222 q 175 1252 187 1240 q 145 1264 163 1264 l 95 1264 l 95 1389 l 528 1389 l 528 1264 l 468 1264 q 439 1252 452 1264 q 427 1222 427 1240 l 427 440 q 497 211 427 300 q 700 123 567 123 q 909 203 823 123 q 988 452 994 284 l 988 1222 q 975 1252 988 1240 q 946 1264 962 1264 l 891 1264 l 891 1389 l 1276 1389 l 1276 1264 l 1208 1264 q 1178 1252 1190 1264 q 1165 1222 1165 1240 l 1165 427 q 1100 170 1165 278 q 928 6 1036 62 q 688 -50 819 -50 m 690 1504 q 581 1532 631 1532 q 504 1506 536 1532 l 492 1587 q 601 1637 524 1637 q 724 1609 663 1637 q 831 1583 788 1583 q 909 1611 877 1583 l 923 1532 q 875 1491 907 1506 q 804 1476 843 1476 q 690 1504 752 1476 z "},"V":{"ha":1351,"x_min":69,"x_max":1282,"o":"m 192 1175 q 151 1233 181 1210 q 83 1256 121 1256 l 69 1256 l 69 1389 l 504 1389 l 504 1256 l 486 1256 q 445 1235 460 1256 q 438 1190 431 1214 l 694 401 l 972 1188 q 976 1206 976 1200 q 961 1241 976 1226 q 925 1256 946 1256 l 901 1256 l 901 1389 l 1282 1389 l 1282 1256 l 1270 1256 q 1197 1232 1230 1256 q 1151 1171 1165 1208 l 728 -20 l 575 -20 l 192 1175 z "},"W":{"ha":1677,"x_min":69,"x_max":1607,"o":"m 188 1171 q 145 1238 179 1212 q 69 1264 111 1264 l 69 1389 l 512 1389 l 512 1264 q 452 1239 476 1264 q 429 1181 429 1214 q 431 1161 429 1167 l 579 538 l 798 1387 l 919 1387 l 1133 542 l 1304 1165 q 1306 1187 1306 1173 q 1283 1241 1306 1218 q 1226 1264 1260 1264 l 1226 1389 l 1607 1389 l 1607 1264 q 1535 1239 1567 1264 q 1492 1177 1502 1214 l 1163 -22 l 1018 -22 l 829 812 l 609 -22 l 470 -22 l 188 1171 z "},"Ẃ":{"ha":1677,"x_min":69,"x_max":1607,"o":"m 188 1171 q 145 1238 179 1212 q 69 1264 111 1264 l 69 1389 l 512 1389 l 512 1264 q 452 1239 476 1264 q 429 1181 429 1214 q 431 1161 429 1167 l 579 538 l 798 1387 l 919 1387 l 1133 542 l 1304 1165 q 1306 1187 1306 1173 q 1283 1241 1306 1218 q 1226 1264 1260 1264 l 1226 1389 l 1607 1389 l 1607 1264 q 1535 1239 1567 1264 q 1492 1177 1502 1214 l 1163 -22 l 1018 -22 l 829 812 l 609 -22 l 470 -22 l 188 1171 m 706 1548 l 937 1736 l 1012 1633 l 752 1480 l 706 1548 z "},"Ŵ":{"ha":1677,"x_min":69,"x_max":1607,"o":"m 188 1171 q 145 1238 179 1212 q 69 1264 111 1264 l 69 1389 l 512 1389 l 512 1264 q 452 1239 476 1264 q 429 1181 429 1214 q 431 1161 429 1167 l 579 538 l 798 1387 l 919 1387 l 1133 542 l 1304 1165 q 1306 1187 1306 1173 q 1283 1241 1306 1218 q 1226 1264 1260 1264 l 1226 1389 l 1607 1389 l 1607 1264 q 1535 1239 1567 1264 q 1492 1177 1502 1214 l 1163 -22 l 1018 -22 l 829 812 l 609 -22 l 470 -22 l 188 1171 m 647 1573 l 859 1688 l 1069 1573 l 1069 1484 l 859 1552 l 647 1484 l 647 1573 z "},"Ẅ":{"ha":1677,"x_min":69,"x_max":1607,"o":"m 188 1171 q 145 1238 179 1212 q 69 1264 111 1264 l 69 1389 l 512 1389 l 512 1264 q 452 1239 476 1264 q 429 1181 429 1214 q 431 1161 429 1167 l 579 538 l 798 1387 l 919 1387 l 1133 542 l 1304 1165 q 1306 1187 1306 1173 q 1283 1241 1306 1218 q 1226 1264 1260 1264 l 1226 1389 l 1607 1389 l 1607 1264 q 1535 1239 1567 1264 q 1492 1177 1502 1214 l 1163 -22 l 1018 -22 l 829 812 l 609 -22 l 470 -22 l 188 1171 m 690 1512 q 632 1538 657 1512 q 607 1597 607 1563 q 632 1656 607 1631 q 690 1681 657 1681 q 749 1656 724 1681 q 774 1597 774 1631 q 749 1538 774 1563 q 690 1512 724 1512 m 1026 1512 q 967 1538 992 1512 q 942 1597 942 1563 q 967 1656 942 1631 q 1026 1681 992 1681 q 1084 1656 1060 1681 q 1109 1597 1109 1631 q 1084 1538 1109 1563 q 1026 1512 1060 1512 z "},"Ẁ":{"ha":1677,"x_min":69,"x_max":1607,"o":"m 188 1171 q 145 1238 179 1212 q 69 1264 111 1264 l 69 1389 l 512 1389 l 512 1264 q 452 1239 476 1264 q 429 1181 429 1214 q 431 1161 429 1167 l 579 538 l 798 1387 l 919 1387 l 1133 542 l 1304 1165 q 1306 1187 1306 1173 q 1283 1241 1306 1218 q 1226 1264 1260 1264 l 1226 1389 l 1607 1389 l 1607 1264 q 1535 1239 1567 1264 q 1492 1177 1502 1214 l 1163 -22 l 1018 -22 l 829 812 l 609 -22 l 470 -22 l 188 1171 m 710 1633 l 786 1736 l 1016 1548 l 970 1480 l 710 1633 z "},"X":{"ha":1345,"x_min":71,"x_max":1282,"o":"m 1282 129 l 1282 0 l 833 0 l 833 129 q 863 139 853 129 q 873 163 873 149 q 865 188 873 179 l 643 554 l 405 188 q 399 167 399 177 q 410 140 399 151 q 438 129 421 129 l 438 0 l 71 0 l 71 129 q 145 148 111 129 q 200 200 179 167 l 542 720 l 250 1200 q 199 1250 230 1232 q 135 1268 169 1268 l 135 1389 l 571 1389 l 571 1268 l 550 1268 q 520 1255 532 1268 q 508 1226 508 1242 q 514 1204 508 1214 l 681 935 l 857 1202 q 867 1230 867 1218 q 855 1257 867 1246 q 817 1268 843 1268 l 817 1389 l 1196 1389 l 1196 1268 q 1063 1192 1113 1268 l 786 768 l 1135 204 q 1192 150 1157 171 q 1270 129 1228 129 l 1282 129 z "},"Y":{"ha":1385,"x_min":69,"x_max":1315,"o":"m 1315 1389 l 1315 1264 l 1290 1264 q 1211 1243 1248 1264 q 1151 1187 1175 1222 l 802 615 l 802 196 q 819 153 802 171 q 863 135 837 135 l 907 135 l 907 0 l 468 0 l 468 135 l 514 135 q 559 153 540 135 q 577 196 577 171 l 577 615 l 234 1185 q 175 1242 212 1220 q 93 1264 137 1264 l 69 1264 l 69 1389 l 528 1389 l 528 1264 l 520 1264 q 489 1251 502 1264 q 476 1220 476 1238 q 482 1198 476 1208 l 718 808 l 960 1196 q 966 1218 966 1208 q 953 1250 966 1236 q 923 1264 940 1264 l 919 1264 l 919 1389 l 1315 1389 z "},"Ý":{"ha":1385,"x_min":69,"x_max":1315,"o":"m 1315 1389 l 1315 1264 l 1290 1264 q 1211 1243 1248 1264 q 1151 1187 1175 1222 l 802 615 l 802 196 q 819 153 802 171 q 863 135 837 135 l 907 135 l 907 0 l 468 0 l 468 135 l 514 135 q 559 153 540 135 q 577 196 577 171 l 577 615 l 234 1185 q 175 1242 212 1220 q 93 1264 137 1264 l 69 1264 l 69 1389 l 528 1389 l 528 1264 l 520 1264 q 489 1251 502 1264 q 476 1220 476 1238 q 482 1198 476 1208 l 718 808 l 960 1196 q 966 1218 966 1208 q 953 1250 966 1236 q 923 1264 940 1264 l 919 1264 l 919 1389 l 1315 1389 m 567 1548 l 798 1736 l 873 1633 l 613 1480 l 567 1548 z "},"Ŷ":{"ha":1385,"x_min":69,"x_max":1315,"o":"m 1315 1389 l 1315 1264 l 1290 1264 q 1211 1243 1248 1264 q 1151 1187 1175 1222 l 802 615 l 802 196 q 819 153 802 171 q 863 135 837 135 l 907 135 l 907 0 l 468 0 l 468 135 l 514 135 q 559 153 540 135 q 577 196 577 171 l 577 615 l 234 1185 q 175 1242 212 1220 q 93 1264 137 1264 l 69 1264 l 69 1389 l 528 1389 l 528 1264 l 520 1264 q 489 1251 502 1264 q 476 1220 476 1238 q 482 1198 476 1208 l 718 808 l 960 1196 q 966 1218 966 1208 q 953 1250 966 1236 q 923 1264 940 1264 l 919 1264 l 919 1389 l 1315 1389 m 508 1573 l 720 1688 l 931 1573 l 931 1484 l 720 1552 l 508 1484 l 508 1573 z "},"Ÿ":{"ha":1385,"x_min":69,"x_max":1315,"o":"m 1315 1389 l 1315 1264 l 1290 1264 q 1211 1243 1248 1264 q 1151 1187 1175 1222 l 802 615 l 802 196 q 819 153 802 171 q 863 135 837 135 l 907 135 l 907 0 l 468 0 l 468 135 l 514 135 q 559 153 540 135 q 577 196 577 171 l 577 615 l 234 1185 q 175 1242 212 1220 q 93 1264 137 1264 l 69 1264 l 69 1389 l 528 1389 l 528 1264 l 520 1264 q 489 1251 502 1264 q 476 1220 476 1238 q 482 1198 476 1208 l 718 808 l 960 1196 q 966 1218 966 1208 q 953 1250 966 1236 q 923 1264 940 1264 l 919 1264 l 919 1389 l 1315 1389 m 552 1512 q 493 1538 518 1512 q 468 1597 468 1563 q 493 1656 468 1631 q 552 1681 518 1681 q 610 1656 585 1681 q 635 1597 635 1631 q 610 1538 635 1563 q 552 1512 585 1512 m 887 1512 q 828 1538 853 1512 q 804 1597 804 1563 q 828 1656 804 1631 q 887 1681 853 1681 q 945 1656 921 1681 q 970 1597 970 1631 q 945 1538 970 1563 q 887 1512 921 1512 z "},"Ỵ":{"ha":1385,"x_min":69,"x_max":1315,"o":"m 1315 1389 l 1315 1264 l 1290 1264 q 1211 1243 1248 1264 q 1151 1187 1175 1222 l 802 615 l 802 196 q 819 153 802 171 q 863 135 837 135 l 907 135 l 907 0 l 468 0 l 468 135 l 514 135 q 559 153 540 135 q 577 196 577 171 l 577 615 l 234 1185 q 175 1242 212 1220 q 93 1264 137 1264 l 69 1264 l 69 1389 l 528 1389 l 528 1264 l 520 1264 q 489 1251 502 1264 q 476 1220 476 1238 q 482 1198 476 1208 l 718 808 l 960 1196 q 966 1218 966 1208 q 953 1250 966 1236 q 923 1264 940 1264 l 919 1264 l 919 1389 l 1315 1389 m 692 -294 q 634 -268 659 -294 q 609 -208 609 -242 q 634 -150 609 -175 q 692 -125 659 -125 q 751 -150 726 -125 q 776 -208 776 -175 q 751 -268 776 -242 q 692 -294 726 -294 z "},"Ỳ":{"ha":1385,"x_min":69,"x_max":1315,"o":"m 1315 1389 l 1315 1264 l 1290 1264 q 1211 1243 1248 1264 q 1151 1187 1175 1222 l 802 615 l 802 196 q 819 153 802 171 q 863 135 837 135 l 907 135 l 907 0 l 468 0 l 468 135 l 514 135 q 559 153 540 135 q 577 196 577 171 l 577 615 l 234 1185 q 175 1242 212 1220 q 93 1264 137 1264 l 69 1264 l 69 1389 l 528 1389 l 528 1264 l 520 1264 q 489 1251 502 1264 q 476 1220 476 1238 q 482 1198 476 1208 l 718 808 l 960 1196 q 966 1218 966 1208 q 953 1250 966 1236 q 923 1264 940 1264 l 919 1264 l 919 1389 l 1315 1389 m 571 1633 l 647 1736 l 877 1548 l 831 1480 l 571 1633 z "},"Ỷ":{"ha":1385,"x_min":69,"x_max":1315,"o":"m 1315 1389 l 1315 1264 l 1290 1264 q 1211 1243 1248 1264 q 1151 1187 1175 1222 l 802 615 l 802 196 q 819 153 802 171 q 863 135 837 135 l 907 135 l 907 0 l 468 0 l 468 135 l 514 135 q 559 153 540 135 q 577 196 577 171 l 577 615 l 234 1185 q 175 1242 212 1220 q 93 1264 137 1264 l 69 1264 l 69 1389 l 528 1389 l 528 1264 l 520 1264 q 489 1251 502 1264 q 476 1220 476 1238 q 482 1198 476 1208 l 718 808 l 960 1196 q 966 1218 966 1208 q 953 1250 966 1236 q 923 1264 940 1264 l 919 1264 l 919 1389 l 1315 1389 m 679 1476 q 696 1533 683 1512 q 734 1577 710 1554 q 762 1609 754 1597 q 770 1639 770 1621 q 768 1657 770 1651 q 716 1692 760 1692 q 680 1686 698 1692 q 649 1665 661 1679 l 607 1728 q 665 1773 631 1758 q 734 1788 698 1788 q 835 1748 796 1788 q 875 1655 875 1708 q 856 1588 875 1621 q 804 1532 837 1556 q 758 1476 764 1504 l 679 1476 z "},"Ỹ":{"ha":1385,"x_min":69,"x_max":1315,"o":"m 1315 1389 l 1315 1264 l 1290 1264 q 1211 1243 1248 1264 q 1151 1187 1175 1222 l 802 615 l 802 196 q 819 153 802 171 q 863 135 837 135 l 907 135 l 907 0 l 468 0 l 468 135 l 514 135 q 559 153 540 135 q 577 196 577 171 l 577 615 l 234 1185 q 175 1242 212 1220 q 93 1264 137 1264 l 69 1264 l 69 1389 l 528 1389 l 528 1264 l 520 1264 q 489 1251 502 1264 q 476 1220 476 1238 q 482 1198 476 1208 l 718 808 l 960 1196 q 966 1218 966 1208 q 953 1250 966 1236 q 923 1264 940 1264 l 919 1264 l 919 1389 l 1315 1389 m 700 1504 q 591 1532 641 1532 q 514 1506 546 1532 l 502 1587 q 611 1637 534 1637 q 734 1609 673 1637 q 841 1583 798 1583 q 919 1611 887 1583 l 933 1532 q 885 1491 917 1506 q 813 1476 853 1476 q 700 1504 762 1476 z "},"Z":{"ha":1097,"x_min":75,"x_max":994,"o":"m 994 300 l 994 0 l 75 0 l 75 16 l 661 1212 l 317 1212 q 280 1196 296 1212 q 264 1159 264 1181 l 264 1087 l 123 1087 l 123 1389 l 986 1389 l 986 1377 l 403 179 l 788 179 q 846 203 821 179 q 871 262 871 228 l 871 300 l 994 300 z "},"Ź":{"ha":1097,"x_min":75,"x_max":994,"o":"m 994 300 l 994 0 l 75 0 l 75 16 l 661 1212 l 317 1212 q 280 1196 296 1212 q 264 1159 264 1181 l 264 1087 l 123 1087 l 123 1389 l 986 1389 l 986 1377 l 403 179 l 788 179 q 846 203 821 179 q 871 262 871 228 l 871 300 l 994 300 m 415 1548 l 645 1736 l 720 1633 l 460 1480 l 415 1548 z "},"Ž":{"ha":1097,"x_min":75,"x_max":994,"o":"m 994 300 l 994 0 l 75 0 l 75 16 l 661 1212 l 317 1212 q 280 1196 296 1212 q 264 1159 264 1181 l 264 1087 l 123 1087 l 123 1389 l 986 1389 l 986 1377 l 403 179 l 788 179 q 846 203 821 179 q 871 262 871 228 l 871 300 l 994 300 m 567 1621 l 778 1688 l 778 1599 l 567 1484 l 355 1599 l 355 1688 l 567 1621 z "},"Ż":{"ha":1097,"x_min":75,"x_max":994,"o":"m 994 300 l 994 0 l 75 0 l 75 16 l 661 1212 l 317 1212 q 280 1196 296 1212 q 264 1159 264 1181 l 264 1087 l 123 1087 l 123 1389 l 986 1389 l 986 1377 l 403 179 l 788 179 q 846 203 821 179 q 871 262 871 228 l 871 300 l 994 300 m 567 1512 q 509 1538 534 1512 q 484 1597 484 1563 q 509 1656 484 1631 q 567 1681 534 1681 q 626 1656 601 1681 q 651 1597 651 1631 q 626 1538 651 1563 q 567 1512 601 1512 z "},"a":{"ha":1163,"x_min":79,"x_max":1083,"o":"m 1083 105 l 1083 0 l 726 0 l 726 105 l 738 105 q 770 121 758 105 q 774 157 782 137 l 720 312 l 403 312 l 355 155 q 353 145 353 151 q 366 117 353 129 q 397 105 379 105 l 397 0 l 79 0 l 79 105 l 91 105 q 154 127 125 105 q 192 183 183 149 l 504 1157 l 631 1157 l 974 177 q 1012 125 984 145 q 1073 105 1040 105 l 1083 105 m 673 450 l 552 806 l 444 450 l 673 450 z "},"á":{"ha":1163,"x_min":79,"x_max":1083,"o":"m 1083 105 l 1083 0 l 726 0 l 726 105 l 738 105 q 770 121 758 105 q 774 157 782 137 l 720 312 l 403 312 l 355 155 q 353 145 353 151 q 366 117 353 129 q 397 105 379 105 l 397 0 l 79 0 l 79 105 l 91 105 q 154 127 125 105 q 192 183 183 149 l 504 1157 l 631 1157 l 974 177 q 1012 125 984 145 q 1073 105 1040 105 l 1083 105 m 673 450 l 552 806 l 444 450 l 673 450 m 417 1315 l 647 1504 l 722 1401 l 462 1248 l 417 1315 z "},"ă":{"ha":1163,"x_min":79,"x_max":1083,"o":"m 1083 105 l 1083 0 l 726 0 l 726 105 l 738 105 q 770 121 758 105 q 774 157 782 137 l 720 312 l 403 312 l 355 155 q 353 145 353 151 q 366 117 353 129 q 397 105 379 105 l 397 0 l 79 0 l 79 105 l 91 105 q 154 127 125 105 q 192 183 183 149 l 504 1157 l 631 1157 l 974 177 q 1012 125 984 145 q 1073 105 1040 105 l 1083 105 m 673 450 l 552 806 l 444 450 l 673 450 m 569 1252 q 434 1293 500 1252 q 349 1387 367 1333 l 389 1442 q 472 1386 425 1405 q 569 1367 520 1367 q 750 1442 683 1367 l 790 1387 q 702 1293 768 1333 q 569 1252 637 1252 z "},"ắ":{"ha":1163,"x_min":79,"x_max":1083,"o":"m 1083 105 l 1083 0 l 726 0 l 726 105 l 738 105 q 770 121 758 105 q 774 157 782 137 l 720 312 l 403 312 l 355 155 q 353 145 353 151 q 366 117 353 129 q 397 105 379 105 l 397 0 l 79 0 l 79 105 l 91 105 q 154 127 125 105 q 192 183 183 149 l 504 1157 l 631 1157 l 974 177 q 1012 125 984 145 q 1073 105 1040 105 l 1083 105 m 673 450 l 552 806 l 444 450 l 673 450 z "},"ặ":{"ha":1163,"x_min":79,"x_max":1083,"o":"m 1083 105 l 1083 0 l 726 0 l 726 105 l 738 105 q 770 121 758 105 q 774 157 782 137 l 720 312 l 403 312 l 355 155 q 353 145 353 151 q 366 117 353 129 q 397 105 379 105 l 397 0 l 79 0 l 79 105 l 91 105 q 154 127 125 105 q 192 183 183 149 l 504 1157 l 631 1157 l 974 177 q 1012 125 984 145 q 1073 105 1040 105 l 1083 105 m 673 450 l 552 806 l 444 450 l 673 450 m 560 -294 q 501 -268 526 -294 q 476 -208 476 -242 q 501 -150 476 -175 q 560 -125 526 -125 q 618 -150 593 -125 q 643 -208 643 -175 q 618 -268 643 -242 q 560 -294 593 -294 m 569 1252 q 434 1293 500 1252 q 349 1387 367 1333 l 389 1442 q 472 1386 425 1405 q 569 1367 520 1367 q 750 1442 683 1367 l 790 1387 q 702 1293 768 1333 q 569 1252 637 1252 z "},"ằ":{"ha":1163,"x_min":79,"x_max":1083,"o":"m 1083 105 l 1083 0 l 726 0 l 726 105 l 738 105 q 770 121 758 105 q 774 157 782 137 l 720 312 l 403 312 l 355 155 q 353 145 353 151 q 366 117 353 129 q 397 105 379 105 l 397 0 l 79 0 l 79 105 l 91 105 q 154 127 125 105 q 192 183 183 149 l 504 1157 l 631 1157 l 974 177 q 1012 125 984 145 q 1073 105 1040 105 l 1083 105 m 673 450 l 552 806 l 444 450 l 673 450 z "},"ẳ":{"ha":1163,"x_min":79,"x_max":1083,"o":"m 1083 105 l 1083 0 l 726 0 l 726 105 l 738 105 q 770 121 758 105 q 774 157 782 137 l 720 312 l 403 312 l 355 155 q 353 145 353 151 q 366 117 353 129 q 397 105 379 105 l 397 0 l 79 0 l 79 105 l 91 105 q 154 127 125 105 q 192 183 183 149 l 504 1157 l 631 1157 l 974 177 q 1012 125 984 145 q 1073 105 1040 105 l 1083 105 m 673 450 l 552 806 l 444 450 l 673 450 m 530 1470 q 548 1526 534 1504 q 583 1567 562 1548 q 609 1597 601 1585 q 617 1627 617 1609 q 602 1665 617 1653 q 565 1677 587 1677 q 500 1651 530 1677 l 460 1712 q 583 1770 512 1770 q 681 1730 637 1770 q 718 1641 718 1692 q 700 1576 718 1607 q 649 1524 683 1546 q 605 1470 609 1494 l 530 1470 m 569 1252 q 434 1293 500 1252 q 349 1387 367 1333 l 389 1442 q 472 1386 425 1405 q 569 1367 520 1367 q 750 1442 683 1367 l 790 1387 q 702 1293 768 1333 q 569 1252 637 1252 z "},"ẵ":{"ha":1163,"x_min":79,"x_max":1083,"o":"m 1083 105 l 1083 0 l 726 0 l 726 105 l 738 105 q 770 121 758 105 q 774 157 782 137 l 720 312 l 403 312 l 355 155 q 353 145 353 151 q 366 117 353 129 q 397 105 379 105 l 397 0 l 79 0 l 79 105 l 91 105 q 154 127 125 105 q 192 183 183 149 l 504 1157 l 631 1157 l 974 177 q 1012 125 984 145 q 1073 105 1040 105 l 1083 105 m 673 450 l 552 806 l 444 450 l 673 450 z "},"ǎ":{"ha":1163,"x_min":79,"x_max":1083,"o":"m 1083 105 l 1083 0 l 726 0 l 726 105 l 738 105 q 770 121 758 105 q 774 157 782 137 l 720 312 l 403 312 l 355 155 q 353 145 353 151 q 366 117 353 129 q 397 105 379 105 l 397 0 l 79 0 l 79 105 l 91 105 q 154 127 125 105 q 192 183 183 149 l 504 1157 l 631 1157 l 974 177 q 1012 125 984 145 q 1073 105 1040 105 l 1083 105 m 673 450 l 552 806 l 444 450 l 673 450 m 569 1389 l 780 1456 l 780 1367 l 569 1252 l 357 1367 l 357 1456 l 569 1389 z "},"â":{"ha":1163,"x_min":79,"x_max":1083,"o":"m 1083 105 l 1083 0 l 726 0 l 726 105 l 738 105 q 770 121 758 105 q 774 157 782 137 l 720 312 l 403 312 l 355 155 q 353 145 353 151 q 366 117 353 129 q 397 105 379 105 l 397 0 l 79 0 l 79 105 l 91 105 q 154 127 125 105 q 192 183 183 149 l 504 1157 l 631 1157 l 974 177 q 1012 125 984 145 q 1073 105 1040 105 l 1083 105 m 673 450 l 552 806 l 444 450 l 673 450 m 357 1317 l 569 1433 l 780 1317 l 780 1228 l 569 1296 l 357 1228 l 357 1317 z "},"ấ":{"ha":1163,"x_min":79,"x_max":1083,"o":"m 1083 105 l 1083 0 l 726 0 l 726 105 l 738 105 q 770 121 758 105 q 774 157 782 137 l 720 312 l 403 312 l 355 155 q 353 145 353 151 q 366 117 353 129 q 397 105 379 105 l 397 0 l 79 0 l 79 105 l 91 105 q 154 127 125 105 q 192 183 183 149 l 504 1157 l 631 1157 l 974 177 q 1012 125 984 145 q 1073 105 1040 105 l 1083 105 m 673 450 l 552 806 l 444 450 l 673 450 z "},"ậ":{"ha":1163,"x_min":79,"x_max":1083,"o":"m 1083 105 l 1083 0 l 726 0 l 726 105 l 738 105 q 770 121 758 105 q 774 157 782 137 l 720 312 l 403 312 l 355 155 q 353 145 353 151 q 366 117 353 129 q 397 105 379 105 l 397 0 l 79 0 l 79 105 l 91 105 q 154 127 125 105 q 192 183 183 149 l 504 1157 l 631 1157 l 974 177 q 1012 125 984 145 q 1073 105 1040 105 l 1083 105 m 673 450 l 552 806 l 444 450 l 673 450 m 560 -294 q 501 -268 526 -294 q 476 -208 476 -242 q 501 -150 476 -175 q 560 -125 526 -125 q 618 -150 593 -125 q 643 -208 643 -175 q 618 -268 643 -242 q 560 -294 593 -294 m 357 1317 l 569 1433 l 780 1317 l 780 1228 l 569 1296 l 357 1228 l 357 1317 z "},"ầ":{"ha":1163,"x_min":79,"x_max":1083,"o":"m 1083 105 l 1083 0 l 726 0 l 726 105 l 738 105 q 770 121 758 105 q 774 157 782 137 l 720 312 l 403 312 l 355 155 q 353 145 353 151 q 366 117 353 129 q 397 105 379 105 l 397 0 l 79 0 l 79 105 l 91 105 q 154 127 125 105 q 192 183 183 149 l 504 1157 l 631 1157 l 974 177 q 1012 125 984 145 q 1073 105 1040 105 l 1083 105 m 673 450 l 552 806 l 444 450 l 673 450 m 603 1562 l 687 1659 l 903 1454 l 853 1391 l 603 1562 m 357 1315 l 569 1431 l 780 1315 l 780 1226 l 569 1294 l 357 1226 l 357 1315 z "},"ẩ":{"ha":1163,"x_min":79,"x_max":1083,"o":"m 1083 105 l 1083 0 l 726 0 l 726 105 l 738 105 q 770 121 758 105 q 774 157 782 137 l 720 312 l 403 312 l 355 155 q 353 145 353 151 q 366 117 353 129 q 397 105 379 105 l 397 0 l 79 0 l 79 105 l 91 105 q 154 127 125 105 q 192 183 183 149 l 504 1157 l 631 1157 l 974 177 q 1012 125 984 145 q 1073 105 1040 105 l 1083 105 m 673 450 l 552 806 l 444 450 l 673 450 m 698 1444 q 716 1500 702 1478 q 752 1542 730 1522 q 778 1571 770 1560 q 786 1601 786 1583 q 771 1639 786 1627 q 734 1651 756 1651 q 669 1625 698 1651 l 629 1687 q 752 1744 681 1744 q 849 1704 806 1744 q 887 1615 887 1667 q 869 1551 887 1581 q 817 1498 851 1520 q 774 1444 778 1468 l 698 1444 m 357 1317 l 569 1433 l 780 1317 l 780 1228 l 569 1296 l 357 1228 l 357 1317 z "},"ẫ":{"ha":1163,"x_min":79,"x_max":1083,"o":"m 1083 105 l 1083 0 l 726 0 l 726 105 l 738 105 q 770 121 758 105 q 774 157 782 137 l 720 312 l 403 312 l 355 155 q 353 145 353 151 q 366 117 353 129 q 397 105 379 105 l 397 0 l 79 0 l 79 105 l 91 105 q 154 127 125 105 q 192 183 183 149 l 504 1157 l 631 1157 l 974 177 q 1012 125 984 145 q 1073 105 1040 105 l 1083 105 m 673 450 l 552 806 l 444 450 l 673 450 z "},"ä":{"ha":1163,"x_min":79,"x_max":1083,"o":"m 1083 105 l 1083 0 l 726 0 l 726 105 l 738 105 q 770 121 758 105 q 774 157 782 137 l 720 312 l 403 312 l 355 155 q 353 145 353 151 q 366 117 353 129 q 397 105 379 105 l 397 0 l 79 0 l 79 105 l 91 105 q 154 127 125 105 q 192 183 183 149 l 504 1157 l 631 1157 l 974 177 q 1012 125 984 145 q 1073 105 1040 105 l 1083 105 m 673 450 l 552 806 l 444 450 l 673 450 m 401 1280 q 342 1306 367 1280 q 317 1365 317 1331 q 342 1424 317 1399 q 401 1448 367 1448 q 459 1424 435 1448 q 484 1365 484 1399 q 459 1306 484 1331 q 401 1280 435 1280 m 736 1280 q 678 1306 702 1280 q 653 1365 653 1331 q 678 1424 653 1399 q 736 1448 702 1448 q 795 1424 770 1448 q 819 1365 819 1399 q 795 1306 819 1331 q 736 1280 770 1280 z "},"ạ":{"ha":1163,"x_min":79,"x_max":1083,"o":"m 1083 105 l 1083 0 l 726 0 l 726 105 l 738 105 q 770 121 758 105 q 774 157 782 137 l 720 312 l 403 312 l 355 155 q 353 145 353 151 q 366 117 353 129 q 397 105 379 105 l 397 0 l 79 0 l 79 105 l 91 105 q 154 127 125 105 q 192 183 183 149 l 504 1157 l 631 1157 l 974 177 q 1012 125 984 145 q 1073 105 1040 105 l 1083 105 m 673 450 l 552 806 l 444 450 l 673 450 m 560 -294 q 501 -268 526 -294 q 476 -208 476 -242 q 501 -150 476 -175 q 560 -125 526 -125 q 618 -150 593 -125 q 643 -208 643 -175 q 618 -268 643 -242 q 560 -294 593 -294 z "},"à":{"ha":1163,"x_min":79,"x_max":1083,"o":"m 1083 105 l 1083 0 l 726 0 l 726 105 l 738 105 q 770 121 758 105 q 774 157 782 137 l 720 312 l 403 312 l 355 155 q 353 145 353 151 q 366 117 353 129 q 397 105 379 105 l 397 0 l 79 0 l 79 105 l 91 105 q 154 127 125 105 q 192 183 183 149 l 504 1157 l 631 1157 l 974 177 q 1012 125 984 145 q 1073 105 1040 105 l 1083 105 m 673 450 l 552 806 l 444 450 l 673 450 m 421 1401 l 496 1504 l 726 1315 l 681 1248 l 421 1401 z "},"ả":{"ha":1163,"x_min":79,"x_max":1083,"o":"m 1083 105 l 1083 0 l 726 0 l 726 105 l 738 105 q 770 121 758 105 q 774 157 782 137 l 720 312 l 403 312 l 355 155 q 353 145 353 151 q 366 117 353 129 q 397 105 379 105 l 397 0 l 79 0 l 79 105 l 91 105 q 154 127 125 105 q 192 183 183 149 l 504 1157 l 631 1157 l 974 177 q 1012 125 984 145 q 1073 105 1040 105 l 1083 105 m 673 450 l 552 806 l 444 450 l 673 450 m 528 1270 q 546 1326 532 1306 q 583 1371 560 1347 q 611 1403 603 1391 q 619 1433 619 1415 q 617 1450 619 1444 q 565 1486 609 1486 q 529 1479 548 1486 q 498 1458 510 1472 l 456 1522 q 514 1566 480 1552 q 583 1581 548 1581 q 685 1542 645 1581 q 724 1448 724 1502 q 705 1382 724 1415 q 653 1325 687 1349 q 607 1270 613 1298 l 528 1270 z "},"ā":{"ha":1163,"x_min":79,"x_max":1083,"o":"m 1083 105 l 1083 0 l 726 0 l 726 105 l 738 105 q 770 121 758 105 q 774 157 782 137 l 720 312 l 403 312 l 355 155 q 353 145 353 151 q 366 117 353 129 q 397 105 379 105 l 397 0 l 79 0 l 79 105 l 91 105 q 154 127 125 105 q 192 183 183 149 l 504 1157 l 631 1157 l 974 177 q 1012 125 984 145 q 1073 105 1040 105 l 1083 105 m 673 450 l 552 806 l 444 450 l 673 450 m 353 1377 l 784 1377 l 784 1268 l 353 1268 l 353 1377 z "},"ą":{"ha":1163,"x_min":79,"x_max":1083,"o":"m 950 0 q 868 -36 903 -2 q 833 -111 833 -69 q 851 -161 833 -143 q 897 -179 869 -179 q 958 -157 925 -179 l 992 -202 q 871 -266 946 -266 q 777 -229 817 -266 q 736 -133 736 -192 q 813 0 736 -44 l 726 0 l 726 105 l 738 105 q 770 121 758 105 q 774 157 782 137 l 720 312 l 403 312 l 355 155 q 353 145 353 151 q 366 117 353 129 q 397 105 379 105 l 397 0 l 79 0 l 79 105 l 91 105 q 154 127 125 105 q 192 183 183 149 l 504 1157 l 631 1157 l 974 177 q 1012 125 984 145 q 1073 105 1040 105 l 1083 105 l 1083 0 l 950 0 m 673 450 l 552 806 l 444 450 l 673 450 z "},"å":{"ha":1163,"x_min":79,"x_max":1083,"o":"m 1083 105 l 1083 0 l 726 0 l 726 105 l 738 105 q 770 121 758 105 q 774 157 782 137 l 720 312 l 403 312 l 355 155 q 353 145 353 151 q 366 117 353 129 q 397 105 379 105 l 397 0 l 79 0 l 79 105 l 91 105 q 154 127 125 105 q 192 183 183 149 l 486 1103 q 425 1166 448 1127 q 401 1248 401 1204 q 450 1363 401 1315 q 567 1411 500 1411 q 682 1361 631 1411 q 732 1248 732 1312 q 709 1165 732 1202 q 649 1103 687 1127 l 974 177 q 1012 125 984 145 q 1073 105 1040 105 l 1083 105 m 567 1331 q 507 1308 532 1331 q 482 1248 482 1284 q 506 1186 482 1210 q 567 1161 530 1161 q 627 1186 603 1161 q 651 1248 651 1210 q 627 1307 651 1282 q 567 1331 603 1331 m 673 450 l 552 806 l 444 450 l 673 450 z "},"ã":{"ha":1163,"x_min":79,"x_max":1083,"o":"m 1083 105 l 1083 0 l 726 0 l 726 105 l 738 105 q 770 121 758 105 q 774 157 782 137 l 720 312 l 403 312 l 355 155 q 353 145 353 151 q 366 117 353 129 q 397 105 379 105 l 397 0 l 79 0 l 79 105 l 91 105 q 154 127 125 105 q 192 183 183 149 l 504 1157 l 631 1157 l 974 177 q 1012 125 984 145 q 1073 105 1040 105 l 1083 105 m 673 450 l 552 806 l 444 450 l 673 450 m 550 1272 q 440 1300 490 1300 q 363 1274 395 1300 l 351 1355 q 460 1405 383 1405 q 583 1377 522 1405 q 690 1351 647 1351 q 768 1379 736 1351 l 782 1300 q 734 1259 766 1274 q 663 1244 702 1244 q 550 1272 611 1244 z "},"æ":{"ha":1448,"x_min":73,"x_max":1361,"o":"m 1361 274 l 1361 0 l 643 0 l 643 81 l 671 81 q 698 93 687 81 q 710 121 710 105 l 710 310 l 442 310 l 349 155 q 343 139 343 147 q 357 115 343 125 q 385 105 371 105 l 385 0 l 73 0 l 73 105 l 85 105 q 143 124 119 105 q 188 183 167 143 l 688 1008 q 694 1026 694 1018 q 677 1044 694 1044 l 641 1044 l 641 1157 l 1302 1157 l 1302 935 l 1204 935 l 1204 964 q 1193 991 1204 980 q 1169 1002 1183 1002 l 905 1002 l 905 734 l 1087 734 q 1117 746 1105 734 q 1129 776 1129 758 l 1129 804 l 1234 804 l 1234 512 l 1129 512 l 1129 544 q 1117 573 1129 562 q 1087 585 1105 585 l 905 585 l 905 137 l 1190 137 q 1248 161 1224 137 q 1272 220 1272 185 l 1272 274 l 1361 274 m 710 448 l 710 756 l 526 448 l 710 448 z "},"b":{"ha":944,"x_min":103,"x_max":869,"o":"m 657 720 q 811 596 752 688 q 869 393 869 504 q 820 199 869 290 q 682 55 772 109 q 470 0 591 0 l 105 0 l 105 103 l 147 103 q 172 114 161 103 q 183 139 183 125 l 183 1008 q 171 1036 183 1024 q 143 1048 159 1048 l 103 1048 l 103 1157 l 490 1157 q 683 1089 607 1159 q 758 897 758 1020 q 657 720 758 788 m 375 772 q 450 766 405 764 q 536 799 494 768 q 577 901 577 829 q 540 989 577 952 q 444 1026 502 1026 q 375 1006 401 1026 l 375 772 m 468 125 q 626 196 575 125 q 677 379 677 268 q 621 558 677 494 q 484 635 565 621 q 427 641 452 641 q 377 635 401 641 l 377 149 q 398 136 379 147 q 468 125 417 125 z "},"c":{"ha":1075,"x_min":60,"x_max":984,"o":"m 615 -42 q 326 38 452 -42 q 130 258 200 117 q 60 575 60 399 q 136 912 60 772 q 341 1124 212 1052 q 627 1196 470 1196 q 845 1153 744 1196 q 891 1139 877 1139 q 929 1169 915 1139 l 984 1169 l 984 859 l 889 859 q 846 967 889 923 q 740 1034 804 1012 q 615 1056 677 1056 q 461 1008 548 1056 q 312 855 375 960 q 248 589 248 750 q 301 321 248 433 q 439 155 353 210 q 623 99 526 99 q 808 147 736 99 q 879 296 879 194 l 984 296 l 984 58 q 802 -20 891 2 q 615 -42 712 -42 z "},"ć":{"ha":1075,"x_min":60,"x_max":984,"o":"m 615 -42 q 326 38 452 -42 q 130 258 200 117 q 60 575 60 399 q 136 912 60 772 q 341 1124 212 1052 q 627 1196 470 1196 q 845 1153 744 1196 q 891 1139 877 1139 q 929 1169 915 1139 l 984 1169 l 984 859 l 889 859 q 846 967 889 923 q 740 1034 804 1012 q 615 1056 677 1056 q 461 1008 548 1056 q 312 855 375 960 q 248 589 248 750 q 301 321 248 433 q 439 155 353 210 q 623 99 526 99 q 808 147 736 99 q 879 296 879 194 l 984 296 l 984 58 q 802 -20 891 2 q 615 -42 712 -42 m 464 1343 l 694 1532 l 770 1429 l 510 1276 l 464 1343 z "},"č":{"ha":1075,"x_min":60,"x_max":984,"o":"m 615 -42 q 326 38 452 -42 q 130 258 200 117 q 60 575 60 399 q 136 912 60 772 q 341 1124 212 1052 q 627 1196 470 1196 q 845 1153 744 1196 q 891 1139 877 1139 q 929 1169 915 1139 l 984 1169 l 984 859 l 889 859 q 846 967 889 923 q 740 1034 804 1012 q 615 1056 677 1056 q 461 1008 548 1056 q 312 855 375 960 q 248 589 248 750 q 301 321 248 433 q 439 155 353 210 q 623 99 526 99 q 808 147 736 99 q 879 296 879 194 l 984 296 l 984 58 q 802 -20 891 2 q 615 -42 712 -42 m 617 1417 l 827 1484 l 827 1395 l 617 1280 l 405 1395 l 405 1484 l 617 1417 z "},"ç":{"ha":1075,"x_min":60,"x_max":984,"o":"m 615 1056 q 461 1008 548 1056 q 312 855 375 960 q 248 589 248 750 q 301 321 248 433 q 439 155 353 210 q 623 99 526 99 q 808 147 736 99 q 879 296 879 194 l 984 296 l 984 58 q 657 -42 837 -32 l 639 -75 q 698 -120 673 -89 q 724 -200 724 -151 q 683 -296 724 -260 q 583 -331 641 -331 q 518 -315 550 -331 q 466 -268 486 -300 l 506 -222 q 565 -246 530 -246 q 604 -235 587 -246 q 623 -206 621 -224 q 598 -148 625 -169 q 520 -127 571 -127 l 562 -40 q 299 57 413 -26 q 122 274 185 139 q 60 575 60 409 q 136 912 60 772 q 341 1124 212 1052 q 627 1196 470 1196 q 845 1153 744 1196 q 891 1139 877 1139 q 929 1169 915 1139 l 984 1169 l 984 859 l 889 859 q 846 967 889 923 q 740 1034 804 1012 q 615 1056 677 1056 z "},"ċ":{"ha":1075,"x_min":60,"x_max":984,"o":"m 615 -42 q 326 38 452 -42 q 130 258 200 117 q 60 575 60 399 q 136 912 60 772 q 341 1124 212 1052 q 627 1196 470 1196 q 845 1153 744 1196 q 891 1139 877 1139 q 929 1169 915 1139 l 984 1169 l 984 859 l 889 859 q 846 967 889 923 q 740 1034 804 1012 q 615 1056 677 1056 q 461 1008 548 1056 q 312 855 375 960 q 248 589 248 750 q 301 321 248 433 q 439 155 353 210 q 623 99 526 99 q 808 147 736 99 q 879 296 879 194 l 984 296 l 984 58 q 802 -20 891 2 q 615 -42 712 -42 m 617 1308 q 559 1333 583 1308 q 534 1393 534 1359 q 559 1451 534 1427 q 617 1476 583 1476 q 676 1451 651 1476 q 700 1393 700 1427 q 676 1333 700 1359 q 617 1308 651 1308 z "},"d":{"ha":1129,"x_min":99,"x_max":1069,"o":"m 815 1063 q 992 889 915 996 q 1069 587 1069 782 q 988 269 1069 401 q 784 70 907 137 q 538 2 661 4 l 363 0 l 99 0 l 99 101 l 135 101 q 166 114 153 101 q 179 145 179 127 l 179 1014 q 167 1044 179 1032 q 137 1056 155 1056 l 109 1056 l 109 1157 l 440 1157 q 663 1134 583 1157 q 815 1063 742 1111 m 460 141 q 649 183 554 141 q 811 324 744 224 q 877 587 877 425 q 809 834 877 736 q 643 979 740 933 q 460 1026 546 1026 l 363 1026 l 363 141 l 460 141 z "},"ð":{"ha":1129,"x_min":97,"x_max":1069,"o":"m 815 1063 q 992 889 915 996 q 1069 587 1069 782 q 988 269 1069 401 q 784 70 907 137 q 538 2 661 4 l 363 0 l 99 0 l 99 101 l 135 101 q 166 114 153 101 q 179 145 179 127 l 179 567 l 97 567 l 97 718 l 179 718 l 179 1014 q 167 1044 179 1032 q 137 1056 155 1056 l 109 1056 l 109 1157 l 440 1157 q 663 1134 583 1157 q 815 1063 742 1111 m 460 141 q 649 183 554 141 q 811 324 744 224 q 877 587 877 425 q 809 834 877 736 q 643 979 740 933 q 460 1026 546 1026 l 363 1026 l 363 718 l 573 718 l 573 567 l 363 567 l 363 141 l 460 141 z "},"ď":{"ha":1397,"x_min":99,"x_max":1321,"o":"m 815 1063 q 992 889 915 996 q 1069 587 1069 782 q 988 269 1069 401 q 784 70 907 137 q 538 2 661 4 l 363 0 l 99 0 l 99 101 l 135 101 q 166 114 153 101 q 179 145 179 127 l 179 1014 q 167 1044 179 1032 q 137 1056 155 1056 l 109 1056 l 109 1157 l 440 1157 q 663 1134 583 1157 q 815 1063 742 1111 m 460 141 q 649 183 554 141 q 811 324 744 224 q 877 587 877 425 q 809 834 877 736 q 643 979 740 933 q 460 1026 546 1026 l 363 1026 l 363 141 l 460 141 m 1153 889 q 1198 973 1177 925 q 1222 1050 1220 1022 q 1208 1064 1214 1054 q 1200 1087 1202 1075 q 1213 1137 1196 1115 q 1260 1159 1230 1159 q 1305 1137 1288 1159 q 1321 1085 1321 1115 q 1271 966 1321 1026 q 1161 877 1220 907 l 1153 889 z "},"đ":{"ha":1129,"x_min":97,"x_max":1069,"o":"m 815 1063 q 992 889 915 996 q 1069 587 1069 782 q 988 269 1069 401 q 784 70 907 137 q 538 2 661 4 l 363 0 l 99 0 l 99 101 l 135 101 q 166 114 153 101 q 179 145 179 127 l 179 567 l 97 567 l 97 718 l 179 718 l 179 1014 q 167 1044 179 1032 q 137 1056 155 1056 l 109 1056 l 109 1157 l 440 1157 q 663 1134 583 1157 q 815 1063 742 1111 m 460 141 q 649 183 554 141 q 811 324 744 224 q 877 587 877 425 q 809 834 877 736 q 643 979 740 933 q 460 1026 546 1026 l 363 1026 l 363 718 l 573 718 l 573 567 l 363 567 l 363 141 l 460 141 z "},"e":{"ha":905,"x_min":99,"x_max":819,"o":"m 819 274 l 819 0 l 101 0 l 101 81 l 129 81 q 157 93 145 81 q 169 121 169 105 l 169 1008 q 159 1034 169 1024 q 133 1044 149 1044 l 99 1044 l 99 1157 l 760 1157 l 760 935 l 663 935 l 663 964 q 652 991 663 980 q 627 1002 641 1002 l 363 1002 l 363 734 l 546 734 q 575 746 563 734 q 587 776 587 758 l 587 804 l 692 804 l 692 512 l 587 512 l 587 544 q 575 573 587 562 q 546 585 563 585 l 363 585 l 363 137 l 649 137 q 706 161 683 137 q 730 220 730 185 l 730 274 l 819 274 z "},"é":{"ha":905,"x_min":99,"x_max":819,"o":"m 819 274 l 819 0 l 101 0 l 101 81 l 129 81 q 157 93 145 81 q 169 121 169 105 l 169 1008 q 159 1034 169 1024 q 133 1044 149 1044 l 99 1044 l 99 1157 l 760 1157 l 760 935 l 663 935 l 663 964 q 652 991 663 980 q 627 1002 641 1002 l 363 1002 l 363 734 l 546 734 q 575 746 563 734 q 587 776 587 758 l 587 804 l 692 804 l 692 512 l 587 512 l 587 544 q 575 573 587 562 q 546 585 563 585 l 363 585 l 363 137 l 649 137 q 706 161 683 137 q 730 220 730 185 l 730 274 l 819 274 m 294 1315 l 524 1504 l 599 1401 l 339 1248 l 294 1315 z "},"ě":{"ha":905,"x_min":99,"x_max":819,"o":"m 819 274 l 819 0 l 101 0 l 101 81 l 129 81 q 157 93 145 81 q 169 121 169 105 l 169 1008 q 159 1034 169 1024 q 133 1044 149 1044 l 99 1044 l 99 1157 l 760 1157 l 760 935 l 663 935 l 663 964 q 652 991 663 980 q 627 1002 641 1002 l 363 1002 l 363 734 l 546 734 q 575 746 563 734 q 587 776 587 758 l 587 804 l 692 804 l 692 512 l 587 512 l 587 544 q 575 573 587 562 q 546 585 563 585 l 363 585 l 363 137 l 649 137 q 706 161 683 137 q 730 220 730 185 l 730 274 l 819 274 m 446 1389 l 657 1456 l 657 1367 l 446 1252 l 234 1367 l 234 1456 l 446 1389 z "},"ê":{"ha":905,"x_min":99,"x_max":819,"o":"m 819 274 l 819 0 l 101 0 l 101 81 l 129 81 q 157 93 145 81 q 169 121 169 105 l 169 1008 q 159 1034 169 1024 q 133 1044 149 1044 l 99 1044 l 99 1157 l 760 1157 l 760 935 l 663 935 l 663 964 q 652 991 663 980 q 627 1002 641 1002 l 363 1002 l 363 734 l 546 734 q 575 746 563 734 q 587 776 587 758 l 587 804 l 692 804 l 692 512 l 587 512 l 587 544 q 575 573 587 562 q 546 585 563 585 l 363 585 l 363 137 l 649 137 q 706 161 683 137 q 730 220 730 185 l 730 274 l 819 274 m 234 1341 l 446 1456 l 657 1341 l 657 1252 l 446 1319 l 234 1252 l 234 1341 z "},"ế":{"ha":905,"x_min":99,"x_max":897,"o":"m 819 274 l 819 0 l 101 0 l 101 81 l 129 81 q 157 93 145 81 q 169 121 169 105 l 169 1008 q 159 1034 169 1024 q 133 1044 149 1044 l 99 1044 l 99 1157 l 760 1157 l 760 935 l 663 935 l 663 964 q 652 991 663 980 q 627 1002 641 1002 l 363 1002 l 363 734 l 546 734 q 575 746 563 734 q 587 776 587 758 l 587 804 l 692 804 l 692 512 l 587 512 l 587 544 q 575 573 587 562 q 546 585 563 585 l 363 585 l 363 137 l 649 137 q 706 161 683 137 q 730 220 730 185 l 730 274 l 819 274 z "},"ệ":{"ha":905,"x_min":99,"x_max":819,"o":"m 819 274 l 819 0 l 101 0 l 101 81 l 129 81 q 157 93 145 81 q 169 121 169 105 l 169 1008 q 159 1034 169 1024 q 133 1044 149 1044 l 99 1044 l 99 1157 l 760 1157 l 760 935 l 663 935 l 663 964 q 652 991 663 980 q 627 1002 641 1002 l 363 1002 l 363 734 l 546 734 q 575 746 563 734 q 587 776 587 758 l 587 804 l 692 804 l 692 512 l 587 512 l 587 544 q 575 573 587 562 q 546 585 563 585 l 363 585 l 363 137 l 649 137 q 706 161 683 137 q 730 220 730 185 l 730 274 l 819 274 m 474 -294 q 416 -268 440 -294 q 391 -208 391 -242 q 416 -150 391 -175 q 474 -125 440 -125 q 533 -150 508 -125 q 558 -208 558 -175 q 533 -268 558 -242 q 474 -294 508 -294 m 234 1341 l 446 1456 l 657 1341 l 657 1252 l 446 1319 l 234 1252 l 234 1341 z "},"ề":{"ha":905,"x_min":99,"x_max":819,"o":"m 819 274 l 819 0 l 101 0 l 101 81 l 129 81 q 157 93 145 81 q 169 121 169 105 l 169 1008 q 159 1034 169 1024 q 133 1044 149 1044 l 99 1044 l 99 1157 l 760 1157 l 760 935 l 663 935 l 663 964 q 652 991 663 980 q 627 1002 641 1002 l 363 1002 l 363 734 l 546 734 q 575 746 563 734 q 587 776 587 758 l 587 804 l 692 804 l 692 512 l 587 512 l 587 544 q 575 573 587 562 q 546 585 563 585 l 363 585 l 363 137 l 649 137 q 706 161 683 137 q 730 220 730 185 l 730 274 l 819 274 m 480 1585 l 563 1683 l 780 1478 l 730 1415 l 480 1585 m 234 1339 l 446 1454 l 657 1339 l 657 1250 l 446 1317 l 234 1250 l 234 1339 z "},"ể":{"ha":905,"x_min":99,"x_max":819,"o":"m 819 274 l 819 0 l 101 0 l 101 81 l 129 81 q 157 93 145 81 q 169 121 169 105 l 169 1008 q 159 1034 169 1024 q 133 1044 149 1044 l 99 1044 l 99 1157 l 760 1157 l 760 935 l 663 935 l 663 964 q 652 991 663 980 q 627 1002 641 1002 l 363 1002 l 363 734 l 546 734 q 575 746 563 734 q 587 776 587 758 l 587 804 l 692 804 l 692 512 l 587 512 l 587 544 q 575 573 587 562 q 546 585 563 585 l 363 585 l 363 137 l 649 137 q 706 161 683 137 q 730 220 730 185 l 730 274 l 819 274 m 575 1468 q 593 1524 579 1502 q 629 1565 607 1546 q 655 1595 647 1583 q 663 1625 663 1607 q 648 1663 663 1651 q 611 1675 633 1675 q 546 1649 575 1675 l 506 1710 q 629 1768 558 1768 q 726 1728 683 1768 q 764 1639 764 1690 q 746 1574 764 1605 q 694 1522 728 1544 q 651 1468 655 1492 l 575 1468 m 234 1341 l 446 1456 l 657 1341 l 657 1252 l 446 1319 l 234 1252 l 234 1341 z "},"ễ":{"ha":905,"x_min":99,"x_max":819,"o":"m 819 274 l 819 0 l 101 0 l 101 81 l 129 81 q 157 93 145 81 q 169 121 169 105 l 169 1008 q 159 1034 169 1024 q 133 1044 149 1044 l 99 1044 l 99 1157 l 760 1157 l 760 935 l 663 935 l 663 964 q 652 991 663 980 q 627 1002 641 1002 l 363 1002 l 363 734 l 546 734 q 575 746 563 734 q 587 776 587 758 l 587 804 l 692 804 l 692 512 l 587 512 l 587 544 q 575 573 587 562 q 546 585 563 585 l 363 585 l 363 137 l 649 137 q 706 161 683 137 q 730 220 730 185 l 730 274 l 819 274 z "},"ë":{"ha":905,"x_min":99,"x_max":819,"o":"m 819 274 l 819 0 l 101 0 l 101 81 l 129 81 q 157 93 145 81 q 169 121 169 105 l 169 1008 q 159 1034 169 1024 q 133 1044 149 1044 l 99 1044 l 99 1157 l 760 1157 l 760 935 l 663 935 l 663 964 q 652 991 663 980 q 627 1002 641 1002 l 363 1002 l 363 734 l 546 734 q 575 746 563 734 q 587 776 587 758 l 587 804 l 692 804 l 692 512 l 587 512 l 587 544 q 575 573 587 562 q 546 585 563 585 l 363 585 l 363 137 l 649 137 q 706 161 683 137 q 730 220 730 185 l 730 274 l 819 274 m 278 1280 q 219 1306 244 1280 q 194 1365 194 1331 q 219 1424 194 1399 q 278 1448 244 1448 q 336 1424 312 1448 q 361 1365 361 1399 q 336 1306 361 1331 q 278 1280 312 1280 m 613 1280 q 555 1306 579 1280 q 530 1365 530 1331 q 555 1424 530 1399 q 613 1448 579 1448 q 672 1424 647 1448 q 696 1365 696 1399 q 672 1306 696 1331 q 613 1280 647 1280 z "},"ė":{"ha":905,"x_min":99,"x_max":819,"o":"m 819 274 l 819 0 l 101 0 l 101 81 l 129 81 q 157 93 145 81 q 169 121 169 105 l 169 1008 q 159 1034 169 1024 q 133 1044 149 1044 l 99 1044 l 99 1157 l 760 1157 l 760 935 l 663 935 l 663 964 q 652 991 663 980 q 627 1002 641 1002 l 363 1002 l 363 734 l 546 734 q 575 746 563 734 q 587 776 587 758 l 587 804 l 692 804 l 692 512 l 587 512 l 587 544 q 575 573 587 562 q 546 585 563 585 l 363 585 l 363 137 l 649 137 q 706 161 683 137 q 730 220 730 185 l 730 274 l 819 274 m 446 1280 q 388 1306 413 1280 q 363 1365 363 1331 q 388 1424 363 1399 q 446 1448 413 1448 q 505 1424 480 1448 q 530 1365 530 1399 q 505 1306 530 1331 q 446 1280 480 1280 z "},"ẹ":{"ha":905,"x_min":99,"x_max":819,"o":"m 819 274 l 819 0 l 101 0 l 101 81 l 129 81 q 157 93 145 81 q 169 121 169 105 l 169 1008 q 159 1034 169 1024 q 133 1044 149 1044 l 99 1044 l 99 1157 l 760 1157 l 760 935 l 663 935 l 663 964 q 652 991 663 980 q 627 1002 641 1002 l 363 1002 l 363 734 l 546 734 q 575 746 563 734 q 587 776 587 758 l 587 804 l 692 804 l 692 512 l 587 512 l 587 544 q 575 573 587 562 q 546 585 563 585 l 363 585 l 363 137 l 649 137 q 706 161 683 137 q 730 220 730 185 l 730 274 l 819 274 m 474 -294 q 416 -268 440 -294 q 391 -208 391 -242 q 416 -150 391 -175 q 474 -125 440 -125 q 533 -150 508 -125 q 558 -208 558 -175 q 533 -268 558 -242 q 474 -294 508 -294 z "},"è":{"ha":905,"x_min":99,"x_max":819,"o":"m 819 274 l 819 0 l 101 0 l 101 81 l 129 81 q 157 93 145 81 q 169 121 169 105 l 169 1008 q 159 1034 169 1024 q 133 1044 149 1044 l 99 1044 l 99 1157 l 760 1157 l 760 935 l 663 935 l 663 964 q 652 991 663 980 q 627 1002 641 1002 l 363 1002 l 363 734 l 546 734 q 575 746 563 734 q 587 776 587 758 l 587 804 l 692 804 l 692 512 l 587 512 l 587 544 q 575 573 587 562 q 546 585 563 585 l 363 585 l 363 137 l 649 137 q 706 161 683 137 q 730 220 730 185 l 730 274 l 819 274 m 298 1401 l 373 1504 l 603 1315 l 558 1248 l 298 1401 z "},"ẻ":{"ha":905,"x_min":99,"x_max":819,"o":"m 819 274 l 819 0 l 101 0 l 101 81 l 129 81 q 157 93 145 81 q 169 121 169 105 l 169 1008 q 159 1034 169 1024 q 133 1044 149 1044 l 99 1044 l 99 1157 l 760 1157 l 760 935 l 663 935 l 663 964 q 652 991 663 980 q 627 1002 641 1002 l 363 1002 l 363 734 l 546 734 q 575 746 563 734 q 587 776 587 758 l 587 804 l 692 804 l 692 512 l 587 512 l 587 544 q 575 573 587 562 q 546 585 563 585 l 363 585 l 363 137 l 649 137 q 706 161 683 137 q 730 220 730 185 l 730 274 l 819 274 m 405 1270 q 423 1326 409 1306 q 460 1371 437 1347 q 488 1403 480 1391 q 496 1433 496 1415 q 494 1450 496 1444 q 442 1486 486 1486 q 406 1479 425 1486 q 375 1458 387 1472 l 333 1522 q 391 1566 357 1552 q 460 1581 425 1581 q 562 1542 522 1581 q 601 1448 601 1502 q 582 1382 601 1415 q 530 1325 563 1349 q 484 1270 490 1298 l 405 1270 z "},"ē":{"ha":905,"x_min":99,"x_max":819,"o":"m 819 274 l 819 0 l 101 0 l 101 81 l 129 81 q 157 93 145 81 q 169 121 169 105 l 169 1008 q 159 1034 169 1024 q 133 1044 149 1044 l 99 1044 l 99 1157 l 760 1157 l 760 935 l 663 935 l 663 964 q 652 991 663 980 q 627 1002 641 1002 l 363 1002 l 363 734 l 546 734 q 575 746 563 734 q 587 776 587 758 l 587 804 l 692 804 l 692 512 l 587 512 l 587 544 q 575 573 587 562 q 546 585 563 585 l 363 585 l 363 137 l 649 137 q 706 161 683 137 q 730 220 730 185 l 730 274 l 819 274 m 230 1377 l 661 1377 l 661 1268 l 230 1268 l 230 1377 z "},"ę":{"ha":905,"x_min":99,"x_max":819,"o":"m 558 0 q 475 -36 510 -2 q 440 -111 440 -69 q 458 -161 440 -143 q 504 -179 476 -179 q 565 -157 532 -179 l 599 -202 q 478 -266 554 -266 q 384 -229 425 -266 q 343 -133 343 -192 q 421 0 343 -44 l 101 0 l 101 81 l 129 81 q 157 93 145 81 q 169 121 169 105 l 169 1008 q 159 1034 169 1024 q 133 1044 149 1044 l 99 1044 l 99 1157 l 760 1157 l 760 935 l 663 935 l 663 964 q 652 991 663 980 q 627 1002 641 1002 l 363 1002 l 363 734 l 546 734 q 575 746 563 734 q 587 776 587 758 l 587 804 l 692 804 l 692 512 l 587 512 l 587 544 q 575 573 587 562 q 546 585 563 585 l 363 585 l 363 137 l 649 137 q 706 161 683 137 q 730 220 730 185 l 730 274 l 819 274 l 819 0 l 558 0 z "},"ẽ":{"ha":905,"x_min":99,"x_max":819,"o":"m 819 274 l 819 0 l 101 0 l 101 81 l 129 81 q 157 93 145 81 q 169 121 169 105 l 169 1008 q 159 1034 169 1024 q 133 1044 149 1044 l 99 1044 l 99 1157 l 760 1157 l 760 935 l 663 935 l 663 964 q 652 991 663 980 q 627 1002 641 1002 l 363 1002 l 363 734 l 546 734 q 575 746 563 734 q 587 776 587 758 l 587 804 l 692 804 l 692 512 l 587 512 l 587 544 q 575 573 587 562 q 546 585 563 585 l 363 585 l 363 137 l 649 137 q 706 161 683 137 q 730 220 730 185 l 730 274 l 819 274 m 427 1272 q 317 1300 367 1300 q 240 1274 272 1300 l 228 1355 q 337 1405 260 1405 q 460 1377 399 1405 q 567 1351 524 1351 q 645 1379 613 1351 l 659 1300 q 611 1259 643 1274 q 540 1244 579 1244 q 427 1272 488 1244 z "},"f":{"ha":843,"x_min":99,"x_max":760,"o":"m 663 921 l 663 966 q 653 993 663 982 q 629 1004 643 1004 l 363 1004 l 363 728 l 548 728 q 575 740 563 728 q 587 768 587 752 l 587 802 l 692 802 l 692 506 l 587 506 l 587 536 q 575 565 587 554 q 548 577 563 577 l 363 577 l 363 147 q 379 109 363 125 q 417 93 395 93 l 433 93 l 433 0 l 101 0 l 101 93 l 123 93 q 156 107 143 93 q 169 141 169 121 l 169 1014 q 158 1041 169 1030 q 133 1052 147 1052 l 99 1052 l 99 1157 l 760 1157 l 760 921 l 663 921 z "},"g":{"ha":1183,"x_min":60,"x_max":1119,"o":"m 621 -34 q 339 48 468 -34 q 135 272 210 129 q 60 589 60 415 q 139 915 60 778 q 345 1122 218 1052 q 609 1192 472 1192 q 855 1145 742 1192 q 885 1139 867 1139 q 923 1154 907 1139 q 938 1200 938 1169 l 1004 1200 l 1004 873 l 883 873 q 840 960 877 917 q 744 1033 804 1004 q 619 1062 685 1062 q 448 1015 530 1062 q 314 863 367 968 q 262 591 262 758 q 316 316 262 427 q 457 155 371 206 q 641 103 544 103 q 857 181 788 103 l 855 393 q 842 426 855 413 q 810 438 829 438 l 768 438 l 768 540 l 1119 540 l 1119 438 l 1087 438 q 1057 426 1069 438 q 1044 393 1044 413 l 1044 185 q 1062 148 1044 157 q 1081 137 1079 139 q 877 6 996 46 q 621 -34 758 -34 z "},"ğ":{"ha":1183,"x_min":60,"x_max":1119,"o":"m 621 -34 q 339 48 468 -34 q 135 272 210 129 q 60 589 60 415 q 139 915 60 778 q 345 1122 218 1052 q 609 1192 472 1192 q 855 1145 742 1192 q 885 1139 867 1139 q 923 1154 907 1139 q 938 1200 938 1169 l 1004 1200 l 1004 873 l 883 873 q 840 960 877 917 q 744 1033 804 1004 q 619 1062 685 1062 q 448 1015 530 1062 q 314 863 367 968 q 262 591 262 758 q 316 316 262 427 q 457 155 371 206 q 641 103 544 103 q 857 181 788 103 l 855 393 q 842 426 855 413 q 810 438 829 438 l 768 438 l 768 540 l 1119 540 l 1119 438 l 1087 438 q 1057 426 1069 438 q 1044 393 1044 413 l 1044 185 q 1062 148 1044 157 q 1081 137 1079 139 q 877 6 996 46 q 621 -34 758 -34 m 621 1280 q 485 1320 552 1280 q 401 1415 419 1361 l 440 1470 q 524 1414 476 1433 q 621 1395 571 1395 q 802 1470 734 1395 l 841 1415 q 754 1320 819 1361 q 621 1280 688 1280 z "},"ģ":{"ha":1183,"x_min":60,"x_max":1119,"o":"m 621 -34 q 339 48 468 -34 q 135 272 210 129 q 60 589 60 415 q 139 915 60 778 q 345 1122 218 1052 q 609 1192 472 1192 q 855 1145 742 1192 q 885 1139 867 1139 q 923 1154 907 1139 q 938 1200 938 1169 l 1004 1200 l 1004 873 l 883 873 q 840 960 877 917 q 744 1033 804 1004 q 619 1062 685 1062 q 448 1015 530 1062 q 314 863 367 968 q 262 591 262 758 q 316 316 262 427 q 457 155 371 206 q 641 103 544 103 q 857 181 788 103 l 855 393 q 842 426 855 413 q 810 438 829 438 l 768 438 l 768 540 l 1119 540 l 1119 438 l 1087 438 q 1057 426 1069 438 q 1044 393 1044 413 l 1044 185 q 1062 148 1044 157 q 1081 137 1079 139 q 877 6 996 46 q 621 -34 758 -34 m 758 1563 q 762 1558 760 1562 q 766 1552 764 1554 q 708 1473 736 1518 q 675 1401 681 1429 q 690 1361 690 1385 q 674 1316 690 1335 q 631 1298 657 1298 q 589 1313 607 1296 q 567 1357 571 1331 q 625 1480 563 1421 q 758 1563 687 1540 z "},"ġ":{"ha":1183,"x_min":60,"x_max":1119,"o":"m 621 -34 q 339 48 468 -34 q 135 272 210 129 q 60 589 60 415 q 139 915 60 778 q 345 1122 218 1052 q 609 1192 472 1192 q 855 1145 742 1192 q 885 1139 867 1139 q 923 1154 907 1139 q 938 1200 938 1169 l 1004 1200 l 1004 873 l 883 873 q 840 960 877 917 q 744 1033 804 1004 q 619 1062 685 1062 q 448 1015 530 1062 q 314 863 367 968 q 262 591 262 758 q 316 316 262 427 q 457 155 371 206 q 641 103 544 103 q 857 181 788 103 l 855 393 q 842 426 855 413 q 810 438 829 438 l 768 438 l 768 540 l 1119 540 l 1119 438 l 1087 438 q 1057 426 1069 438 q 1044 393 1044 413 l 1044 185 q 1062 148 1044 157 q 1081 137 1079 139 q 877 6 996 46 q 621 -34 758 -34 m 621 1308 q 563 1333 587 1308 q 538 1393 538 1359 q 563 1451 538 1427 q 621 1476 587 1476 q 680 1451 655 1476 q 704 1393 704 1427 q 680 1333 704 1359 q 621 1308 655 1308 z "},"h":{"ha":1171,"x_min":99,"x_max":1071,"o":"m 1032 1054 q 999 1041 1012 1054 q 986 1010 986 1028 l 986 151 q 999 118 986 131 q 1032 105 1012 105 l 1067 105 l 1067 -2 l 718 -2 l 718 105 l 754 105 q 785 118 772 105 q 798 151 798 131 l 798 617 l 371 617 l 371 151 q 384 118 371 131 q 417 105 397 105 l 452 105 l 452 -2 l 103 -2 l 103 105 l 139 105 q 171 118 157 105 q 185 151 185 131 l 185 1010 q 171 1041 185 1028 q 139 1054 157 1054 l 99 1054 l 99 1157 l 456 1157 l 456 1054 l 417 1054 q 384 1041 397 1054 q 371 1010 371 1028 l 371 768 l 798 768 l 798 1010 q 785 1041 798 1028 q 754 1054 772 1054 l 714 1054 l 714 1157 l 1071 1157 l 1071 1054 l 1032 1054 z "},"ħ":{"ha":1171,"x_min":99,"x_max":1071,"o":"m 1032 1054 q 999 1041 1012 1054 q 986 1010 986 1028 l 986 970 l 1054 970 l 1054 851 l 986 851 l 986 151 q 999 118 986 131 q 1032 105 1012 105 l 1067 105 l 1067 -2 l 718 -2 l 718 105 l 754 105 q 785 118 772 105 q 798 151 798 131 l 798 617 l 371 617 l 371 151 q 384 118 371 131 q 417 105 397 105 l 452 105 l 452 -2 l 103 -2 l 103 105 l 139 105 q 171 118 157 105 q 185 151 185 131 l 185 851 l 117 851 l 117 970 l 185 970 l 185 1010 q 171 1041 185 1028 q 139 1054 157 1054 l 99 1054 l 99 1157 l 456 1157 l 456 1054 l 417 1054 q 384 1041 397 1054 q 371 1010 371 1028 l 371 970 l 798 970 l 798 1010 q 785 1041 798 1028 q 754 1054 772 1054 l 714 1054 l 714 1157 l 1071 1157 l 1071 1054 l 1032 1054 m 798 851 l 371 851 l 371 768 l 798 768 l 798 851 z "},"i":{"ha":589,"x_min":115,"x_max":472,"o":"m 119 109 l 155 109 q 188 122 175 109 q 200 153 200 135 l 200 1010 q 188 1041 200 1028 q 155 1054 175 1054 l 115 1054 l 115 1157 l 472 1157 l 472 1054 l 433 1054 q 402 1041 415 1054 q 389 1010 389 1028 l 389 153 q 402 122 389 135 q 433 109 415 109 l 470 109 l 470 0 l 119 0 l 119 109 z "},"ı":{"ha":589,"x_min":115,"x_max":472,"o":"m 119 109 l 155 109 q 188 122 175 109 q 200 153 200 135 l 200 1010 q 188 1041 200 1028 q 155 1054 175 1054 l 115 1054 l 115 1157 l 472 1157 l 472 1054 l 433 1054 q 402 1041 415 1054 q 389 1010 389 1028 l 389 153 q 402 122 389 135 q 433 109 415 109 l 470 109 l 470 0 l 119 0 l 119 109 z "},"í":{"ha":589,"x_min":115,"x_max":472,"o":"m 119 109 l 155 109 q 188 122 175 109 q 200 153 200 135 l 200 1010 q 188 1041 200 1028 q 155 1054 175 1054 l 115 1054 l 115 1157 l 472 1157 l 472 1054 l 433 1054 q 402 1041 415 1054 q 389 1010 389 1028 l 389 153 q 402 122 389 135 q 433 109 415 109 l 470 109 l 470 0 l 119 0 l 119 109 m 141 1315 l 371 1504 l 446 1401 l 187 1248 l 141 1315 z "},"ǐ":{"ha":589,"x_min":81,"x_max":504,"o":"m 119 109 l 155 109 q 188 122 175 109 q 200 153 200 135 l 200 1010 q 188 1041 200 1028 q 155 1054 175 1054 l 115 1054 l 115 1157 l 472 1157 l 472 1054 l 433 1054 q 402 1041 415 1054 q 389 1010 389 1028 l 389 153 q 402 122 389 135 q 433 109 415 109 l 470 109 l 470 0 l 119 0 l 119 109 m 294 1389 l 504 1456 l 504 1367 l 294 1252 l 81 1367 l 81 1456 l 294 1389 z "},"î":{"ha":589,"x_min":81,"x_max":504,"o":"m 119 109 l 155 109 q 188 122 175 109 q 200 153 200 135 l 200 1010 q 188 1041 200 1028 q 155 1054 175 1054 l 115 1054 l 115 1157 l 472 1157 l 472 1054 l 433 1054 q 402 1041 415 1054 q 389 1010 389 1028 l 389 153 q 402 122 389 135 q 433 109 415 109 l 470 109 l 470 0 l 119 0 l 119 109 m 81 1341 l 294 1456 l 504 1341 l 504 1252 l 294 1319 l 81 1252 l 81 1341 z "},"ï":{"ha":589,"x_min":42,"x_max":544,"o":"m 119 109 l 155 109 q 188 122 175 109 q 200 153 200 135 l 200 1010 q 188 1041 200 1028 q 155 1054 175 1054 l 115 1054 l 115 1157 l 472 1157 l 472 1054 l 433 1054 q 402 1041 415 1054 q 389 1010 389 1028 l 389 153 q 402 122 389 135 q 433 109 415 109 l 470 109 l 470 0 l 119 0 l 119 109 m 125 1280 q 66 1306 91 1280 q 42 1365 42 1331 q 66 1424 42 1399 q 125 1448 91 1448 q 184 1424 159 1448 q 208 1365 208 1399 q 184 1306 208 1331 q 125 1280 159 1280 m 460 1280 q 402 1306 427 1280 q 377 1365 377 1331 q 402 1424 377 1399 q 460 1448 427 1448 q 519 1424 494 1448 q 544 1365 544 1399 q 519 1306 544 1331 q 460 1280 494 1280 z "},"ị":{"ha":589,"x_min":115,"x_max":472,"o":"m 119 109 l 155 109 q 188 122 175 109 q 200 153 200 135 l 200 1010 q 188 1041 200 1028 q 155 1054 175 1054 l 115 1054 l 115 1157 l 472 1157 l 472 1054 l 433 1054 q 402 1041 415 1054 q 389 1010 389 1028 l 389 153 q 402 122 389 135 q 433 109 415 109 l 470 109 l 470 0 l 119 0 l 119 109 m 294 -294 q 235 -268 260 -294 q 210 -208 210 -242 q 235 -150 210 -175 q 294 -125 260 -125 q 352 -150 327 -125 q 377 -208 377 -175 q 352 -268 377 -242 q 294 -294 327 -294 z "},"ì":{"ha":589,"x_min":115,"x_max":472,"o":"m 119 109 l 155 109 q 188 122 175 109 q 200 153 200 135 l 200 1010 q 188 1041 200 1028 q 155 1054 175 1054 l 115 1054 l 115 1157 l 472 1157 l 472 1054 l 433 1054 q 402 1041 415 1054 q 389 1010 389 1028 l 389 153 q 402 122 389 135 q 433 109 415 109 l 470 109 l 470 0 l 119 0 l 119 109 m 145 1401 l 220 1504 l 450 1315 l 405 1248 l 145 1401 z "},"ỉ":{"ha":589,"x_min":115,"x_max":472,"o":"m 119 109 l 155 109 q 188 122 175 109 q 200 153 200 135 l 200 1010 q 188 1041 200 1028 q 155 1054 175 1054 l 115 1054 l 115 1157 l 472 1157 l 472 1054 l 433 1054 q 402 1041 415 1054 q 389 1010 389 1028 l 389 153 q 402 122 389 135 q 433 109 415 109 l 470 109 l 470 0 l 119 0 l 119 109 m 252 1270 q 270 1326 256 1306 q 308 1371 284 1347 q 335 1403 327 1391 q 343 1433 343 1415 q 341 1450 343 1444 q 290 1486 333 1486 q 253 1479 272 1486 q 222 1458 234 1472 l 181 1522 q 238 1566 204 1552 q 308 1581 272 1581 q 409 1542 369 1581 q 448 1448 448 1502 q 430 1382 448 1415 q 377 1325 411 1349 q 331 1270 337 1298 l 252 1270 z "},"ī":{"ha":589,"x_min":91,"x_max":496,"o":"m 91 1377 l 496 1377 l 496 1268 l 91 1268 l 91 1377 m 119 109 l 155 109 q 188 122 175 109 q 200 153 200 135 l 200 1010 q 188 1041 200 1028 q 155 1054 175 1054 l 115 1054 l 115 1157 l 472 1157 l 472 1054 l 433 1054 q 402 1041 415 1054 q 389 1010 389 1028 l 389 153 q 402 122 389 135 q 433 109 415 109 l 470 109 l 470 0 l 119 0 l 119 109 z "},"į":{"ha":589,"x_min":115,"x_max":472,"o":"m 294 1280 q 235 1306 260 1280 q 210 1365 210 1331 q 235 1424 210 1399 q 294 1448 260 1448 q 352 1424 327 1448 q 377 1365 377 1399 q 352 1306 377 1331 q 294 1280 327 1280 m 433 1054 q 402 1041 415 1054 q 389 1010 389 1028 l 389 153 q 402 122 389 135 q 433 109 415 109 l 470 109 l 470 0 l 377 0 q 295 -36 329 -2 q 260 -111 260 -69 q 278 -161 260 -143 q 323 -179 296 -179 q 385 -157 351 -179 l 419 -202 q 298 -266 373 -266 q 203 -229 244 -266 q 163 -133 163 -192 q 240 0 163 -44 l 119 0 l 119 109 l 155 109 q 188 122 175 109 q 200 153 200 135 l 200 1010 q 188 1041 200 1028 q 155 1054 175 1054 l 115 1054 l 115 1157 l 472 1157 l 472 1054 l 433 1054 z "},"ĩ":{"ha":589,"x_min":75,"x_max":506,"o":"m 119 109 l 155 109 q 188 122 175 109 q 200 153 200 135 l 200 1010 q 188 1041 200 1028 q 155 1054 175 1054 l 115 1054 l 115 1157 l 472 1157 l 472 1054 l 433 1054 q 402 1041 415 1054 q 389 1010 389 1028 l 389 153 q 402 122 389 135 q 433 109 415 109 l 470 109 l 470 0 l 119 0 l 119 109 m 274 1272 q 165 1300 214 1300 q 87 1274 119 1300 l 75 1355 q 185 1405 107 1405 q 308 1377 246 1405 q 415 1351 371 1351 q 492 1379 460 1351 l 506 1300 q 458 1259 490 1274 q 387 1244 427 1244 q 274 1272 335 1244 z "},"j":{"ha":853,"x_min":60,"x_max":758,"o":"m 341 -54 q 179 -22 242 -54 q 121 -6 147 -6 q 77 -28 91 -6 l 60 -28 l 60 246 l 157 246 q 200 138 163 185 q 321 91 238 91 q 494 335 494 91 l 496 1016 q 486 1043 496 1032 q 460 1054 476 1054 l 417 1054 l 417 1157 l 758 1157 l 758 1054 l 718 1054 q 690 1043 702 1054 q 679 1018 679 1032 l 679 315 q 642 138 679 222 q 529 0 605 54 q 341 -54 452 -54 z "},"k":{"ha":1103,"x_min":99,"x_max":1020,"o":"m 1020 107 l 1020 0 l 637 0 l 637 107 l 659 107 q 673 116 669 107 q 669 131 677 125 l 371 437 l 371 153 q 384 120 371 133 q 415 107 397 107 l 452 107 l 452 0 l 101 0 l 101 107 l 139 107 q 170 120 157 107 q 183 153 183 133 l 183 1010 q 170 1041 183 1028 q 139 1054 157 1054 l 99 1054 l 99 1157 l 454 1157 l 454 1054 l 415 1054 q 384 1041 397 1054 q 371 1010 371 1028 l 371 724 l 639 1034 q 643 1044 643 1038 q 639 1053 643 1048 q 629 1058 635 1058 l 613 1058 l 613 1157 l 919 1157 l 919 1058 l 907 1058 q 817 1014 849 1058 l 472 609 l 903 155 q 1014 107 946 107 l 1020 107 z "},"ķ":{"ha":1103,"x_min":99,"x_max":1020,"o":"m 1020 107 l 1020 0 l 637 0 l 637 107 l 659 107 q 673 116 669 107 q 669 131 677 125 l 371 437 l 371 153 q 384 120 371 133 q 415 107 397 107 l 452 107 l 452 0 l 101 0 l 101 107 l 139 107 q 170 120 157 107 q 183 153 183 133 l 183 1010 q 170 1041 183 1028 q 139 1054 157 1054 l 99 1054 l 99 1157 l 454 1157 l 454 1054 l 415 1054 q 384 1041 397 1054 q 371 1010 371 1028 l 371 724 l 639 1034 q 643 1044 643 1038 q 639 1053 643 1048 q 629 1058 635 1058 l 613 1058 l 613 1157 l 919 1157 l 919 1058 l 907 1058 q 817 1014 849 1058 l 472 609 l 903 155 q 1014 107 946 107 l 1020 107 m 415 -395 q 411 -389 413 -393 q 407 -383 409 -385 q 464 -305 437 -349 q 498 -232 492 -260 q 482 -192 482 -216 q 499 -148 482 -167 q 542 -129 516 -129 q 584 -145 567 -127 q 605 -188 601 -163 q 548 -312 609 -252 q 415 -395 486 -371 z "},"l":{"ha":895,"x_min":99,"x_max":839,"o":"m 839 268 l 839 0 l 99 0 l 99 103 l 133 103 q 170 117 155 103 q 185 153 185 131 l 185 1016 q 173 1046 185 1034 q 143 1058 161 1058 l 103 1058 l 103 1157 l 466 1157 l 466 1058 l 421 1058 q 391 1046 403 1058 q 379 1016 379 1034 l 379 143 l 688 143 q 730 160 712 143 q 748 200 748 177 l 748 268 l 839 268 z "},"ĺ":{"ha":895,"x_min":99,"x_max":839,"o":"m 839 268 l 839 0 l 99 0 l 99 103 l 133 103 q 170 117 155 103 q 185 153 185 131 l 185 1016 q 173 1046 185 1034 q 143 1058 161 1058 l 103 1058 l 103 1157 l 466 1157 l 466 1058 l 421 1058 q 391 1046 403 1058 q 379 1016 379 1034 l 379 143 l 688 143 q 730 160 712 143 q 748 200 748 177 l 748 268 l 839 268 m 310 1315 l 540 1504 l 615 1401 l 355 1248 l 310 1315 z "},"ľ":{"ha":895,"x_min":99,"x_max":839,"o":"m 839 268 l 839 0 l 99 0 l 99 103 l 133 103 q 170 117 155 103 q 185 153 185 131 l 185 1016 q 173 1046 185 1034 q 143 1058 161 1058 l 103 1058 l 103 1157 l 466 1157 l 466 1058 l 421 1058 q 391 1046 403 1058 q 379 1016 379 1034 l 379 143 l 688 143 q 730 160 712 143 q 748 200 748 177 l 748 268 l 839 268 m 627 897 q 673 981 651 933 q 696 1058 694 1030 q 683 1072 688 1062 q 675 1095 677 1083 q 688 1145 671 1123 q 734 1167 704 1167 q 779 1145 762 1167 q 796 1093 796 1123 q 745 974 796 1034 q 635 885 694 915 l 627 897 z "},"ļ":{"ha":895,"x_min":99,"x_max":839,"o":"m 839 268 l 839 0 l 99 0 l 99 103 l 133 103 q 170 117 155 103 q 185 153 185 131 l 185 1016 q 173 1046 185 1034 q 143 1058 161 1058 l 103 1058 l 103 1157 l 466 1157 l 466 1058 l 421 1058 q 391 1046 403 1058 q 379 1016 379 1034 l 379 143 l 688 143 q 730 160 712 143 q 748 200 748 177 l 748 268 l 839 268 m 341 -395 q 337 -389 339 -393 q 333 -383 335 -385 q 391 -305 363 -349 q 425 -232 419 -260 q 409 -192 409 -216 q 426 -148 409 -167 q 468 -129 442 -129 q 511 -145 494 -127 q 532 -188 528 -163 q 474 -312 536 -252 q 341 -395 413 -371 z "},"ł":{"ha":895,"x_min":99,"x_max":839,"o":"m 839 268 l 839 0 l 99 0 l 99 103 l 133 103 q 170 117 155 103 q 185 153 185 131 l 185 530 l 101 490 l 101 607 l 185 647 l 185 1016 q 173 1046 185 1034 q 143 1058 161 1058 l 103 1058 l 103 1157 l 466 1157 l 466 1058 l 421 1058 q 391 1046 403 1058 q 379 1016 379 1034 l 379 740 l 460 778 l 460 661 l 379 623 l 379 143 l 688 143 q 730 160 712 143 q 748 200 748 177 l 748 268 l 839 268 z "},"m":{"ha":1341,"x_min":89,"x_max":1252,"o":"m 1175 173 q 1199 123 1177 143 q 1252 103 1222 103 l 1252 0 l 911 0 l 911 103 l 931 103 q 973 122 956 103 q 988 167 990 141 l 937 679 l 698 -4 l 605 -4 l 361 683 l 319 167 q 332 122 315 141 q 375 103 349 103 l 387 103 l 387 0 l 89 0 l 89 103 l 103 103 q 156 124 133 103 q 181 175 179 145 l 246 976 q 226 1032 248 1008 q 173 1056 204 1056 l 153 1056 l 153 1157 l 401 1157 l 679 365 l 950 1157 l 1183 1157 l 1183 1056 l 1173 1056 q 1117 1032 1139 1056 q 1099 976 1095 1008 l 1175 173 z "},"n":{"ha":1188,"x_min":95,"x_max":1095,"o":"m 1095 1157 l 1095 1056 l 1054 1056 q 1026 1044 1038 1056 q 1014 1016 1014 1032 l 1014 -40 l 895 -40 l 335 786 l 335 143 q 347 115 335 127 q 375 103 359 103 l 405 103 l 405 0 l 113 0 l 113 103 l 151 103 q 179 115 167 103 q 190 143 190 127 l 190 1014 q 179 1042 190 1030 q 151 1054 167 1054 l 95 1054 l 95 1157 l 312 1157 l 857 369 l 857 1016 q 846 1044 857 1032 q 817 1056 835 1056 l 788 1056 l 788 1157 l 1095 1157 z "},"ń":{"ha":1188,"x_min":95,"x_max":1095,"o":"m 1095 1157 l 1095 1056 l 1054 1056 q 1026 1044 1038 1056 q 1014 1016 1014 1032 l 1014 -40 l 895 -40 l 335 786 l 335 143 q 347 115 335 127 q 375 103 359 103 l 405 103 l 405 0 l 113 0 l 113 103 l 151 103 q 179 115 167 103 q 190 143 190 127 l 190 1014 q 179 1042 190 1030 q 151 1054 167 1054 l 95 1054 l 95 1157 l 312 1157 l 857 369 l 857 1016 q 846 1044 857 1032 q 817 1056 835 1056 l 788 1056 l 788 1157 l 1095 1157 m 411 1315 l 641 1504 l 716 1401 l 456 1248 l 411 1315 z "},"ň":{"ha":1188,"x_min":95,"x_max":1095,"o":"m 1095 1157 l 1095 1056 l 1054 1056 q 1026 1044 1038 1056 q 1014 1016 1014 1032 l 1014 -40 l 895 -40 l 335 786 l 335 143 q 347 115 335 127 q 375 103 359 103 l 405 103 l 405 0 l 113 0 l 113 103 l 151 103 q 179 115 167 103 q 190 143 190 127 l 190 1014 q 179 1042 190 1030 q 151 1054 167 1054 l 95 1054 l 95 1157 l 312 1157 l 857 369 l 857 1016 q 846 1044 857 1032 q 817 1056 835 1056 l 788 1056 l 788 1157 l 1095 1157 m 563 1389 l 774 1456 l 774 1367 l 563 1252 l 351 1367 l 351 1456 l 563 1389 z "},"ņ":{"ha":1188,"x_min":95,"x_max":1095,"o":"m 1095 1157 l 1095 1056 l 1054 1056 q 1026 1044 1038 1056 q 1014 1016 1014 1032 l 1014 -40 l 895 -40 l 335 786 l 335 143 q 347 115 335 127 q 375 103 359 103 l 405 103 l 405 0 l 113 0 l 113 103 l 151 103 q 179 115 167 103 q 190 143 190 127 l 190 1014 q 179 1042 190 1030 q 151 1054 167 1054 l 95 1054 l 95 1157 l 312 1157 l 857 369 l 857 1016 q 846 1044 857 1032 q 817 1056 835 1056 l 788 1056 l 788 1157 l 1095 1157 m 488 -395 q 484 -389 486 -393 q 480 -383 482 -385 q 538 -305 510 -349 q 571 -232 565 -260 q 556 -192 556 -216 q 572 -148 556 -167 q 615 -129 589 -129 q 658 -145 641 -127 q 679 -188 675 -163 q 621 -312 683 -252 q 488 -395 560 -371 z "},"ñ":{"ha":1188,"x_min":95,"x_max":1095,"o":"m 1095 1157 l 1095 1056 l 1054 1056 q 1026 1044 1038 1056 q 1014 1016 1014 1032 l 1014 -40 l 895 -40 l 335 786 l 335 143 q 347 115 335 127 q 375 103 359 103 l 405 103 l 405 0 l 113 0 l 113 103 l 151 103 q 179 115 167 103 q 190 143 190 127 l 190 1014 q 179 1042 190 1030 q 151 1054 167 1054 l 95 1054 l 95 1157 l 312 1157 l 857 369 l 857 1016 q 846 1044 857 1032 q 817 1056 835 1056 l 788 1056 l 788 1157 l 1095 1157 m 544 1272 q 435 1300 484 1300 q 357 1274 389 1300 l 345 1355 q 454 1405 377 1405 q 577 1377 516 1405 q 685 1351 641 1351 q 762 1379 730 1351 l 776 1300 q 728 1259 760 1274 q 657 1244 696 1244 q 544 1272 605 1244 z "},"o":{"ha":1155,"x_min":60,"x_max":1095,"o":"m 577 -30 q 324 47 444 -30 q 132 262 204 123 q 60 575 60 401 q 132 889 60 750 q 324 1105 204 1028 q 577 1183 444 1183 q 830 1105 710 1183 q 1023 889 950 1028 q 1095 575 1095 750 q 1023 262 1095 401 q 830 47 950 123 q 577 -30 710 -30 m 577 101 q 738 154 665 101 q 857 314 812 206 q 903 577 903 423 q 857 840 903 732 q 738 1001 812 948 q 577 1054 665 1054 q 417 1001 490 1054 q 298 840 343 948 q 252 577 252 732 q 298 314 252 423 q 417 154 343 206 q 577 101 490 101 z "},"ó":{"ha":1155,"x_min":60,"x_max":1095,"o":"m 577 -30 q 324 47 444 -30 q 132 262 204 123 q 60 575 60 401 q 132 889 60 750 q 324 1105 204 1028 q 577 1183 444 1183 q 830 1105 710 1183 q 1023 889 950 1028 q 1095 575 1095 750 q 1023 262 1095 401 q 830 47 950 123 q 577 -30 710 -30 m 577 101 q 738 154 665 101 q 857 314 812 206 q 903 577 903 423 q 857 840 903 732 q 738 1001 812 948 q 577 1054 665 1054 q 417 1001 490 1054 q 298 840 343 948 q 252 577 252 732 q 298 314 252 423 q 417 154 343 206 q 577 101 490 101 m 425 1333 l 655 1522 l 730 1419 l 470 1266 l 425 1333 z "},"ǒ":{"ha":1155,"x_min":60,"x_max":1095,"o":"m 577 -30 q 324 47 444 -30 q 132 262 204 123 q 60 575 60 401 q 132 889 60 750 q 324 1105 204 1028 q 577 1183 444 1183 q 830 1105 710 1183 q 1023 889 950 1028 q 1095 575 1095 750 q 1023 262 1095 401 q 830 47 950 123 q 577 -30 710 -30 m 577 101 q 738 154 665 101 q 857 314 812 206 q 903 577 903 423 q 857 840 903 732 q 738 1001 812 948 q 577 1054 665 1054 q 417 1001 490 1054 q 298 840 343 948 q 252 577 252 732 q 298 314 252 423 q 417 154 343 206 q 577 101 490 101 m 577 1407 l 788 1474 l 788 1385 l 577 1270 l 365 1385 l 365 1474 l 577 1407 z "},"ô":{"ha":1155,"x_min":60,"x_max":1095,"o":"m 577 -30 q 324 47 444 -30 q 132 262 204 123 q 60 575 60 401 q 132 889 60 750 q 324 1105 204 1028 q 577 1183 444 1183 q 830 1105 710 1183 q 1023 889 950 1028 q 1095 575 1095 750 q 1023 262 1095 401 q 830 47 950 123 q 577 -30 710 -30 m 577 101 q 738 154 665 101 q 857 314 812 206 q 903 577 903 423 q 857 840 903 732 q 738 1001 812 948 q 577 1054 665 1054 q 417 1001 490 1054 q 298 840 343 948 q 252 577 252 732 q 298 314 252 423 q 417 154 343 206 q 577 101 490 101 m 365 1359 l 577 1474 l 788 1359 l 788 1270 l 577 1337 l 365 1270 l 365 1359 z "},"ố":{"ha":1155,"x_min":60,"x_max":1095,"o":"m 577 -30 q 324 47 444 -30 q 132 262 204 123 q 60 575 60 401 q 132 889 60 750 q 324 1105 204 1028 q 577 1183 444 1183 q 830 1105 710 1183 q 1023 889 950 1028 q 1095 575 1095 750 q 1023 262 1095 401 q 830 47 950 123 q 577 -30 710 -30 m 577 101 q 738 154 665 101 q 857 314 812 206 q 903 577 903 423 q 857 840 903 732 q 738 1001 812 948 q 577 1054 665 1054 q 417 1001 490 1054 q 298 840 343 948 q 252 577 252 732 q 298 314 252 423 q 417 154 343 206 q 577 101 490 101 z "},"ộ":{"ha":1155,"x_min":60,"x_max":1095,"o":"m 577 -30 q 324 47 444 -30 q 132 262 204 123 q 60 575 60 401 q 132 889 60 750 q 324 1105 204 1028 q 577 1183 444 1183 q 830 1105 710 1183 q 1023 889 950 1028 q 1095 575 1095 750 q 1023 262 1095 401 q 830 47 950 123 q 577 -30 710 -30 m 577 101 q 738 154 665 101 q 857 314 812 206 q 903 577 903 423 q 857 840 903 732 q 738 1001 812 948 q 577 1054 665 1054 q 417 1001 490 1054 q 298 840 343 948 q 252 577 252 732 q 298 314 252 423 q 417 154 343 206 q 577 101 490 101 m 579 -313 q 521 -288 546 -313 q 496 -228 496 -262 q 521 -170 496 -194 q 579 -145 546 -145 q 638 -170 613 -145 q 663 -228 663 -194 q 638 -288 663 -262 q 579 -313 613 -313 m 365 1359 l 577 1474 l 788 1359 l 788 1270 l 577 1337 l 365 1270 l 365 1359 z "},"ồ":{"ha":1155,"x_min":60,"x_max":1095,"o":"m 577 -30 q 324 47 444 -30 q 132 262 204 123 q 60 575 60 401 q 132 889 60 750 q 324 1105 204 1028 q 577 1183 444 1183 q 830 1105 710 1183 q 1023 889 950 1028 q 1095 575 1095 750 q 1023 262 1095 401 q 830 47 950 123 q 577 -30 710 -30 m 577 101 q 738 154 665 101 q 857 314 812 206 q 903 577 903 423 q 857 840 903 732 q 738 1001 812 948 q 577 1054 665 1054 q 417 1001 490 1054 q 298 840 343 948 q 252 577 252 732 q 298 314 252 423 q 417 154 343 206 q 577 101 490 101 m 611 1603 l 694 1700 l 911 1496 l 861 1433 l 611 1603 m 365 1357 l 577 1472 l 788 1357 l 788 1268 l 577 1335 l 365 1268 l 365 1357 z "},"ổ":{"ha":1155,"x_min":60,"x_max":1095,"o":"m 577 -30 q 324 47 444 -30 q 132 262 204 123 q 60 575 60 401 q 132 889 60 750 q 324 1105 204 1028 q 577 1183 444 1183 q 830 1105 710 1183 q 1023 889 950 1028 q 1095 575 1095 750 q 1023 262 1095 401 q 830 47 950 123 q 577 -30 710 -30 m 577 101 q 738 154 665 101 q 857 314 812 206 q 903 577 903 423 q 857 840 903 732 q 738 1001 812 948 q 577 1054 665 1054 q 417 1001 490 1054 q 298 840 343 948 q 252 577 252 732 q 298 314 252 423 q 417 154 343 206 q 577 101 490 101 m 706 1486 q 724 1542 710 1520 q 760 1583 738 1563 q 786 1613 778 1601 q 794 1643 794 1625 q 779 1681 794 1669 q 742 1692 764 1692 q 677 1667 706 1692 l 637 1728 q 760 1786 688 1786 q 857 1746 813 1786 q 895 1657 895 1708 q 877 1592 895 1623 q 825 1540 859 1562 q 782 1486 786 1510 l 706 1486 m 365 1359 l 577 1474 l 788 1359 l 788 1270 l 577 1337 l 365 1270 l 365 1359 z "},"ỗ":{"ha":1155,"x_min":60,"x_max":1095,"o":"m 577 -30 q 324 47 444 -30 q 132 262 204 123 q 60 575 60 401 q 132 889 60 750 q 324 1105 204 1028 q 577 1183 444 1183 q 830 1105 710 1183 q 1023 889 950 1028 q 1095 575 1095 750 q 1023 262 1095 401 q 830 47 950 123 q 577 -30 710 -30 m 577 101 q 738 154 665 101 q 857 314 812 206 q 903 577 903 423 q 857 840 903 732 q 738 1001 812 948 q 577 1054 665 1054 q 417 1001 490 1054 q 298 840 343 948 q 252 577 252 732 q 298 314 252 423 q 417 154 343 206 q 577 101 490 101 z "},"ö":{"ha":1155,"x_min":60,"x_max":1095,"o":"m 577 -30 q 324 47 444 -30 q 132 262 204 123 q 60 575 60 401 q 132 889 60 750 q 324 1105 204 1028 q 577 1183 444 1183 q 830 1105 710 1183 q 1023 889 950 1028 q 1095 575 1095 750 q 1023 262 1095 401 q 830 47 950 123 q 577 -30 710 -30 m 577 101 q 738 154 665 101 q 857 314 812 206 q 903 577 903 423 q 857 840 903 732 q 738 1001 812 948 q 577 1054 665 1054 q 417 1001 490 1054 q 298 840 343 948 q 252 577 252 732 q 298 314 252 423 q 417 154 343 206 q 577 101 490 101 m 409 1298 q 350 1323 375 1298 q 325 1383 325 1349 q 350 1441 325 1417 q 409 1466 375 1466 q 467 1441 442 1466 q 492 1383 492 1417 q 467 1323 492 1349 q 409 1298 442 1298 m 744 1298 q 686 1323 710 1298 q 661 1383 661 1349 q 686 1441 661 1417 q 744 1466 710 1466 q 803 1441 778 1466 q 827 1383 827 1417 q 803 1323 827 1349 q 744 1298 778 1298 z "},"ọ":{"ha":1155,"x_min":60,"x_max":1095,"o":"m 577 -30 q 324 47 444 -30 q 132 262 204 123 q 60 575 60 401 q 132 889 60 750 q 324 1105 204 1028 q 577 1183 444 1183 q 830 1105 710 1183 q 1023 889 950 1028 q 1095 575 1095 750 q 1023 262 1095 401 q 830 47 950 123 q 577 -30 710 -30 m 577 101 q 738 154 665 101 q 857 314 812 206 q 903 577 903 423 q 857 840 903 732 q 738 1001 812 948 q 577 1054 665 1054 q 417 1001 490 1054 q 298 840 343 948 q 252 577 252 732 q 298 314 252 423 q 417 154 343 206 q 577 101 490 101 m 579 -313 q 521 -288 546 -313 q 496 -228 496 -262 q 521 -170 496 -194 q 579 -145 546 -145 q 638 -170 613 -145 q 663 -228 663 -194 q 638 -288 663 -262 q 579 -313 613 -313 z "},"ò":{"ha":1155,"x_min":60,"x_max":1095,"o":"m 577 -30 q 324 47 444 -30 q 132 262 204 123 q 60 575 60 401 q 132 889 60 750 q 324 1105 204 1028 q 577 1183 444 1183 q 830 1105 710 1183 q 1023 889 950 1028 q 1095 575 1095 750 q 1023 262 1095 401 q 830 47 950 123 q 577 -30 710 -30 m 577 101 q 738 154 665 101 q 857 314 812 206 q 903 577 903 423 q 857 840 903 732 q 738 1001 812 948 q 577 1054 665 1054 q 417 1001 490 1054 q 298 840 343 948 q 252 577 252 732 q 298 314 252 423 q 417 154 343 206 q 577 101 490 101 m 429 1419 l 504 1522 l 734 1333 l 688 1266 l 429 1419 z "},"ỏ":{"ha":1155,"x_min":60,"x_max":1095,"o":"m 577 -30 q 324 47 444 -30 q 132 262 204 123 q 60 575 60 401 q 132 889 60 750 q 324 1105 204 1028 q 577 1183 444 1183 q 830 1105 710 1183 q 1023 889 950 1028 q 1095 575 1095 750 q 1023 262 1095 401 q 830 47 950 123 q 577 -30 710 -30 m 577 101 q 738 154 665 101 q 857 314 812 206 q 903 577 903 423 q 857 840 903 732 q 738 1001 812 948 q 577 1054 665 1054 q 417 1001 490 1054 q 298 840 343 948 q 252 577 252 732 q 298 314 252 423 q 417 154 343 206 q 577 101 490 101 m 536 1288 q 554 1344 540 1323 q 591 1389 567 1365 q 619 1421 611 1409 q 627 1450 627 1433 q 625 1468 627 1462 q 573 1504 617 1504 q 537 1497 556 1504 q 506 1476 518 1490 l 464 1540 q 522 1584 488 1569 q 591 1599 556 1599 q 692 1560 653 1599 q 732 1466 732 1520 q 713 1400 732 1433 q 661 1343 694 1367 q 615 1288 621 1315 l 536 1288 z "},"ơ":{"ha":1155,"x_min":60,"x_max":1095,"o":"m 935 1016 q 1053 820 1010 933 q 1095 575 1095 708 q 1023 262 1095 401 q 830 47 950 123 q 577 -30 710 -30 q 324 47 444 -30 q 132 262 204 123 q 60 575 60 401 q 132 889 60 750 q 324 1105 204 1028 q 577 1183 444 1183 q 837 1101 714 1183 q 907 1121 889 1113 q 931 1169 907 1149 q 982 1188 954 1188 q 1036 1165 1014 1188 q 1056 1117 1056 1145 q 1030 1060 1056 1085 q 935 1016 996 1026 m 577 101 q 738 154 665 101 q 857 314 812 206 q 903 577 903 423 q 857 840 903 732 q 738 1001 812 948 q 577 1054 665 1054 q 417 1001 490 1054 q 298 840 343 948 q 252 577 252 732 q 298 314 252 423 q 417 154 343 206 q 577 101 490 101 z "},"ớ":{"ha":1155,"x_min":60,"x_max":1095,"o":"m 935 1016 q 1053 820 1010 933 q 1095 575 1095 708 q 1023 262 1095 401 q 830 47 950 123 q 577 -30 710 -30 q 324 47 444 -30 q 132 262 204 123 q 60 575 60 401 q 132 889 60 750 q 324 1105 204 1028 q 577 1183 444 1183 q 837 1101 714 1183 q 907 1121 889 1113 q 931 1169 907 1149 q 982 1188 954 1188 q 1036 1165 1014 1188 q 1056 1117 1056 1145 q 1030 1060 1056 1085 q 935 1016 996 1026 m 577 101 q 738 154 665 101 q 857 314 812 206 q 903 577 903 423 q 857 840 903 732 q 738 1001 812 948 q 577 1054 665 1054 q 417 1001 490 1054 q 298 840 343 948 q 252 577 252 732 q 298 314 252 423 q 417 154 343 206 q 577 101 490 101 m 425 1333 l 655 1522 l 730 1419 l 470 1266 l 425 1333 z "},"ợ":{"ha":1155,"x_min":60,"x_max":1095,"o":"m 935 1016 q 1053 820 1010 933 q 1095 575 1095 708 q 1023 262 1095 401 q 830 47 950 123 q 577 -30 710 -30 q 324 47 444 -30 q 132 262 204 123 q 60 575 60 401 q 132 889 60 750 q 324 1105 204 1028 q 577 1183 444 1183 q 837 1101 714 1183 q 907 1121 889 1113 q 931 1169 907 1149 q 982 1188 954 1188 q 1036 1165 1014 1188 q 1056 1117 1056 1145 q 1030 1060 1056 1085 q 935 1016 996 1026 m 577 101 q 738 154 665 101 q 857 314 812 206 q 903 577 903 423 q 857 840 903 732 q 738 1001 812 948 q 577 1054 665 1054 q 417 1001 490 1054 q 298 840 343 948 q 252 577 252 732 q 298 314 252 423 q 417 154 343 206 q 577 101 490 101 m 579 -313 q 521 -288 546 -313 q 496 -228 496 -262 q 521 -170 496 -194 q 579 -145 546 -145 q 638 -170 613 -145 q 663 -228 663 -194 q 638 -288 663 -262 q 579 -313 613 -313 z "},"ờ":{"ha":1155,"x_min":60,"x_max":1095,"o":"m 935 1016 q 1053 820 1010 933 q 1095 575 1095 708 q 1023 262 1095 401 q 830 47 950 123 q 577 -30 710 -30 q 324 47 444 -30 q 132 262 204 123 q 60 575 60 401 q 132 889 60 750 q 324 1105 204 1028 q 577 1183 444 1183 q 837 1101 714 1183 q 907 1121 889 1113 q 931 1169 907 1149 q 982 1188 954 1188 q 1036 1165 1014 1188 q 1056 1117 1056 1145 q 1030 1060 1056 1085 q 935 1016 996 1026 m 577 101 q 738 154 665 101 q 857 314 812 206 q 903 577 903 423 q 857 840 903 732 q 738 1001 812 948 q 577 1054 665 1054 q 417 1001 490 1054 q 298 840 343 948 q 252 577 252 732 q 298 314 252 423 q 417 154 343 206 q 577 101 490 101 m 429 1419 l 504 1522 l 734 1333 l 688 1266 l 429 1419 z "},"ở":{"ha":1155,"x_min":60,"x_max":1095,"o":"m 935 1016 q 1053 820 1010 933 q 1095 575 1095 708 q 1023 262 1095 401 q 830 47 950 123 q 577 -30 710 -30 q 324 47 444 -30 q 132 262 204 123 q 60 575 60 401 q 132 889 60 750 q 324 1105 204 1028 q 577 1183 444 1183 q 837 1101 714 1183 q 907 1121 889 1113 q 931 1169 907 1149 q 982 1188 954 1188 q 1036 1165 1014 1188 q 1056 1117 1056 1145 q 1030 1060 1056 1085 q 935 1016 996 1026 m 577 101 q 738 154 665 101 q 857 314 812 206 q 903 577 903 423 q 857 840 903 732 q 738 1001 812 948 q 577 1054 665 1054 q 417 1001 490 1054 q 298 840 343 948 q 252 577 252 732 q 298 314 252 423 q 417 154 343 206 q 577 101 490 101 m 536 1288 q 554 1344 540 1323 q 591 1389 567 1365 q 619 1421 611 1409 q 627 1450 627 1433 q 625 1468 627 1462 q 573 1504 617 1504 q 537 1497 556 1504 q 506 1476 518 1490 l 464 1540 q 522 1584 488 1569 q 591 1599 556 1599 q 692 1560 653 1599 q 732 1466 732 1520 q 713 1400 732 1433 q 661 1343 694 1367 q 615 1288 621 1315 l 536 1288 z "},"ỡ":{"ha":1155,"x_min":60,"x_max":1095,"o":"m 560 1290 q 462 1317 508 1317 q 391 1292 419 1317 l 381 1373 q 480 1423 409 1423 q 589 1395 534 1423 q 685 1369 647 1369 q 756 1397 724 1369 l 768 1317 q 663 1262 736 1262 q 560 1290 615 1262 m 935 1016 q 1053 820 1010 933 q 1095 575 1095 708 q 1023 262 1095 401 q 830 47 950 123 q 577 -30 710 -30 q 324 47 444 -30 q 132 262 204 123 q 60 575 60 401 q 132 889 60 750 q 324 1105 204 1028 q 577 1183 444 1183 q 837 1101 714 1183 q 907 1121 889 1113 q 931 1169 907 1149 q 982 1188 954 1188 q 1036 1165 1014 1188 q 1056 1117 1056 1145 q 1030 1060 1056 1085 q 935 1016 996 1026 m 577 101 q 738 154 665 101 q 857 314 812 206 q 903 577 903 423 q 857 840 903 732 q 738 1001 812 948 q 577 1054 665 1054 q 417 1001 490 1054 q 298 840 343 948 q 252 577 252 732 q 298 314 252 423 q 417 154 343 206 q 577 101 490 101 z "},"ő":{"ha":1155,"x_min":60,"x_max":1095,"o":"m 343 1313 l 546 1480 l 611 1389 l 383 1254 l 343 1313 m 633 1313 l 835 1480 l 901 1389 l 673 1254 l 633 1313 m 577 -30 q 324 47 444 -30 q 132 262 204 123 q 60 575 60 401 q 132 889 60 750 q 324 1105 204 1028 q 577 1183 444 1183 q 830 1105 710 1183 q 1023 889 950 1028 q 1095 575 1095 750 q 1023 262 1095 401 q 830 47 950 123 q 577 -30 710 -30 m 577 101 q 738 154 665 101 q 857 314 812 206 q 903 577 903 423 q 857 840 903 732 q 738 1001 812 948 q 577 1054 665 1054 q 417 1001 490 1054 q 298 840 343 948 q 252 577 252 732 q 298 314 252 423 q 417 154 343 206 q 577 101 490 101 z "},"ō":{"ha":1155,"x_min":60,"x_max":1095,"o":"m 577 -30 q 324 47 444 -30 q 132 262 204 123 q 60 575 60 401 q 132 889 60 750 q 324 1105 204 1028 q 577 1183 444 1183 q 830 1105 710 1183 q 1023 889 950 1028 q 1095 575 1095 750 q 1023 262 1095 401 q 830 47 950 123 q 577 -30 710 -30 m 577 101 q 738 154 665 101 q 857 314 812 206 q 903 577 903 423 q 857 840 903 732 q 738 1001 812 948 q 577 1054 665 1054 q 417 1001 490 1054 q 298 840 343 948 q 252 577 252 732 q 298 314 252 423 q 417 154 343 206 q 577 101 490 101 m 361 1395 l 792 1395 l 792 1286 l 361 1286 l 361 1395 z "},"ø":{"ha":1155,"x_min":60,"x_max":1095,"o":"m 903 1048 q 1044 842 992 964 q 1095 575 1095 720 q 1023 262 1095 401 q 830 47 950 123 q 577 -30 710 -30 q 435 -6 504 -30 l 423 -34 l 248 -34 l 294 67 q 123 281 187 149 q 60 575 60 413 q 132 889 60 750 q 324 1105 204 1028 q 577 1183 444 1183 q 770 1139 673 1183 l 788 1181 l 962 1181 l 903 1048 m 252 577 q 357 210 252 341 l 714 1016 q 577 1054 653 1054 q 417 1001 490 1054 q 298 840 343 948 q 252 577 252 732 m 577 101 q 738 154 665 101 q 857 314 812 206 q 903 577 903 423 q 833 891 903 768 l 490 115 q 577 101 530 101 z "},"õ":{"ha":1155,"x_min":60,"x_max":1095,"o":"m 577 -30 q 324 47 444 -30 q 132 262 204 123 q 60 575 60 401 q 132 889 60 750 q 324 1105 204 1028 q 577 1183 444 1183 q 830 1105 710 1183 q 1023 889 950 1028 q 1095 575 1095 750 q 1023 262 1095 401 q 830 47 950 123 q 577 -30 710 -30 m 577 101 q 738 154 665 101 q 857 314 812 206 q 903 577 903 423 q 857 840 903 732 q 738 1001 812 948 q 577 1054 665 1054 q 417 1001 490 1054 q 298 840 343 948 q 252 577 252 732 q 298 314 252 423 q 417 154 343 206 q 577 101 490 101 m 558 1290 q 448 1317 498 1317 q 371 1292 403 1317 l 359 1373 q 468 1423 391 1423 q 591 1395 530 1423 q 698 1369 655 1369 q 776 1397 744 1369 l 790 1317 q 742 1277 774 1292 q 671 1262 710 1262 q 558 1290 619 1262 z "},"œ":{"ha":1639,"x_min":60,"x_max":1552,"o":"m 1552 274 l 1552 0 l 907 0 l 907 107 q 752 6 837 42 q 577 -30 667 -30 q 324 47 444 -30 q 132 262 204 123 q 60 575 60 401 q 132 889 60 750 q 324 1105 204 1028 q 577 1183 444 1183 q 752 1147 667 1183 q 907 1046 837 1111 l 907 1157 l 1494 1157 l 1494 935 l 1397 935 l 1397 964 q 1386 991 1397 980 q 1361 1002 1375 1002 l 1097 1002 l 1097 734 l 1280 734 q 1309 746 1296 734 q 1321 776 1321 758 l 1321 804 l 1427 804 l 1427 512 l 1321 512 l 1321 544 q 1309 573 1321 562 q 1280 585 1296 585 l 1097 585 l 1097 137 l 1383 137 q 1442 161 1419 137 q 1466 220 1466 185 l 1466 274 l 1552 274 m 577 101 q 738 154 665 101 q 857 314 812 206 q 903 577 903 423 q 857 840 903 732 q 738 1001 812 948 q 577 1054 665 1054 q 417 1001 490 1054 q 298 840 343 948 q 252 577 252 732 q 298 314 252 423 q 417 154 343 206 q 577 101 490 101 z "},"p":{"ha":891,"x_min":103,"x_max":825,"o":"m 825 800 q 775 608 825 692 q 641 476 724 524 q 462 429 558 429 q 373 437 411 429 l 373 143 q 384 115 373 127 q 411 103 395 103 l 460 103 l 460 0 l 105 0 l 105 103 l 143 103 q 171 115 159 103 q 183 143 183 127 l 183 1016 q 171 1042 183 1030 q 143 1054 159 1054 l 103 1054 l 103 1157 l 468 1157 q 634 1117 552 1157 q 771 997 716 1077 q 825 800 825 917 m 373 571 q 438 562 409 562 q 580 627 524 562 q 637 798 637 692 q 571 949 637 887 q 419 1012 506 1012 l 373 1012 l 373 571 z "},"q":{"ha":1280,"x_min":60,"x_max":1262,"o":"m 1262 56 q 1171 -18 1226 6 q 1052 -42 1115 -42 q 945 -23 1002 -42 q 839 34 889 -4 q 579 -44 714 -44 q 334 27 454 -44 q 137 234 214 97 q 60 560 60 371 q 139 923 60 778 q 338 1134 218 1067 q 579 1200 458 1200 q 808 1133 687 1200 q 1015 921 929 1065 q 1101 560 1101 776 q 974 159 1101 321 q 1083 123 1028 123 q 1183 161 1139 123 l 1262 56 m 583 1062 q 420 1008 494 1062 q 300 841 345 954 q 254 556 254 728 q 337 216 254 337 l 357 246 q 607 377 456 377 q 855 274 736 377 q 905 560 905 385 q 858 841 905 728 q 738 1008 812 954 q 583 1062 665 1062 m 440 123 q 583 87 506 87 q 742 133 675 87 q 668 207 702 183 q 579 232 633 232 q 497 200 534 232 q 440 123 460 169 z "},"r":{"ha":1030,"x_min":99,"x_max":984,"o":"m 984 10 q 943 -27 970 -12 q 879 -42 917 -42 q 719 21 792 -42 q 597 163 647 83 q 452 429 546 236 q 361 437 409 429 l 361 155 q 377 118 361 133 q 415 103 393 103 l 446 103 l 446 0 l 105 0 l 105 103 l 123 103 q 161 118 145 103 q 177 155 177 133 l 177 1014 q 164 1045 177 1032 q 133 1058 151 1058 l 99 1058 l 99 1157 l 452 1157 q 626 1117 540 1157 q 769 994 712 1077 q 825 790 825 911 q 774 605 825 690 q 635 472 722 520 q 714 290 669 379 q 865 107 800 117 l 881 105 q 935 123 909 105 l 984 10 m 361 583 q 437 573 407 573 q 579 631 528 573 q 631 790 631 688 q 560 975 631 921 q 385 1030 488 1030 l 361 1030 l 361 583 z "},"ŕ":{"ha":1030,"x_min":99,"x_max":984,"o":"m 984 10 q 943 -27 970 -12 q 879 -42 917 -42 q 719 21 792 -42 q 597 163 647 83 q 452 429 546 236 q 361 437 409 429 l 361 155 q 377 118 361 133 q 415 103 393 103 l 446 103 l 446 0 l 105 0 l 105 103 l 123 103 q 161 118 145 103 q 177 155 177 133 l 177 1014 q 164 1045 177 1032 q 133 1058 151 1058 l 99 1058 l 99 1157 l 452 1157 q 626 1117 540 1157 q 769 994 712 1077 q 825 790 825 911 q 774 605 825 690 q 635 472 722 520 q 714 290 669 379 q 865 107 800 117 l 881 105 q 935 123 909 105 l 984 10 m 361 583 q 437 573 407 573 q 579 631 528 573 q 631 790 631 688 q 560 975 631 921 q 385 1030 488 1030 l 361 1030 l 361 583 m 317 1315 l 548 1504 l 623 1401 l 363 1248 l 317 1315 z "},"ř":{"ha":1030,"x_min":99,"x_max":984,"o":"m 984 10 q 943 -27 970 -12 q 879 -42 917 -42 q 719 21 792 -42 q 597 163 647 83 q 452 429 546 236 q 361 437 409 429 l 361 155 q 377 118 361 133 q 415 103 393 103 l 446 103 l 446 0 l 105 0 l 105 103 l 123 103 q 161 118 145 103 q 177 155 177 133 l 177 1014 q 164 1045 177 1032 q 133 1058 151 1058 l 99 1058 l 99 1157 l 452 1157 q 626 1117 540 1157 q 769 994 712 1077 q 825 790 825 911 q 774 605 825 690 q 635 472 722 520 q 714 290 669 379 q 865 107 800 117 l 881 105 q 935 123 909 105 l 984 10 m 361 583 q 437 573 407 573 q 579 631 528 573 q 631 790 631 688 q 560 975 631 921 q 385 1030 488 1030 l 361 1030 l 361 583 m 470 1389 l 681 1456 l 681 1367 l 470 1252 l 258 1367 l 258 1456 l 470 1389 z "},"ŗ":{"ha":1030,"x_min":99,"x_max":984,"o":"m 984 10 q 943 -27 970 -12 q 879 -42 917 -42 q 719 21 792 -42 q 597 163 647 83 q 452 429 546 236 q 361 437 409 429 l 361 155 q 377 118 361 133 q 415 103 393 103 l 446 103 l 446 0 l 105 0 l 105 103 l 123 103 q 161 118 145 103 q 177 155 177 133 l 177 1014 q 164 1045 177 1032 q 133 1058 151 1058 l 99 1058 l 99 1157 l 452 1157 q 626 1117 540 1157 q 769 994 712 1077 q 825 790 825 911 q 774 605 825 690 q 635 472 722 520 q 714 290 669 379 q 865 107 800 117 l 881 105 q 935 123 909 105 l 984 10 m 361 583 q 437 573 407 573 q 579 631 528 573 q 631 790 631 688 q 560 975 631 921 q 385 1030 488 1030 l 361 1030 l 361 583 m 353 -395 q 349 -389 351 -393 q 345 -383 347 -385 q 403 -305 375 -349 q 437 -232 431 -260 q 421 -192 421 -216 q 438 -148 421 -167 q 480 -129 454 -129 q 523 -145 506 -127 q 544 -188 540 -163 q 486 -312 548 -252 q 353 -395 425 -371 z "},"s":{"ha":812,"x_min":93,"x_max":738,"o":"m 401 -44 q 315 -32 351 -44 q 230 2 280 -20 q 192 12 206 12 q 153 -24 157 12 l 93 -24 l 93 341 l 198 341 q 224 217 200 276 q 292 127 248 159 q 403 93 339 93 q 482 109 446 93 q 538 155 518 125 q 563 244 563 200 q 520 361 563 310 q 361 510 478 413 q 179 705 238 613 q 119 903 119 798 q 163 1070 119 1004 q 269 1168 206 1137 q 389 1198 331 1198 q 474 1189 440 1198 q 532 1169 508 1181 q 565 1153 556 1157 q 583 1149 571 1149 q 611 1179 605 1149 l 671 1179 l 671 875 l 579 875 l 579 895 q 534 1005 579 958 q 411 1052 488 1052 q 324 1017 359 1052 q 290 929 290 982 q 327 819 290 873 q 480 677 365 766 q 672 484 605 579 q 738 274 738 389 q 652 48 738 139 q 401 -44 565 -44 z "},"ś":{"ha":812,"x_min":93,"x_max":738,"o":"m 401 -44 q 315 -32 351 -44 q 230 2 280 -20 q 192 12 206 12 q 153 -24 157 12 l 93 -24 l 93 341 l 198 341 q 224 217 200 276 q 292 127 248 159 q 403 93 339 93 q 482 109 446 93 q 538 155 518 125 q 563 244 563 200 q 520 361 563 310 q 361 510 478 413 q 179 705 238 613 q 119 903 119 798 q 163 1070 119 1004 q 269 1168 206 1137 q 389 1198 331 1198 q 474 1189 440 1198 q 532 1169 508 1181 q 565 1153 556 1157 q 583 1149 571 1149 q 611 1179 605 1149 l 671 1179 l 671 875 l 579 875 l 579 895 q 534 1005 579 958 q 411 1052 488 1052 q 324 1017 359 1052 q 290 929 290 982 q 327 819 290 873 q 480 677 365 766 q 672 484 605 579 q 738 274 738 389 q 652 48 738 139 q 401 -44 565 -44 m 252 1349 l 482 1538 l 558 1435 l 298 1282 l 252 1349 z "},"š":{"ha":812,"x_min":93,"x_max":738,"o":"m 401 -44 q 315 -32 351 -44 q 230 2 280 -20 q 192 12 206 12 q 153 -24 157 12 l 93 -24 l 93 341 l 198 341 q 224 217 200 276 q 292 127 248 159 q 403 93 339 93 q 482 109 446 93 q 538 155 518 125 q 563 244 563 200 q 520 361 563 310 q 361 510 478 413 q 179 705 238 613 q 119 903 119 798 q 163 1070 119 1004 q 269 1168 206 1137 q 389 1198 331 1198 q 474 1189 440 1198 q 532 1169 508 1181 q 565 1153 556 1157 q 583 1149 571 1149 q 611 1179 605 1149 l 671 1179 l 671 875 l 579 875 l 579 895 q 534 1005 579 958 q 411 1052 488 1052 q 324 1017 359 1052 q 290 929 290 982 q 327 819 290 873 q 480 677 365 766 q 672 484 605 579 q 738 274 738 389 q 652 48 738 139 q 401 -44 565 -44 m 405 1423 l 615 1490 l 615 1401 l 405 1286 l 192 1401 l 192 1490 l 405 1423 z "},"ş":{"ha":812,"x_min":93,"x_max":738,"o":"m 480 677 q 672 484 605 579 q 738 274 738 389 q 660 57 738 147 q 433 -44 581 -34 l 417 -75 q 476 -120 450 -89 q 502 -200 502 -151 q 460 -296 502 -260 q 361 -331 419 -331 q 296 -315 327 -331 q 244 -268 264 -300 l 284 -222 q 343 -246 308 -246 q 382 -235 365 -246 q 401 -206 399 -224 q 376 -148 403 -169 q 298 -127 349 -127 l 339 -38 q 230 2 296 -28 q 192 12 206 12 q 153 -24 157 12 l 93 -24 l 93 341 l 198 341 q 224 217 200 276 q 292 127 248 159 q 403 93 339 93 q 482 109 446 93 q 538 155 518 125 q 563 244 563 200 q 520 361 563 310 q 361 510 478 413 q 179 705 238 613 q 119 903 119 798 q 163 1070 119 1004 q 269 1168 206 1137 q 389 1198 331 1198 q 474 1189 440 1198 q 532 1169 508 1181 q 565 1153 556 1157 q 583 1149 571 1149 q 611 1179 605 1149 l 671 1179 l 671 875 l 579 875 l 579 895 q 534 1005 579 958 q 411 1052 488 1052 q 324 1017 359 1052 q 290 929 290 982 q 327 819 290 873 q 480 677 365 766 z "},"ș":{"ha":812,"x_min":93,"x_max":738,"o":"m 401 -44 q 315 -32 351 -44 q 230 2 280 -20 q 192 12 206 12 q 153 -24 157 12 l 93 -24 l 93 341 l 198 341 q 224 217 200 276 q 292 127 248 159 q 403 93 339 93 q 482 109 446 93 q 538 155 518 125 q 563 244 563 200 q 520 361 563 310 q 361 510 478 413 q 179 705 238 613 q 119 903 119 798 q 163 1070 119 1004 q 269 1168 206 1137 q 389 1198 331 1198 q 474 1189 440 1198 q 532 1169 508 1181 q 565 1153 556 1157 q 583 1149 571 1149 q 611 1179 605 1149 l 671 1179 l 671 875 l 579 875 l 579 895 q 534 1005 579 958 q 411 1052 488 1052 q 324 1017 359 1052 q 290 929 290 982 q 327 819 290 873 q 480 677 365 766 q 672 484 605 579 q 738 274 738 389 q 652 48 738 139 q 401 -44 565 -44 m 262 -429 q 258 -423 260 -427 q 254 -417 256 -419 q 312 -338 284 -383 q 345 -266 339 -294 q 329 -226 329 -250 q 346 -182 329 -200 q 389 -163 363 -163 q 432 -179 415 -161 q 452 -222 448 -196 q 395 -345 456 -286 q 262 -429 333 -405 z "},"ß":{"ha":1623,"x_min":93,"x_max":1550,"o":"m 401 -44 q 315 -32 351 -44 q 230 2 280 -20 q 192 12 206 12 q 153 -24 157 12 l 93 -24 l 93 341 l 198 341 q 224 217 200 276 q 292 127 248 159 q 403 93 339 93 q 482 109 446 93 q 538 155 518 125 q 563 244 563 200 q 520 361 563 310 q 361 510 478 413 q 179 705 238 613 q 119 903 119 798 q 163 1070 119 1004 q 269 1168 206 1137 q 389 1198 331 1198 q 474 1189 440 1198 q 532 1169 508 1181 q 565 1153 556 1157 q 583 1149 571 1149 q 611 1179 605 1149 l 671 1179 l 671 875 l 579 875 l 579 895 q 534 1005 579 958 q 411 1052 488 1052 q 324 1017 359 1052 q 290 929 290 982 q 327 819 290 873 q 480 677 365 766 q 672 484 605 579 q 738 274 738 389 q 652 48 738 139 q 401 -44 565 -44 m 1212 -44 q 1127 -32 1163 -44 q 1042 2 1091 -20 q 1004 12 1018 12 q 964 -24 968 12 l 905 -24 l 905 341 l 1010 341 q 1036 217 1012 276 q 1103 127 1060 159 q 1214 93 1151 93 q 1294 109 1258 93 q 1349 155 1329 125 q 1375 244 1375 200 q 1331 361 1375 310 q 1173 510 1290 413 q 990 705 1050 613 q 931 903 931 798 q 974 1070 931 1004 q 1080 1168 1018 1137 q 1200 1198 1143 1198 q 1286 1189 1252 1198 q 1343 1169 1319 1181 q 1377 1153 1367 1157 q 1395 1149 1383 1149 q 1423 1179 1417 1149 l 1482 1179 l 1482 875 l 1391 875 l 1391 895 q 1345 1005 1391 958 q 1222 1052 1300 1052 q 1136 1017 1171 1052 q 1101 929 1101 982 q 1139 819 1101 873 q 1292 677 1177 766 q 1483 484 1417 579 q 1550 274 1550 389 q 1463 48 1550 139 q 1212 -44 1377 -44 z "},"t":{"ha":1058,"x_min":75,"x_max":982,"o":"m 982 909 l 871 909 l 871 968 q 857 1002 871 988 q 823 1016 843 1016 l 629 1018 l 629 141 q 641 114 629 125 q 669 103 653 103 l 706 103 l 706 0 l 353 0 l 353 103 l 391 103 q 418 115 407 103 q 429 141 429 127 l 429 1018 l 234 1020 q 200 1005 214 1020 q 187 970 187 990 l 187 909 l 75 909 l 75 1157 l 982 1157 l 982 909 z "},"ŧ":{"ha":1058,"x_min":75,"x_max":982,"o":"m 982 909 l 871 909 l 871 968 q 857 1002 871 988 q 823 1016 843 1016 l 629 1018 l 629 700 l 788 700 l 788 528 l 629 528 l 629 141 q 641 114 629 125 q 669 103 653 103 l 706 103 l 706 0 l 353 0 l 353 103 l 391 103 q 418 115 407 103 q 429 141 429 127 l 429 528 l 272 528 l 272 700 l 429 700 l 429 1018 l 234 1020 q 200 1005 214 1020 q 187 970 187 990 l 187 909 l 75 909 l 75 1157 l 982 1157 l 982 909 z "},"ť":{"ha":1331,"x_min":75,"x_max":1274,"o":"m 982 909 l 871 909 l 871 968 q 857 1002 871 988 q 823 1016 843 1016 l 629 1018 l 629 141 q 641 114 629 125 q 669 103 653 103 l 706 103 l 706 0 l 353 0 l 353 103 l 391 103 q 418 115 407 103 q 429 141 429 127 l 429 1018 l 234 1020 q 200 1005 214 1020 q 187 970 187 990 l 187 909 l 75 909 l 75 1157 l 982 1157 l 982 909 m 1105 891 q 1151 975 1129 927 q 1175 1052 1173 1024 q 1161 1066 1167 1056 q 1153 1089 1155 1077 q 1166 1139 1149 1117 q 1212 1161 1183 1161 q 1257 1139 1240 1161 q 1274 1087 1274 1117 q 1223 968 1274 1028 q 1113 879 1173 909 l 1105 891 z "},"ţ":{"ha":1058,"x_min":75,"x_max":982,"o":"m 982 909 l 871 909 l 871 968 q 857 1002 871 988 q 823 1016 843 1016 l 629 1018 l 629 141 q 641 114 629 125 q 669 103 653 103 l 706 103 l 706 0 l 573 0 l 554 -42 q 613 -86 587 -56 q 639 -167 639 -117 q 597 -262 639 -226 q 498 -298 556 -298 q 433 -282 464 -298 q 381 -234 401 -266 l 421 -188 q 480 -212 444 -212 q 519 -201 502 -212 q 538 -173 536 -190 q 513 -114 540 -135 q 435 -93 486 -93 l 478 0 l 353 0 l 353 103 l 391 103 q 418 115 407 103 q 429 141 429 127 l 429 1018 l 234 1020 q 200 1005 214 1020 q 187 970 187 990 l 187 909 l 75 909 l 75 1157 l 982 1157 l 982 909 z "},"ț":{"ha":1058,"x_min":75,"x_max":982,"o":"m 982 909 l 871 909 l 871 968 q 857 1002 871 988 q 823 1016 843 1016 l 629 1018 l 629 141 q 641 114 629 125 q 669 103 653 103 l 706 103 l 706 0 l 353 0 l 353 103 l 391 103 q 418 115 407 103 q 429 141 429 127 l 429 1018 l 234 1020 q 200 1005 214 1020 q 187 970 187 990 l 187 909 l 75 909 l 75 1157 l 982 1157 l 982 909 m 399 -395 q 395 -389 397 -393 q 391 -383 393 -385 q 448 -305 421 -349 q 482 -232 476 -260 q 466 -192 466 -216 q 483 -148 466 -167 q 526 -129 500 -129 q 568 -145 552 -127 q 589 -188 585 -163 q 532 -312 593 -252 q 399 -395 470 -371 z "},"u":{"ha":1143,"x_min":79,"x_max":1063,"o":"m 573 -42 q 269 68 383 -42 q 155 367 155 179 l 155 1018 q 145 1044 155 1034 q 121 1054 135 1054 l 79 1054 l 79 1157 l 440 1157 l 440 1054 l 391 1054 q 366 1044 377 1054 q 355 1018 355 1034 l 355 367 q 414 177 355 250 q 583 103 472 103 q 756 170 685 103 q 823 377 827 236 l 823 1018 q 813 1044 823 1034 q 788 1054 804 1054 l 742 1054 l 742 1157 l 1063 1157 l 1063 1054 l 1006 1054 q 981 1044 992 1054 q 970 1018 970 1034 l 970 355 q 917 142 970 232 q 773 5 863 52 q 573 -42 683 -42 z "},"ú":{"ha":1143,"x_min":79,"x_max":1063,"o":"m 573 -42 q 269 68 383 -42 q 155 367 155 179 l 155 1018 q 145 1044 155 1034 q 121 1054 135 1054 l 79 1054 l 79 1157 l 440 1157 l 440 1054 l 391 1054 q 366 1044 377 1054 q 355 1018 355 1034 l 355 367 q 414 177 355 250 q 583 103 472 103 q 756 170 685 103 q 823 377 827 236 l 823 1018 q 813 1044 823 1034 q 788 1054 804 1054 l 742 1054 l 742 1157 l 1063 1157 l 1063 1054 l 1006 1054 q 981 1044 992 1054 q 970 1018 970 1034 l 970 355 q 917 142 970 232 q 773 5 863 52 q 573 -42 683 -42 m 438 1315 l 669 1504 l 744 1401 l 484 1248 l 438 1315 z "},"ǔ":{"ha":1143,"x_min":79,"x_max":1063,"o":"m 573 -42 q 269 68 383 -42 q 155 367 155 179 l 155 1018 q 145 1044 155 1034 q 121 1054 135 1054 l 79 1054 l 79 1157 l 440 1157 l 440 1054 l 391 1054 q 366 1044 377 1054 q 355 1018 355 1034 l 355 367 q 414 177 355 250 q 583 103 472 103 q 756 170 685 103 q 823 377 827 236 l 823 1018 q 813 1044 823 1034 q 788 1054 804 1054 l 742 1054 l 742 1157 l 1063 1157 l 1063 1054 l 1006 1054 q 981 1044 992 1054 q 970 1018 970 1034 l 970 355 q 917 142 970 232 q 773 5 863 52 q 573 -42 683 -42 m 591 1389 l 802 1456 l 802 1367 l 591 1252 l 379 1367 l 379 1456 l 591 1389 z "},"û":{"ha":1143,"x_min":79,"x_max":1063,"o":"m 573 -42 q 269 68 383 -42 q 155 367 155 179 l 155 1018 q 145 1044 155 1034 q 121 1054 135 1054 l 79 1054 l 79 1157 l 440 1157 l 440 1054 l 391 1054 q 366 1044 377 1054 q 355 1018 355 1034 l 355 367 q 414 177 355 250 q 583 103 472 103 q 756 170 685 103 q 823 377 827 236 l 823 1018 q 813 1044 823 1034 q 788 1054 804 1054 l 742 1054 l 742 1157 l 1063 1157 l 1063 1054 l 1006 1054 q 981 1044 992 1054 q 970 1018 970 1034 l 970 355 q 917 142 970 232 q 773 5 863 52 q 573 -42 683 -42 m 379 1341 l 591 1456 l 802 1341 l 802 1252 l 591 1319 l 379 1252 l 379 1341 z "},"ü":{"ha":1143,"x_min":79,"x_max":1063,"o":"m 573 -42 q 269 68 383 -42 q 155 367 155 179 l 155 1018 q 145 1044 155 1034 q 121 1054 135 1054 l 79 1054 l 79 1157 l 440 1157 l 440 1054 l 391 1054 q 366 1044 377 1054 q 355 1018 355 1034 l 355 367 q 414 177 355 250 q 583 103 472 103 q 756 170 685 103 q 823 377 827 236 l 823 1018 q 813 1044 823 1034 q 788 1054 804 1054 l 742 1054 l 742 1157 l 1063 1157 l 1063 1054 l 1006 1054 q 981 1044 992 1054 q 970 1018 970 1034 l 970 355 q 917 142 970 232 q 773 5 863 52 q 573 -42 683 -42 m 423 1280 q 364 1306 389 1280 q 339 1365 339 1331 q 364 1424 339 1399 q 423 1448 389 1448 q 481 1424 456 1448 q 506 1365 506 1399 q 481 1306 506 1331 q 423 1280 456 1280 m 758 1280 q 699 1306 724 1280 q 675 1365 675 1331 q 699 1424 675 1399 q 758 1448 724 1448 q 816 1424 792 1448 q 841 1365 841 1399 q 816 1306 841 1331 q 758 1280 792 1280 z "},"ǘ":{"ha":1143,"x_min":79,"x_max":1063,"o":"m 573 -42 q 269 68 383 -42 q 155 367 155 179 l 155 1018 q 145 1044 155 1034 q 121 1054 135 1054 l 79 1054 l 79 1157 l 440 1157 l 440 1054 l 391 1054 q 366 1044 377 1054 q 355 1018 355 1034 l 355 367 q 414 177 355 250 q 583 103 472 103 q 756 170 685 103 q 823 377 827 236 l 823 1018 q 813 1044 823 1034 q 788 1054 804 1054 l 742 1054 l 742 1157 l 1063 1157 l 1063 1054 l 1006 1054 q 981 1044 992 1054 q 970 1018 970 1034 l 970 355 q 917 142 970 232 q 773 5 863 52 q 573 -42 683 -42 z "},"ǚ":{"ha":1143,"x_min":79,"x_max":1063,"o":"m 573 -42 q 269 68 383 -42 q 155 367 155 179 l 155 1018 q 145 1044 155 1034 q 121 1054 135 1054 l 79 1054 l 79 1157 l 440 1157 l 440 1054 l 391 1054 q 366 1044 377 1054 q 355 1018 355 1034 l 355 367 q 414 177 355 250 q 583 103 472 103 q 756 170 685 103 q 823 377 827 236 l 823 1018 q 813 1044 823 1034 q 788 1054 804 1054 l 742 1054 l 742 1157 l 1063 1157 l 1063 1054 l 1006 1054 q 981 1044 992 1054 q 970 1018 970 1034 l 970 355 q 917 142 970 232 q 773 5 863 52 q 573 -42 683 -42 z "},"ǜ":{"ha":1143,"x_min":79,"x_max":1063,"o":"m 573 -42 q 269 68 383 -42 q 155 367 155 179 l 155 1018 q 145 1044 155 1034 q 121 1054 135 1054 l 79 1054 l 79 1157 l 440 1157 l 440 1054 l 391 1054 q 366 1044 377 1054 q 355 1018 355 1034 l 355 367 q 414 177 355 250 q 583 103 472 103 q 756 170 685 103 q 823 377 827 236 l 823 1018 q 813 1044 823 1034 q 788 1054 804 1054 l 742 1054 l 742 1157 l 1063 1157 l 1063 1054 l 1006 1054 q 981 1044 992 1054 q 970 1018 970 1034 l 970 355 q 917 142 970 232 q 773 5 863 52 q 573 -42 683 -42 z "},"ǖ":{"ha":1143,"x_min":79,"x_max":1063,"o":"m 573 -42 q 269 68 383 -42 q 155 367 155 179 l 155 1018 q 145 1044 155 1034 q 121 1054 135 1054 l 79 1054 l 79 1157 l 440 1157 l 440 1054 l 391 1054 q 366 1044 377 1054 q 355 1018 355 1034 l 355 367 q 414 177 355 250 q 583 103 472 103 q 756 170 685 103 q 823 377 827 236 l 823 1018 q 813 1044 823 1034 q 788 1054 804 1054 l 742 1054 l 742 1157 l 1063 1157 l 1063 1054 l 1006 1054 q 981 1044 992 1054 q 970 1018 970 1034 l 970 355 q 917 142 970 232 q 773 5 863 52 q 573 -42 683 -42 z "},"ụ":{"ha":1143,"x_min":79,"x_max":1063,"o":"m 573 -42 q 269 68 383 -42 q 155 367 155 179 l 155 1018 q 145 1044 155 1034 q 121 1054 135 1054 l 79 1054 l 79 1157 l 440 1157 l 440 1054 l 391 1054 q 366 1044 377 1054 q 355 1018 355 1034 l 355 367 q 414 177 355 250 q 583 103 472 103 q 756 170 685 103 q 823 377 827 236 l 823 1018 q 813 1044 823 1034 q 788 1054 804 1054 l 742 1054 l 742 1157 l 1063 1157 l 1063 1054 l 1006 1054 q 981 1044 992 1054 q 970 1018 970 1034 l 970 355 q 917 142 970 232 q 773 5 863 52 q 573 -42 683 -42 m 579 -321 q 521 -296 546 -321 q 496 -236 496 -270 q 521 -178 496 -202 q 579 -153 546 -153 q 638 -178 613 -153 q 663 -236 663 -202 q 638 -296 663 -270 q 579 -321 613 -321 z "},"ù":{"ha":1143,"x_min":79,"x_max":1063,"o":"m 573 -42 q 269 68 383 -42 q 155 367 155 179 l 155 1018 q 145 1044 155 1034 q 121 1054 135 1054 l 79 1054 l 79 1157 l 440 1157 l 440 1054 l 391 1054 q 366 1044 377 1054 q 355 1018 355 1034 l 355 367 q 414 177 355 250 q 583 103 472 103 q 756 170 685 103 q 823 377 827 236 l 823 1018 q 813 1044 823 1034 q 788 1054 804 1054 l 742 1054 l 742 1157 l 1063 1157 l 1063 1054 l 1006 1054 q 981 1044 992 1054 q 970 1018 970 1034 l 970 355 q 917 142 970 232 q 773 5 863 52 q 573 -42 683 -42 m 442 1401 l 518 1504 l 748 1315 l 702 1248 l 442 1401 z "},"ủ":{"ha":1143,"x_min":79,"x_max":1063,"o":"m 573 -42 q 269 68 383 -42 q 155 367 155 179 l 155 1018 q 145 1044 155 1034 q 121 1054 135 1054 l 79 1054 l 79 1157 l 440 1157 l 440 1054 l 391 1054 q 366 1044 377 1054 q 355 1018 355 1034 l 355 367 q 414 177 355 250 q 583 103 472 103 q 756 170 685 103 q 823 377 827 236 l 823 1018 q 813 1044 823 1034 q 788 1054 804 1054 l 742 1054 l 742 1157 l 1063 1157 l 1063 1054 l 1006 1054 q 981 1044 992 1054 q 970 1018 970 1034 l 970 355 q 917 142 970 232 q 773 5 863 52 q 573 -42 683 -42 m 550 1270 q 567 1326 554 1306 q 605 1371 581 1347 q 633 1403 625 1391 q 641 1433 641 1415 q 639 1450 641 1444 q 587 1486 631 1486 q 551 1479 569 1486 q 520 1458 532 1472 l 478 1522 q 536 1566 502 1552 q 605 1581 569 1581 q 706 1542 667 1581 q 746 1448 746 1502 q 727 1382 746 1415 q 675 1325 708 1349 q 629 1270 635 1298 l 550 1270 z "},"ư":{"ha":1143,"x_min":79,"x_max":1196,"o":"m 1179 1200 q 1196 1155 1196 1181 q 1173 1097 1196 1121 q 1040 1052 1129 1052 q 1000 1054 1014 1052 q 978 1041 986 1050 q 970 1018 970 1032 l 970 355 q 917 142 970 232 q 773 5 863 52 q 573 -42 683 -42 q 269 68 383 -42 q 155 367 155 179 l 155 1018 q 145 1044 155 1034 q 121 1054 135 1054 l 79 1054 l 79 1157 l 440 1157 l 440 1054 l 391 1054 q 366 1044 377 1054 q 355 1018 355 1034 l 355 367 q 414 177 355 250 q 583 103 472 103 q 756 170 685 103 q 823 377 827 236 l 823 1018 q 813 1044 823 1034 q 788 1054 804 1054 l 742 1054 l 742 1157 l 1050 1157 q 1071 1204 1050 1183 q 1125 1224 1097 1224 q 1179 1200 1157 1224 z "},"ứ":{"ha":1143,"x_min":79,"x_max":1196,"o":"m 1179 1200 q 1196 1155 1196 1181 q 1173 1097 1196 1121 q 1040 1052 1129 1052 q 1000 1054 1014 1052 q 978 1041 986 1050 q 970 1018 970 1032 l 970 355 q 917 142 970 232 q 773 5 863 52 q 573 -42 683 -42 q 269 68 383 -42 q 155 367 155 179 l 155 1018 q 145 1044 155 1034 q 121 1054 135 1054 l 79 1054 l 79 1157 l 440 1157 l 440 1054 l 391 1054 q 366 1044 377 1054 q 355 1018 355 1034 l 355 367 q 414 177 355 250 q 583 103 472 103 q 756 170 685 103 q 823 377 827 236 l 823 1018 q 813 1044 823 1034 q 788 1054 804 1054 l 742 1054 l 742 1157 l 1050 1157 q 1071 1204 1050 1183 q 1125 1224 1097 1224 q 1179 1200 1157 1224 m 438 1315 l 669 1504 l 744 1401 l 484 1248 l 438 1315 z "}}}
